<svg xmlns="http://www.w3.org/2000/svg" width="1200" height="1200"><defs><filter id="A" color-interpolation-filters="sRGB"><feGaussianBlur stdDeviation="5 5"/></filter></defs><path d="M0 0h1200v1200H0z" fill="#f9f9f9"/><g transform="translate(0 -33.339)"><g transform="matrix(.978442 0 0 .978442 543.55299 428.57941)" stroke="#fff" stroke-width="5"><circle cx="52.67" cy="129.574" r="136.477" fill="#5c2d91"/><path d="M-38.124 27.68a136.477 136.477 0 1 0 192.688 192.688z" opacity=".1" fill="#fff"/></g><path d="M496.153 573.548c-1.575.025-3.088-.61-4.173-1.753a5.76 5.76 0 0 1-1.71-4.173 5.84 5.84 0 0 1 1.71-4.173 5.59 5.59 0 0 1 4.173-1.794c1.58-.004 3.09.645 4.173 1.794a5.8 5.8 0 0 1 1.753 4.173c.015 1.573-.62 3.082-1.753 4.173a5.76 5.76 0 0 1-4.173 1.753zm82.928-1.044h-10.946l-39.1-60.673a25.04 25.04 0 0 1-2.42-4.757h-.334a78.12 78.12 0 0 1 .418 10.433v55H517.8v-76.074h11.548l38.058 59.6q2.38 3.702 3.09 5.09h.208c-.44-3.71-.622-7.448-.543-11.184v-53.497h8.888zm60.174 0H598.82v-76.072h38.536v8.054h-29.46v25.288h27.46v8.013h-27.46v26.373h31.38zm59.716-68.02h-22.107v68.02h-8.888v-68.02H646.11v-8.053h52.87z" fill="#fff"/><path d="M570.55 627.97a20.57 20.57 0 0 1-9.682 2.045c-4.497.202-8.863-1.547-11.976-4.8-3.066-3.432-4.682-7.92-4.507-12.52a18.61 18.61 0 0 1 5.05-13.604c3.37-3.45 8.032-5.33 12.853-5.175a20.57 20.57 0 0 1 8.346 1.461v4.173a16.69 16.69 0 0 0-8.346-2.087 12.77 12.77 0 0 0-9.806 4.173 15.19 15.19 0 0 0-3.756 10.766 14.48 14.48 0 0 0 3.505 10.223c2.373 2.55 5.742 3.938 9.223 3.797 3.204.084 6.368-.725 9.14-2.337zm17.067 2.044a11.6 11.6 0 0 1-8.888-3.714 12.98 12.98 0 0 1-3.297-9.306 13.52 13.52 0 0 1 3.463-9.848 12.52 12.52 0 0 1 9.306-3.547c3.273-.174 6.46 1.09 8.72 3.463 2.218 2.673 3.337 6.09 3.13 9.556.175 3.52-1.04 6.966-3.38 9.598a11.85 11.85 0 0 1-9.055 3.797zm.292-22.826c-2.325-.098-4.568.87-6.093 2.63a10.81 10.81 0 0 0-2.253 7.26c-.146 2.536.657 5.035 2.253 7.01a7.72 7.72 0 0 0 6.093 2.587c2.27.134 4.473-.79 5.967-2.504 1.517-2.073 2.256-4.614 2.087-7.178a11.1 11.1 0 0 0-2.087-7.219c-1.474-1.75-3.682-2.707-5.967-2.587zm31.63 1.253c-.9-.59-1.97-.87-3.046-.793a5.13 5.13 0 0 0-4.173 2.42c-1.242 1.966-1.84 4.27-1.7 6.593v12.77h-4.173v-25.037h4.173v5.215c.46-1.614 1.37-3.062 2.63-4.173 1.088-.945 2.48-1.463 3.922-1.46a6.55 6.55 0 0 1 2.379.334zm24.455 9.515h-17.652c-.118 2.333.64 4.625 2.128 6.426a7.76 7.76 0 0 0 5.926 2.253 12.52 12.52 0 0 0 7.762-2.796v3.755a14.52 14.52 0 0 1-8.721 2.379 10.6 10.6 0 0 1-8.346-3.422 13.98 13.98 0 0 1-3.046-9.598c-.15-3.475 1.03-6.877 3.297-9.515a10.64 10.64 0 0 1 8.346-3.673 9.43 9.43 0 0 1 7.595 3.171 13.27 13.27 0 0 1 2.671 8.847zm-4.173-3.38c.085-1.934-.505-3.836-1.67-5.383-1.157-1.307-2.848-2.014-4.59-1.92a6.47 6.47 0 0 0-4.799 2.045c-1.374 1.453-2.238 3.313-2.462 5.3z" fill="#f2f2f2"/><path d="M654.072 672.43v-74.65c0-8.655 9.196-14.065 16.23-9.737l64.914 37.326c7.573 4.328 7.573 15.688 0 20.015L670.3 682.707c-7.032 3.787-16.23-1.623-16.23-10.278z" fill="#2ecc71"/><ellipse cx="573.658" cy="866.246" rx="51.854" ry="18.856" transform="matrix(1.501831 0 0 .930445 -261.53668 20.251713)" opacity=".3" fill="#4d4d4d" stroke="#fff" stroke-width="3.78" filter="url(#A)"/></g></svg>