<svg xmlns="http://www.w3.org/2000/svg" xmlns:xlink="http://www.w3.org/1999/xlink" width="4535.433" height="4535.433" viewBox="0 0 1200 1200"><style><![CDATA[.B{fill:#f9f9f9}.C{stroke:#4d4d4d}.D{fill:#ececec}.E{stroke-width:2.955}]]></style><path d="M0 0h1200v1200H0z" class="B"/><g transform="matrix(.985052 0 0 .985052 8.968776 901.505722)"><g fill="none" class="C"><g stroke-width="5"><path d="M825.515-356.13l163.05-79.568" stroke-dasharray="30.00000084, 30.00000084"/><path d="M824.42-305.655h181.43" stroke-dasharray="30.00000116, 30.00000116"/></g><path d="M825.67-255.115l162.887 88.07" stroke-width="5.258" stroke-dasharray="31.5464028, 31.5464028"/><path d="M285.75-303h181.43" stroke-width="5" stroke-dasharray="30.00000148, 30.00000148"/></g><path d="M807.026-201.483c-12.7 21.98-150.454 101.517-175.833 101.517S468.05-179.503 455.36-201.483s-12.7-181.056 0-203.035 150.454-101.517 175.833-101.517 163.144 79.538 175.833 101.517 12.7 181.056 0 203.035z" fill="#3498db"/><path d="M777.566-218.49c-10.564 18.297-125.246 84.51-146.373 84.51s-135.8-66.212-146.373-84.51-10.564-150.72 0-169.017 125.246-84.51 146.373-84.51 135.8 66.212 146.373 84.51 10.564 150.72 0 169.017z" fill="#fff"/><path d="M570.275-173.88c1.376-2.618 16.283-17.236 22.083-21.654 2.997-2.284 5.28-4.43 5.07-4.767-.9-1.44-4.914-.46-8.406 2.044-7.52 5.394-17.343 11.833-18.055 11.833-1.218 0 4.518-4.25 14.045-10.41l9.004-5.82-1.122-2.17c-1.35-2.613-3.665-3.297-9.217-2.724-7.02.725-14.47 4.786-30.588 16.68-7.23 5.336-9.104 6.37-6.673 3.683 1.89-2.087 8.253-6.665 18.687-13.443 7.902-5.132 8.47-5.646 5.72-5.176-1.678.287-7.457 2.046-12.842 3.91s-9.976 3.204-10.2 2.98c-1.202-1.202 23.498-10.007 30.29-10.796 5.762-.67 9.153-1.8 9.153-3.048 0-1.71-1.704-4.935-2.6-4.92-2.1.034-12.086 2.468-17.604 4.295-6.674 2.2-21.893 9.384-32.994 15.55-3.88 2.156-7.055 3.73-7.055 3.5 0-.55 10.954-6.956 18.686-10.927 10.2-5.234 20.176-9.175 28.602-11.287 4.405-1.104 8.486-2.475 9.07-3.047 1.756-1.718-3.584-2.228-13.168-1.256-10.843 1.1-17.934 3.072-27.937 7.773-6.002 2.82-7.435 3.287-5.72 1.863 3.384-2.8 11.52-6.884 17.16-8.593 2.727-.826 8.56-1.735 12.966-2.02 9.84-.637 13.08-1.167 12.533-2.05-1.062-1.72-28.35-.4-39.8 1.91-2.622.53-4.767.835-4.767.675s1.275-.823 2.833-1.474c1.795-.75 8.15-1.566 17.352-2.227l18.658-1.552 4.14-.51-2.874-1.474c-1.58-.81-4.988-1.75-7.572-2.087-3.42-.446-3.933-.638-1.882-.71 1.548-.053 2.984-.37 3.2-.703s-2.574-2.65-6.177-5.148-7.7-5.523-9.105-6.722c-3.354-2.864-8.142-12.754-10.575-21.846-2.428-9.072-3.343-23.64-1.91-30.396 1.662-7.83-1.243-19.083-7.273-28.174-2.07-3.12-2.637-4.707-2.502-6.992.145-2.46-.294-3.474-2.62-6.05-2.883-3.19-3.185-3.917-4.314-10.38-.367-2.097-1.58-5.983-2.696-8.635-3.11-7.384-4.464-15.942-4.006-25.306.46-9.427 2.358-15.3 6.083-18.825 3.536-3.347 5.27-4.057 9.92-4.057 7.416 0 15.79 3.286 24.977 9.8 7.65 5.426 10.4 8.21 16.25 16.46 10.206 14.394 11.495 15.227 19.635 12.676 2.707-.848 6.294-1.546 7.972-1.55s7.987-.922 14.02-2.038c9.942-1.84 11.515-1.947 16.78-1.157 3.195.48 10.27 1.233 15.725 1.673 6.066.5 12.562 1.552 16.733 2.736 7.128 2.023 10.28 2.424 11.777 1.5.5-.303 3.008-3.7 5.595-7.55 7.767-11.555 19.12-21.984 29.943-27.51 6.447-3.29 12.027-4.54 18.448-4.132 4.228.27 5.148.62 7.448 2.85 4.352 4.218 5.942 9.023 6.37 19.247.45 10.75-1.18 21.15-4.38 27.9-1.18 2.494-2.396 6.044-2.703 7.9-.7 4.194-2.67 8.127-5.31 10.59-1.675 1.564-1.95 2.334-1.565 4.388.374 1.995.002 3.167-1.87 5.888-6.183 8.987-9.68 19.5-8.853 26.606 1.652 14.167 1.557 15.464-2.188 29.837-1.946 7.47-4.067 14.604-4.714 15.854-1.907 3.687-6.963 8.705-13.168 13.07-3.19 2.244-6.418 4.77-7.172 5.616-1.36 1.525-1.345 1.53 2.288.75 2.012-.432 10.007-.78 17.768-.772 12.24.012 15.307.272 23.143 1.965 4.968 1.073 9.23 2.148 9.47 2.39 1.485 1.485-1.9 1.166-11.456-1.08-12.552-2.95-17.492-3.114-35.192-1.173-10.402 1.14-14.908 2.302-16.04 4.132-.24.4 4.45.904 10.82 1.184 14.59.642 23.437 1.65 27.927 3.18 1.988.677 3.487 1.358 3.333 1.512s-3.69-.395-7.86-1.22c-9.053-1.794-26.37-2.675-32.748-1.667-4.16.658-4.29.732-1.435.816 4.35.13 15.558 2.118 22.395 3.975 7.715 2.095 17.083 6.635 21.938 10.63 4.934 4.06 4.747 4.928-.242 1.12-9.423-7.193-21.92-11.29-40.842-13.394-5.5-.61-8.54-.654-9.474-.13-1.243.696-1.162.877.854 1.903 1.225.624 5.414 1.86 9.308 2.75 11.43 2.607 23.665 8.154 37.54 17.017 7.432 4.748 6.154 4.75-1.826.003-7.69-4.574-22.86-11.68-29.446-13.79-2.727-.874-7.973-2.247-11.66-3.05l-6.702-1.46-1.2 1.83c-1.706 2.604-.92 3.787 3.213 4.827 16.94 4.266 43.302 14.18 44.998 16.925.64 1.034.484.975-5.006-1.91-7.858-4.13-28.23-10.615-29.467-9.38-.2.2 3.69 2.822 8.64 5.828 10.428 6.33 12.976 8.15 12.326 8.798-.258.258-5.572-2.886-11.81-6.986-12.305-8.087-16.842-10.094-22.906-10.133-3.474-.023-4.168.25-5.91 2.322-1.086 1.29-1.975 2.592-1.975 2.892s2.28 1.88 5.068 3.5c5.63 3.294 16.04 10.56 17.813 12.43 1.46 1.542-.423.385-13.16-8.087-8.99-5.98-9.877-6.403-11.697-5.574l-1.97.897 4.832 3.54c7.453 5.46 13.58 11.063 18.18 16.623 2.307 2.79 4.295 5.35 4.418 5.695s-4.682-4.24-10.678-10.186c-10.547-10.46-13.855-12.896-18.874-13.9l-2.374-.475.5 3.192c.503 3.15.483 3.185-1.49 2.7-1.706-.428-2.12-.183-2.822 1.675-2.99 7.915-16.34 12.845-29.664 10.955-9.213-1.307-15.5-4.883-17.632-10.03-.7-1.714-1.26-2.11-2.424-1.74-1.383.44-1.462.225-.976-2.65.516-3.054.477-3.127-1.636-3.11-4.447.034-8.543 2.927-20.137 14.218-6.39 6.224-11.25 10.612-10.797 9.75zm69.453-9.842c5.476-1.446 8.98-3.96 10.844-7.78.85-1.744 2.3-3.67 3.22-4.28 2.73-1.812.635-3.31-5.364-3.84-2.83-.25-8.027-1.304-11.547-2.34l-6.4-1.886-8.854 2.275c-11.752 3.02-16.1 4.45-16.1 5.3 0 .386.257.704.572.707s1.41 1.3 2.437 2.86c4.232 6.48 6.51 8.06 14.052 9.764 5.11 1.153 10.82.896 17.14-.774zm-24.667-19.146c7.632-1.41 13.583-4.255 13.196-6.306-.133-.702-3.5-3.72-7.48-6.706s-8.012-6.555-8.956-7.93c-1.883-2.744-2.212-6.08-.82-8.308.73-1.167.406-2.97-1.727-9.654-1.442-4.52-3.06-8.366-3.596-8.544s-2.177.95-3.648 2.51-2.876 2.633-3.123 2.386.326-2.86 1.274-5.808c2.153-6.696 1.55-8.572-4.125-12.815-3.156-2.36-4.887-3.08-8.224-3.426-2.325-.24-5.648-1.16-7.385-2.048-3.822-1.95-7.714-7.058-7.714-10.124 0-2.716-1.327-5.387-2.36-4.75-.417.258-1.625-.1-2.685-.794-1.758-1.152-2.087-1.157-3.753-.066-1.005.658-2.31 1.197-2.904 1.197-1.78 0-2.792 1.87-3.653 6.754l-.816 4.635-4.31 1.567c-7.536 2.74-7.048 2.13-5.33 6.684l1.5 4.005 2.89-.462c2.28-.365 4.157.1 8.908 2.155 8.482 3.687 20.478 11.23 19.468 12.24-.55.55-1.855.387-4.244-.525-1.898-.725-4.132-1.102-4.964-.838s-2.213.106-3.068-.35c-1.348-.722-1.554-.606-1.554.873 0 1.326-.204 1.5-.915.8-1.458-1.458-2.896-1.064-2.922.8-.023 1.688-.053 1.683-1.83-.335-1.795-2.038-1.81-2.04-2.275-.38-.37 1.32.29 2.357 3.165 4.955 5.873 5.31 12.24 9.205 17.8 10.895 2.86.868 5.602 2.066 6.096 2.66 1.098 1.323 3.14 1.4 4.373.167.712-.712 1.12-.712 1.83 0 .503.503 1.536.915 2.296.915s1.968.686 2.686 1.525 2.068 1.525 2.998 1.525c2.036 0 3.04 1.336 1.876 2.5-.463.463-3.288 1.103-6.278 1.422s-5.61.753-5.82.964-.17 1.226.088 2.257c.493 1.965.47 1.96 12.667 2.94 2.765.223 3.654 1.58 2.357 3.597-.593.923-.9.933-1.944.065-1.074-.89-1.3-.808-1.673.62-.317 1.21-1.017 1.65-2.63 1.65-1.406 0-2.2.396-2.2 1.1 0 1.555 1.23 2.123 2.83 1.305 2.468-1.263 8.217-2.34 8.484-1.59.342.96 3.178.915 3.178-.05 0-1.035 2.07-.97 2.722.085.646 1.044-1.066 2.205-2.462 1.67-.562-.216-1.023-.04-1.023.393s-1.2 1.182-2.67 1.666c-3.158 1.042-3.6 2.587-.572 2.007l8.962-1.67zm-7.246-9.49c0-.42.515-.763 1.144-.763s1.144.343 1.144.763-.515.763-1.144.763-1.144-.343-1.144-.763zm-2.6-8.077c-.56-1.457.127-2.8 1.118-2.187.907.56.932 3.4.03 3.4-.375 0-.89-.546-1.147-1.213zm-19.783-7.685c-1.1-1.1-.4-1.78 1.756-1.78 1.7 0 2.155.285 1.825 1.144-.447 1.165-2.66 1.558-3.58.636zm-5.847-24.578c0-.444-1.05-1.35-2.336-2.014-1.47-.76-2.244-1.687-2.1-2.498.31-1.623 2.88-2.043 4.582-.747 1.568 1.195 2.134 5.264.797 5.733-.524.184-.953-.03-.953-.472zm-8.77-6.737c-3.847-.946-4.76-4.024-1.194-4.024 3.525 0 6.15 1.295 6.15 3.032 0 1.572-1.432 1.86-4.958.992zm12.203-1.492c-7.592-1.7-12.585-5.15-12.585-8.692 0-2.006.406-1.88 4.065 1.272 1.75 1.506 5.042 3.48 7.318 4.386 5.53 2.202 6.314 4.18 1.2 3.035zm-20.912-7.39c-1.79-2.894-2.106-7.195-.575-7.783.557-.214 1.93-.04 3.05.386 1.667.634 2.038 1.255 2.038 3.414 0 3.074-1.17 6.552-2.207 6.552-.396 0-1.434-1.156-2.307-2.57zm93.432 65.973c-.225-.365-1.447-1.093-2.715-1.618-2.823-1.17-2.89-1.784-.32-2.955 2.082-.95 6.826-.477 8.492.845 1.24.984 3.25.176 3.25-1.305 0-.79-.742-1.168-2.288-1.168-1.538 0-2.288-.38-2.288-1.16 0-.855-.5-1.033-1.907-.68-1.725.433-1.907.255-1.907-1.875 0-2.214.17-2.352 2.86-2.34 1.573.01 4.882-.257 7.353-.6 3.696-.497 4.606-.914 5.135-2.35.738-2.008.9-1.932-6.487-3.066-2.887-.444-5.586-1.143-5.997-1.554-1.098-1.098.014-2.406 2.046-2.406.973 0 2.196-.515 2.718-1.144s1.724-1.144 2.67-1.144 2.233-.772 2.86-1.715c.987-1.487 1.838-1.725 6.385-1.792 6.83-.1 11.4-2.186 20.976-9.572 6.81-5.253 7.22-5.72 5.675-6.448-1.272-.6-1.923-.5-2.758.384-.978 1.047-1.12 1.024-1.36-.21-.18-.936-.735-1.258-1.72-1-.8.21-1.648.07-1.884-.313-.25-.402-1.083-.343-1.99.142-1.013.542-1.822.575-2.304.093s-1.665-.46-3.37.063c-1.98.608-2.856.572-3.56-.147-1.344-1.372 2.147-3.978 8.184-6.11 2.656-.938 5.577-2.5 6.5-3.473 2.1-2.234 7.524-3.782 11.422-3.26 2.82.378 3.073.246 4.24-2.217 1.997-4.208 1.34-5.63-3.432-7.448-5.884-2.24-5.82-2.17-6.874-7.75-.644-3.41-1.347-5.144-2.186-5.387-.68-.197-2.2-.852-3.378-1.454-3.288-1.68-7.9-.034-8.96 3.206-2.195 6.652-8.663 11.957-15.707 12.882-3.08.404-4.797 1.23-7.965 3.83-6.61 5.423-7.402 8.41-4.102 15.5 1.054 2.263 1.702 4.323 1.442 4.576s-1.773-.997-3.36-2.78-3.242-3.242-3.675-3.242c-1.46 0-3.83 4.916-5.464 11.33-1.453 5.704-1.5 6.464-.445 7.246.966.717 1.034 1.39.376 3.755-1.073 3.856-3.9 6.92-12.133 13.158-4.047 3.065-6.89 5.77-6.89 6.55 0 1.48 3.874 2.816 15.132 5.216 7.5 1.598 10.31 1.858 9.717.897zm-8.07-4.676c0-.42.515-.763 1.144-.763s1.144.343 1.144.763-.515.763-1.144.763-1.144-.343-1.144-.763zm2.43-5.387a2.39 2.39 0 0 1 1.335-1.335c.572-.19.858.095.667.667a2.39 2.39 0 0 1-1.335 1.335c-.572.19-.858-.095-.667-.667zm2.908-9.04c0-.937.492-1.59 1.2-1.59s1.1.52.953 1.272c-.37 1.913-2.153 2.176-2.153.317zm27.458-25.233c0-.42.323-.763.718-.763s.93.343 1.19.763-.064.763-.718.763-1.19-.343-1.19-.763zm-1.525-6.433c0-3.893 3.46-6.884 5.757-4.977 1.64 1.362 1.407 1.857-1.927 4.063-3.505 2.32-3.83 2.397-3.83.914zm6.102-6.405c0-2.046 1.407-2.985 4.94-3.294 2.366-.208 3.088.017 3.288 1.017.3 1.5-1.376 2.507-5.366 3.227-2.492.45-2.86.328-2.86-.95zm-11.43-.65c.026-1.37 1.276-2.355 4.183-3.295 1.678-.542 5.05-2.34 7.495-3.992s4.63-2.82 4.86-2.592.192 1.3-.08 2.38c-.6 2.388-3.994 4.564-9.605 6.155l-5.53 1.58c-.734.214-1.33.11-1.323-.234zm21.326-6.772c-1.35-3.547-.655-7.4 1.526-8.482 1.72-.853 2.014-.74 3.286 1.27 1.258 1.986 1.286 2.42.286 4.353-.61 1.18-1.823 2.792-2.695 3.58-1.564 1.415-1.595 1.406-2.403-.72zm-64.766 49.29c.38.602.698 1.695.704 2.43.014 1.764.87 1.683 3.532-.333l2.444-1.833c.134-.09-.166-.82-.666-1.62-1.43-2.3.828-5.826 5.013-7.852 1.92-.93 3.36-2.08 3.204-2.557-.6-1.83-5.68-2.796-9.762-1.854-2.947.68-4.88.676-8.234-.017-5.86-1.2-8.14-1.14-9.575.293-1.756 1.756-1.493 2.472 1.343 3.656 3.805 1.6 6.06 4.834 5.487 7.89-.416 2.22-.193 2.657 2.044 4.02l2.512 1.528.63-2.423c.482-1.852.794-2.165 1.323-1.33zm-8.437-2.536c0-1.506-2.72-4.2-3.478-3.443-.342.342 2.54 5.166 3.086 5.166.216 0 .393-.776.393-1.723zm20.316-3.384c-.842-.842-3.535 1.486-3.513 3.037.023 1.617.107 1.595 1.946-.496 1.057-1.202 1.762-2.345 1.567-2.54zm-58.802-3.994c-.276-.447-.868-.813-1.314-.813-.506 0-.448.438.154 1.163 1.046 1.26 1.98.98 1.16-.35zm95.515-.67c.186-.557-.163-.728-.906-.443-.664.255-1.208.8-1.208 1.208 0 1.002 1.733.375 2.114-.765zm-59.805-13.11c.894 0 1.25-.684 1.25-2.396v-2.396l3.116 3.54c2.9 3.294 3.372 3.54 6.805 3.54 3.488 0 3.885-.22 7.27-4.004 3.574-3.998 3.58-4 3.13-1.525-.377 2.073-.217 2.48.974 2.48.784 0 1.622.515 1.864 1.144.816 2.125 1.802 1.163 2.265-2.21.253-1.844 1.8-6.735 3.44-10.87s3.553-10.433 4.253-14c1.62-8.253 3.956-15.428 5.78-17.745.783-.996 3.936-2.97 7.007-4.385 5.034-2.32 6.413-2.605 14.037-2.898 7.412-.284 8.91-.123 12.137 1.304 2.07.916 4.335 1.42 5.174 1.155.82-.26 2.306-.038 3.302.495 1.42.76 2.24.772 3.808.058 2.724-1.24 3.644-.308 5.215 5.293.783 2.8 1.8 4.784 2.576 5.055.706.246 1.837 1.134 2.513 1.973 1.635 2.026 2.6 1.274 3.634-2.833 1.748-6.943.232-11.7-3.437-10.778-1.48.372-1.977.08-2.583-1.514-1.06-2.787-.964-3.166.923-3.66 1.584-.414 1.604-.514.38-1.865-1.817-2.008-1.606-3.214.562-3.214 2.32 0 2.45.474-5.198-18.948-3.195-8.114-5.808-15.846-5.808-17.182 0-3.353 1.714-5.49 6.345-7.916 3.7-1.937 3.817-2.085 1.854-2.325-1.154-.14-2.097-.546-2.097-.9 0-1.175 4.493-4.448 9.105-6.634 2.5-1.185 4.565-2.373 4.586-2.64s-3.65.513-8.16 1.732l-9.997 2.686c-3.6.938-.224-2.748 6.575-7.18 6.834-4.455 7.433-6.46.86-2.883-5.883 3.202-6.17 1.857-.7-3.27 2.715-2.544 4.737-4.826 4.492-5.07s-2.21.743-4.365 2.194-3.92 2.278-3.92 1.84c0-1.05 4.665-7.367 7.176-9.717 2.687-2.514 2.49-1.308-.376 2.31-2.747 3.468-2.275 3.74 1.7.987 4.53-3.14 4.924-1.857 1.044 3.413-1.952 2.65-3.424 4.945-3.27 5.097s1.807-.738 3.676-1.978c3.344-2.218 5.306-2.835 5.306-1.67 0 .943-3.965 4.865-8.242 8.153-6.173 4.746-3.154 5.306 6.335 1.174 3.91-1.703 7.246-2.492 7.246-1.715 0 1.616-2.846 4.26-7.66 7.12-2.918 1.734-5.306 3.38-5.306 3.657s1.45.367 3.224.198c2.768-.264 3.093-.15 2.294.813-.512.616-3.72 2.622-7.13 4.457-9.194 4.948-9.132 4.72-4.454 16.447l4.27 10.387c.198.32 1.022.228 1.83-.206 1.23-.658 1.32-1.028.56-2.248-.75-1.2-.65-1.748.56-3.085 1.466-1.62 1.465-1.624-.415-1.18-1.037.245-2.38.125-2.983-.267-.912-.593-.73-1.243 1.08-3.855 3.43-4.95 4.358-4.83 2.262.3-.617 1.508.143 1.523 3.665.073 1.066-.44 1.335-.158 1.335 1.394 0 1.07-.343 2.156-.763 2.415-1.16.717-.9 1.907.4 1.907 2.06 0-.9 4.47-3.894 5.903-2.387 1.138-2.61 1.502-2.167 3.522.272 1.24.945 3.315 1.495 4.613.894 2.108 1.053 2.198 1.494.835 2.242-6.935 4.658-12.086 6.892-14.695 3.305-3.86 3.478-7.21.643-12.42-2.933-5.39-1.104-10.137 5.45-14.15 5.642-3.455 6.997-5.1 8.65-10.437 3.55-11.49 3.658-23.23.3-32.274-1.26-3.392-1.663-3.775-4.95-4.704-5.437-1.536-8.737-.323-14.908 5.475-2.82 2.65-6.326 5.42-7.794 6.156-4.835 2.427-7.416 4.856-9.912 9.33-1.355 2.428-3.188 5.205-4.074 6.17-1.33 1.45-1.422 1.872-.535 2.42.923.57.92.852-.02 1.99-.742.9-.82 1.418-.245 1.613.52.176-.298 2.56-2.118 6.168-2.694 5.338-2.923 6.252-2.478 9.886.568 4.643-.3 5.177-2.836 1.745-1.977-2.674-5.868-4.697-7.975-4.146-1.24.324-1.655-.184-2.388-2.923-1.238-4.628-3.627-7.452-6.305-7.452-1.19 0-4.34-.682-7-1.516-7.108-2.228-7.507-2.137-7.49 1.706.01 1.783 1.044 6.16 2.3 9.724 1.81 5.13 2.263 7.633 2.18 12.003-.115 5.923 1.026 8.825 3.818 9.71 1.278.406 1.484 1.17 1.46 5.397l-.03 4.924-2.393.012c-1.316.006-3.122.206-4.012.445-2.466.662-3.568-3.2-3.72-13.04-.09-5.77-.803-11.692-2.29-18.968-1.794-8.788-1.997-10.838-1.2-12.115 1.058-1.695.123-2.823-2.36-2.846a8.5 8.5 0 0 1-2.479-.475c-1.722-.66-1.57 2.1.32 5.802 1.866 3.657 1.87 3.814.138 3.814-.763 0-2.134-.858-3.046-1.907-.952-1.095-2.48-1.907-3.59-1.907-1.33 0-2.145-.563-2.618-1.807-.85-2.235-4.334-5.058-6.243-5.058-1.714 0-1.866 1.733-.268 3.06.635.527 1.064 1.355.953 1.84s.886 1.898 2.214 3.14c1.806 1.69 2.538 3.17 2.907 5.88.647 4.756-.405 4.708-5.256-.238l-3.748-3.822-2.4 2.316c-3.044 2.95-4.575 3.056-3.875.265.283-1.128 1.2-3.012 2.036-4.188s1.712-3.308 1.944-4.74c.576-3.552-1.297-4.522-7.397-3.832l-4.56.516v2.995c0 2.4-.487 3.44-2.458 5.24-2.146 1.96-5.17 3.032-5.17 1.833 0-.226.686-1.757 1.525-3.402 2.394-4.693 2.107-5.618-1.588-5.122-3.817.512-4.095.765-3.03 2.754.985 1.84-.893 14.68-2.8 19.148-.813 1.904-1.103 5.074-1.01 11.06.153 10.028-1.166 14.578-4.005 13.817-.92-.247-2.752-.453-4.07-.46-2.507-.012-3.913-1.762-2.69-3.35.363-.47 1.742-3.493 3.064-6.715 1.705-4.156 2.404-7.1 2.404-10.097 0-3.148.716-5.96 2.783-10.922 2.51-6.03 3.632-12.345 2.408-13.57-.22-.222-4.223.493-8.892 1.588-9.465 2.22-11.553 3.747-11.553 8.452 0 2.287-.228 2.568-2.097 2.583-3 .023-8.304 2.617-9.356 4.584-.8 1.493-1.026 1.552-2.043.535-.884-.884-.955-1.498-.313-2.697 1.137-2.124-1.658-11.154-4.173-13.485-2.163-2.004-2.317-2.682-.61-2.682 1.013 0 1.066-.207.288-1.144-.76-.914-.754-1.38.023-2.316.812-.978.642-1.517-1.03-3.263-1.102-1.15-2.413-3.264-2.912-4.697-1.2-3.445-3.77-6.232-8.967-9.73-2.35-1.582-4.772-3.562-5.382-4.4-5.142-7.077-13.072-10.263-19.75-7.934-2.167.755-2.597 1.467-4.416 7.302-1.872 6.005-1.985 7.153-1.585 16.134.467 10.476 1.978 16.978 4.605 19.818.895.968 3.428 2.8 5.628 4.048 7.597 4.347 8.783 8.214 4.804 15.67-1.258 2.358-2.288 4.782-2.288 5.387s1.192 2.554 2.65 4.332c3.052 3.725 6.16 10.203 6.93 14.442.432 2.38.708 2.736 1.476 1.907 1.412-1.523 2.806-7.818 1.808-8.163-.444-.153-1.975-1.304-3.403-2.558-2.66-2.336-3.573-4.947-1.443-4.13 1.008.387 1 .15-.055-1.894-1.36-2.63-.92-4.888.815-4.185l2.404.97c1.296.522 1.267-.388-.118-3.752-.985-2.393.707-1.374 2.926 1.762 2.445 3.455 2.23 5.294-.62 5.294-2.238 0-2.45.597-.67 1.898 1.452 1.06.784 2.673-1.115 2.7-1.11.01-1.132.114-.146.75 2.64 1.706 3.584.8 6.87-6.674 3.545-8.05 4.5-12.745 3.09-15.358-.512-.957-3.58-2.905-7.227-4.6-7.938-3.667-9.04-5-3.693-4.496l3.84.37-2.013-1.684c-1.107-.926-3.82-2.793-6.03-4.148s-4.366-3.117-4.794-3.916c-.682-1.274-.504-1.453 1.445-1.453 1.223 0 4.14.878 6.483 1.95s5.56 2.13 7.147 2.35l2.887.398-2.434-2.158-6.292-5.462c-2.122-1.817-3.858-3.79-3.858-4.386 0-1.518.76-1.36 3.977.825 2.664 1.8 4.412 2.402 4.412 1.493 0-.228-1.373-2.232-3.05-4.455s-3.05-4.267-3.05-4.544c0-1.052 1.858-.43 4.314 1.443 3.06 2.334 3.307 1.233.538-2.4-1.107-1.452-1.85-2.804-1.648-3.004.62-.62 9 10.032 9 11.44 0 .744-1.4.423-2.424-.555-2-1.912-5.203-3.642-5.203-2.81 0 .46 1.974 2.916 4.386 5.457 4.78 5.034 4.2 5.367-3.003 1.755-4.642-2.324-3.968-.746 1.125 2.633 5.726 3.8 9.697 6.93 9.697 7.64 0 .723-3.975-.104-12.91-2.687-3.535-1.022-6.522-1.762-6.64-1.645s2.465 1.817 5.738 3.78 6.385 4.09 6.916 4.73c1.008 1.214 1.014 1.208-2.257 2.154-.69.2.312 1.022 2.533 2.077 2.022.96 4.236 2.6 4.92 3.64 1.148 1.752 1.146 2.26-.023 6.714-.695 2.65-3.68 11.045-6.635 18.655s-5.37 14.15-5.37 14.532.666.697 1.48.697c2.057 0 2.822 1.57 1.306 2.68-1.64 1.2-1.6 1.634.25 2.115 1.333.348 1.415.673.696 2.736-.63 1.808-1.402 2.45-3.39 2.824-4.05.76-4.536 1.85-3.47 7.805 1.25 7 1.802 7.788 4.043 5.77.966-.87 2.314-1.778 2.995-2.017.705-.247 1.457-1.69 1.747-3.355 1.163-6.678 1.32-6.808 8.295-6.905 3.75-.052 7.37-.558 9.022-1.262 9.943-4.232 28.758-.283 34.156 7.17 1.506 2.08 2.593 5.247 3.83 11.167 2.227 10.65 4.392 18.148 6.344 21.974.86 1.683 1.617 4.782 1.69 6.913.168 4.802 1.004 6.474 2.33 4.662.507-.693 1.484-1.26 2.172-1.26zm-5.63-32.987c-.01-.944-.834-4.033-1.833-6.864l-1.817-5.148h2.17c4.13 0 6.014 6.4 3.382 11.48-1.394 2.696-1.882 2.833-1.903.534zm32.518-.38c-1.36-6.856-1.375-7.865-.155-9.728.867-1.324 1.938-1.903 3.518-1.903 1.25 0 2.27.112 2.27.25s-.858 2.362-1.907 4.942-1.907 5.557-1.907 6.615c0 2.578-1.3 2.453-1.82-.176zm-44.855-14.72c-.71-.415-2.06-1.83-2.995-3.143-1.438-2.02-1.742-3.6-1.965-10.227-.162-4.82.037-8.023.52-8.32.43-.266.572-1.32.315-2.343-.903-3.596.956-1.805 3.412 3.288 2.3 4.767 2.465 5.628 2.245 11.63-.13 3.566.043 7.255.386 8.2.672 1.85.13 2.108-1.917.916zm57.81-7.864c.07-8.043.208-8.75 2.567-13.263 2.538-4.856 4.257-6.305 3.392-2.86-.307 1.22-.157 1.907.415 1.907.655 0 .775 2.154.45 8.055-.47 8.57-1.23 10.622-4.903 13.236l-1.997 1.42zm-33.878 5.423c.134-.944.587-1.716 1.006-1.716s.872.772 1.006 1.716c.168 1.18-.146 1.716-1.006 1.716s-1.174-.535-1.006-1.716zm-7.002-2.48c0-1.05.343-1.907.763-1.907s.763.858.763 1.907-.343 1.907-.763 1.907-.763-.858-.763-1.907zm-8.758-.572c.233-.944-.8-5.83-2.274-10.855s-2.69-10.003-2.68-11.06l.017-1.92 1.4 1.82c.77 1 3.02 5.12 5 9.153l3.602 7.333-1.56 3.623c-1.622 3.77-4.33 5.242-3.507 1.907zm32.402.19c0-.983.386-1.524.953-1.335.524.175.953.775.953 1.335s-.43 1.16-.953 1.335c-.567.19-.953-.352-.953-1.335zm7.307-2.04l-1.464-3.56 4.515-8.8c2.483-4.84 4.918-8.92 5.41-9.067.966-.286.66 1.083-3.098 13.83-1.096 3.717-1.993 7.75-1.993 8.962 0 3.345-1.72 2.65-3.37-1.363zm53.652-.19c-2.427-2.427-3.125-5.904-1.023-5.098.664.255 2.55.463 4.195.463 3.378 0 3.74.913 1.825 4.614-1.454 2.812-2.203 2.815-4.997.02zm-148.596-.935c-1.655-4.748-.896-6.227 2.205-4.29 1.18.737 1.693.737 2.43 0 1.662-1.662 3.038-1.097 2.777 1.14-.157 1.35-1.146 2.68-2.833 3.814-3.337 2.24-3.58 2.206-4.58-.66zm66.824 1.872c-.2-.338-.602-1.73-.894-3.093-.462-2.154-.33-2.48 1.01-2.48 1.84 0 2.157.434 2.508 3.418.194 1.648-.08 2.342-.996 2.52-.695.136-1.427-.03-1.626-.367zm17.153-.385c-1.32-1.32-1.126-3.234.48-4.687 2.808-2.54 4.205-1.05 2.925 3.12-.8 2.606-1.873 3.1-3.404 1.568zm-50.492-4.803c-1.05-.568-3.88-1.263-6.292-1.546-4.88-.57-5.458-1.26-2.196-2.61 3.513-1.455 7.714-.746 9.455 1.596 1.98 2.663 1.51 3.902-.968 2.56zm84.64-1.104c1.227-2.293 3.28-3.093 7.936-3.093 7.105 0 6.09 2.416-1.43 3.4-2.097.274-4.604.662-5.57.863-1.556.323-1.663.2-.936-1.168zm-53.622-1.313c-.715-.715-.635-3.305.102-3.305.95 0 2.44 1.723 2.44 2.822 0 1.04-1.67 1.356-2.542.483zm14.466-1.842c-.523-2.615.654-5.53 2.047-5.072 1.934.637 1.438 7.423-.543 7.423-.57 0-1.246-1.058-1.504-2.35zm7.907.865c0-1.622 1.912-2.96 2.866-2.004.625.625-.727 2.904-1.967 3.317-.5.167-.9-.414-.9-1.313zm-16.47-2.578c-2.37-2.038-2.195-4.8.403-6.415 1.297-.8 1.647-.73 2.292.476.42.782.988 2.838 1.264 4.57.6 3.76-.67 4.2-3.96 1.37zm82.82.24c-.643-1.2-.573-1.632.318-1.974 1.572-.603 2.74.263 2.74 2.03 0 1.94-2.008 1.903-3.057-.056zm-156.208-.56c.14-.734 1.023-1.444 1.963-1.578 1.878-.268 2.213.578.793 1.998-1.366 1.366-3.047 1.1-2.756-.42zm63.925-6.226c0-.44-1.33-1.477-2.957-2.306-3.847-1.962-4.408-3.498-1.884-5.152 1.875-1.23 2.028-1.22 3.026.144.958 1.3 1.052 1.164 1.052-1.63 0-1.688.226-3.295.502-3.57.938-.938 2.55 1.188 2.55 3.362 0 1.19.676 2.794 1.5 3.564 2.18 2.03 1.11 5.812-1.742 6.148-1.126.133-2.047-.118-2.047-.557zm27.528-1.718c-.672-1.927-.617-2.662.27-3.643.612-.676 1.557-2.566 2.102-4.2 1.174-3.525 3.334-4.83 2.725-1.645-.213 1.113-.105 2.2.24 2.412s.424.977.176 1.698c-.36 1.044-.214 1.006.712-.185 1.002-1.288 1.44-1.37 3.153-.588 2.5 1.14 2.5 2.03.036 3.764a104.53 104.53 0 0 0-4.114 3.086c-2.94 2.337-4.306 2.157-5.302-.698zm-7.242-7.3c-1.02-1.02-.358-4.63 1.088-5.938 2.278-2.06 3.466-.557 2.316 2.93-.845 2.562-2.44 3.972-3.403 3.01zm-11.134-6.59c0-1.012-.515-2.037-1.144-2.28-.718-.276-1.144-1.442-1.144-3.132 0-1.886-.343-2.693-1.144-2.693-.63 0-1.14-.6-1.132-1.335.02-2.424 1.196-3.364 3.882-3.107l2.6.247-.264 3.675c-.227 3.16-.05 3.73 1.27 4.076 1.603.42 2.96 3.886 1.896 4.845-.338.305-1.558.776-2.712 1.048-1.845.435-2.097.273-2.097-1.345zm-13.36-2.04c-.58-1.823.563-3.47 1.852-2.674 1.155.714 1.035 2.353-.25 3.42-.865.718-1.184.57-1.6-.746zm38.556-.31c-1.06-1.278-.448-2.703 1.16-2.703.664 0 1.1.755 1.1 1.907 0 2.142-.885 2.454-2.26.796zm-61.523-7.82c.677-4.938 1.663-5.694 3.963-3.04 2.328 2.687 2.315 3.107-.156 5.05-3.386 2.663-4.376 2.14-3.807-2.01zm40.7 3.092c-.2-.354-.107-1.368.228-2.253.467-1.235 1.517-1.73 4.512-2.127 4.478-.594 5.385-.27 4.86 1.74-.228.873-1.32 1.618-2.79 1.9a162.63 162.63 0 0 0-4.421.924c-1.104.252-2.18.17-2.39-.186zm42.724-1.113c-1.154-.86-2.097-1.912-2.097-2.337 0-1.078 3.015-5.202 3.802-5.202.56 0 2.3 6.373 2.3 8.427 0 1.178-1.757.79-4.004-.888zm-61.052-4.68c-.704-.524-1.492-2.037-1.752-3.362-.396-2.015-.18-2.56 1.324-3.333.99-.51 2.908-1.975 4.265-3.26s2.706-2.096 2.998-1.805c.468.468-.905 9.23-1.843 11.76-.195.524-1.11.953-2.033.953s-2.255-.43-2.96-.953zm36.846-1.907c-1.386-4.81-1.807-9.848-.87-10.427.494-.305 1.228.293 1.742 1.422.49 1.072 1.348 1.95 1.9 1.95s1.022.343 1.022.763.666.763 1.48.763c1.99 0 2.42.9 1.836 3.82-.368 1.838-1.124 2.717-3.023 3.51-3.335 1.394-3.153 1.474-4.097-1.802zm-68.263-.938c-.643-1.04.97-3.83 2.212-3.83.563 0 1.425.484 1.916 1.075.708.853.535 1.326-.84 2.288-2.008 1.407-2.65 1.498-3.29.466zm52.263-.728c-1.078-2.014-.997-7.165.13-8.292.718-.718 1.64-.214 4.195 2.294 3.726 3.657 3.967 4.614 1.58 6.286-2.314 1.62-4.953 1.492-5.905-.288zm48.718.25c-.865-1.043-.798-1.387.448-2.298 1.967-1.438 3.003-.97 3.294 1.486.19 1.593-.082 2.04-1.24 2.04-.815 0-1.94-.552-2.5-1.227zm-93.745-6.782c0-1.288.35-1.917.953-1.716.524.175.953.947.953 1.716s-.43 1.54-.953 1.716c-.604.2-.953-.428-.953-1.716zm88.475-.063c0-2.39 1.79-2.128 2.15.314.162 1.1-.158 1.656-.953 1.656-.78 0-1.197-.69-1.197-1.97zm-80.695-.47c-.503-.503-.915-1.884-.915-3.067 0-3.03 2.962-4.378 5.69-2.59 2.242 1.47 2.403 2.52.75 4.88-1.292 1.844-4.068 2.236-5.525.78zm24.254-1.31c0-1.626.37-2.352 1.195-2.352.847 0 1.124.594.953 2.04-.352 2.97-2.148 3.23-2.148.313zm45.425.53c-1.633-2.33-1.492-3.41.626-4.797 2.564-1.68 5.814-.2 5.814 2.648 0 3.906-4.222 5.315-6.44 2.15zm-43.747-6.085c-2.432-2.432.035-6.972 3.566-6.563 2.465.286 3.06 2.898 1.28 5.615-1.317 2-3.38 2.414-4.846.947zm-27.785 75.804c.166-.498-.242-.906-.906-.906a1.21 1.21 0 0 0-1.208 1.208c0 1.347 1.642 1.112 2.113-.302zm82.897-.1c.564-.913-.87-1.817-1.887-1.19-.853.527-.293 1.9.775 1.9.37 0 .87-.32 1.112-.7zm-157.81 54.93c.4-.383 4.713-1.584 9.588-2.67 10.095-2.247 19.958-2.523 30.035-.84l6.102 1.02-8.008-.505c-12.446-.784-18.734-.4-28.145 1.727-9.603 2.168-10.653 2.307-9.57 1.267z" fill="#3da7f2"/><path d="M592.358-195.534c2.997-2.284 5.28-4.43 5.07-4.767-.9-1.44-4.914-.46-8.406 2.044-7.52 5.394-17.343 11.833-18.055 11.833-1.218 0 4.518-4.25 14.045-10.41l9.004-5.82-1.122-2.17c-1.35-2.613-3.665-3.297-9.217-2.724-7.02.725-14.47 4.786-30.588 16.68-7.23 5.336-9.104 6.37-6.673 3.683 1.89-2.087 8.253-6.665 18.687-13.443 7.902-5.132 8.47-5.646 5.72-5.176-1.678.287-7.457 2.046-12.842 3.91s-9.976 3.204-10.2 2.98c-1.202-1.202 23.498-10.007 30.29-10.796 5.762-.67 9.153-1.8 9.153-3.048 0-1.71-1.704-4.935-2.6-4.92-2.1.034-12.086 2.468-17.604 4.295-6.674 2.2-21.893 9.384-32.994 15.55-3.88 2.156-7.055 3.73-7.055 3.5 0-.55 10.954-6.956 18.686-10.927 10.2-5.234 20.176-9.175 28.602-11.287 4.405-1.104 8.486-2.475 9.07-3.047 1.756-1.718-3.584-2.228-13.168-1.256-10.843 1.1-17.934 3.072-27.937 7.773-6.002 2.82-7.435 3.287-5.72 1.863 3.384-2.8 11.52-6.884 17.16-8.593 2.727-.826 8.56-1.735 12.966-2.02 9.84-.637 13.08-1.167 12.533-2.05-1.062-1.72-28.35-.4-39.8 1.91-2.622.53-4.767.835-4.767.675s1.275-.823 2.833-1.474c1.795-.75 8.15-1.566 17.352-2.227l18.658-1.552 4.14-.51-2.874-1.474c-1.58-.81-4.988-1.75-7.572-2.087-3.42-.446-3.933-.638-1.882-.71 1.548-.053 2.984-.37 3.2-.703s-2.574-2.65-6.177-5.148-7.7-5.523-9.105-6.722c-3.354-2.864-8.142-12.754-10.575-21.846-2.428-9.072-3.343-23.64-1.91-30.396 1.662-7.83-1.243-19.083-7.273-28.174-2.07-3.12-2.637-4.707-2.502-6.992.145-2.46-.294-3.474-2.62-6.05-2.883-3.19-3.185-3.917-4.314-10.38-.367-2.097-1.58-5.983-2.696-8.635-3.11-7.384-4.464-15.942-4.006-25.306.46-9.427 2.358-15.3 6.083-18.825 3.536-3.347 5.27-4.057 9.92-4.057 7.416 0 15.79 3.286 24.977 9.8 7.65 5.426 10.4 8.21 16.25 16.46 10.206 14.394 11.495 15.227 19.635 12.676 2.707-.848 6.294-1.546 7.972-1.55s7.987-.922 14.02-2.038c9.942-1.84 11.515-1.947 16.78-1.157 3.195.48 10.27 1.233 15.725 1.673 6.066.5 12.562 1.552 16.733 2.736 7.128 2.023 10.28 2.424 11.777 1.5.5-.303 3.008-3.7 5.595-7.55 7.767-11.555 19.12-21.984 29.943-27.51 6.447-3.29 12.027-4.54 18.448-4.132 4.228.27 5.148.62 7.448 2.85 4.352 4.218 5.942 9.023 6.37 19.247.45 10.75-1.18 21.15-4.38 27.9-1.18 2.494-2.396 6.044-2.703 7.9-.7 4.194-2.67 8.127-5.31 10.59-1.675 1.564-1.95 2.334-1.565 4.388.374 1.995.002 3.167-1.87 5.888-6.183 8.987-9.68 19.5-8.853 26.606 1.652 14.167 1.557 15.464-2.188 29.837-1.946 7.47-4.067 14.604-4.714 15.854-1.907 3.687-6.963 8.705-13.168 13.07-3.19 2.244-6.418 4.77-7.172 5.616-1.36 1.525-1.345 1.53 2.288.75 2.012-.432 10.007-.78 17.768-.772 12.24.012 15.307.272 23.143 1.965 4.968 1.073 9.23 2.148 9.47 2.39 1.485 1.485-1.9 1.166-11.456-1.08-12.552-2.95-17.492-3.114-35.192-1.173-10.402 1.14-14.908 2.302-16.04 4.132-.24.4 4.45.904 10.82 1.184 14.59.642 23.437 1.65 27.927 3.18 1.988.677 3.487 1.358 3.333 1.512s-3.69-.395-7.86-1.22c-9.053-1.794-26.37-2.675-32.748-1.667-4.16.658-4.29.732-1.435.816 4.35.13 15.558 2.118 22.395 3.975 7.715 2.095 17.083 6.635 21.938 10.63 4.934 4.06 4.747 4.928-.242 1.12-9.423-7.193-21.92-11.29-40.842-13.394-5.5-.61-8.54-.654-9.474-.13-1.243.696-1.162.877.854 1.903 1.225.624 5.414 1.86 9.308 2.75 11.43 2.607 23.665 8.154 37.54 17.017 7.432 4.748 6.154 4.75-1.826.003-7.69-4.574-22.86-11.68-29.446-13.79-2.727-.874-7.973-2.247-11.66-3.05l-6.702-1.46-1.2 1.83c-1.706 2.604-.92 3.787 3.213 4.827 16.94 4.266 43.302 14.18 44.998 16.925.64 1.034.484.975-5.006-1.91-7.858-4.13-28.23-10.615-29.467-9.38-.2.2 3.69 2.822 8.64 5.828 10.428 6.33 12.976 8.15 12.326 8.798-.258.258-5.572-2.886-11.81-6.986-12.305-8.087-16.842-10.094-22.906-10.133-3.474-.023-4.168.25-5.91 2.322-1.086 1.29-1.975 2.592-1.975 2.892s2.28 1.88 5.068 3.5c5.63 3.294 16.04 10.56 17.813 12.43 1.46 1.542-.423.385-13.16-8.087-8.99-5.98-9.877-6.403-11.697-5.574l-1.97.897 4.832 3.54c7.453 5.46 13.58 11.063 18.18 16.623 2.307 2.79 4.295 5.35 4.418 5.695s-4.682-4.24-10.678-10.186c-10.547-10.46-13.855-12.896-18.874-13.9l-2.374-.475.5 3.192c.503 3.15.483 3.185-1.49 2.7-1.706-.428-2.12-.183-2.822 1.675-2.99 7.915-16.34 12.845-29.664 10.955-9.213-1.307-15.5-4.883-17.632-10.03-.7-1.714-1.26-2.11-2.424-1.74-1.383.44-1.462.225-.976-2.65.516-3.054.477-3.127-1.636-3.11-4.447.034-8.543 2.927-20.137 14.218-24.306 23.43 2.16-4.773 11.286-11.902zm47.37 11.812c5.476-1.446 8.98-3.96 10.844-7.78.85-1.744 2.3-3.67 3.22-4.28 2.73-1.812.635-3.31-5.364-3.84-2.83-.25-8.027-1.304-11.547-2.34l-6.4-1.886-8.854 2.275c-11.752 3.02-16.1 4.45-16.1 5.3 0 .386.257.704.572.707s1.41 1.3 2.437 2.86c4.232 6.48 6.51 8.06 14.052 9.764 5.11 1.153 10.82.896 17.14-.774zm-24.667-19.146c7.632-1.41 13.583-4.255 13.196-6.306-.133-.702-3.5-3.72-7.48-6.706s-8.012-6.555-8.956-7.93c-1.883-2.744-2.212-6.08-.82-8.308.73-1.167.406-2.97-1.727-9.654-1.442-4.52-3.06-8.366-3.596-8.544s-2.177.95-3.648 2.51-2.876 2.633-3.123 2.386.326-2.86 1.274-5.808c2.153-6.696 1.55-8.572-4.125-12.815-3.156-2.36-4.887-3.08-8.224-3.426-2.325-.24-5.648-1.16-7.385-2.048-3.822-1.95-7.714-7.058-7.714-10.124 0-2.716-1.327-5.387-2.36-4.75-.417.258-1.625-.1-2.685-.794-1.758-1.152-2.087-1.157-3.753-.066-1.005.658-2.31 1.197-2.904 1.197-1.78 0-2.792 1.87-3.653 6.754l-.816 4.635-4.31 1.567c-7.536 2.74-7.048 2.13-5.33 6.684l1.5 4.005 2.89-.462c2.28-.365 4.157.1 8.908 2.155 8.482 3.687 20.478 11.23 19.468 12.24-.55.55-1.855.387-4.244-.525-1.898-.725-4.132-1.102-4.964-.838s-2.213.106-3.068-.35c-1.348-.722-1.554-.606-1.554.873 0 1.326-.204 1.5-.915.8-1.458-1.458-2.896-1.064-2.922.8-.023 1.688-.053 1.683-1.83-.335-1.795-2.038-1.81-2.04-2.275-.38-.37 1.32.29 2.357 3.165 4.955 5.873 5.31 12.24 9.205 17.8 10.895 2.86.868 5.602 2.066 6.096 2.66 1.098 1.323 3.14 1.4 4.373.167.712-.712 1.12-.712 1.83 0 .503.503 1.536.915 2.296.915s1.968.686 2.686 1.525 2.068 1.525 2.998 1.525c2.036 0 3.04 1.336 1.876 2.5-.463.463-3.288 1.103-6.278 1.422s-5.61.753-5.82.964-.17 1.226.088 2.257c.493 1.965.47 1.96 12.667 2.94 2.765.223 3.654 1.58 2.357 3.597-.593.923-.9.933-1.944.065-1.074-.89-1.3-.808-1.673.62-.317 1.21-1.017 1.65-2.63 1.65-1.406 0-2.2.396-2.2 1.1 0 1.555 1.23 2.123 2.83 1.305 2.468-1.263 8.217-2.34 8.484-1.59.342.96 3.178.915 3.178-.05 0-1.035 2.07-.97 2.722.085.646 1.044-1.066 2.205-2.462 1.67-.562-.216-1.023-.04-1.023.393s-1.2 1.182-2.67 1.666c-3.158 1.042-3.6 2.587-.572 2.007l8.962-1.67zm-7.246-9.49c0-.42.515-.763 1.144-.763s1.144.343 1.144.763-.515.763-1.144.763-1.144-.343-1.144-.763zm-2.6-8.077c-.56-1.457.127-2.8 1.118-2.187.907.56.932 3.4.03 3.4-.375 0-.89-.546-1.147-1.213zm-19.783-7.685c-1.1-1.1-.4-1.78 1.756-1.78 1.7 0 2.155.285 1.825 1.144-.447 1.165-2.66 1.558-3.58.636zm-5.847-24.578c0-.444-1.05-1.35-2.336-2.014-1.47-.76-2.244-1.687-2.1-2.498.31-1.623 2.88-2.043 4.582-.747 1.568 1.195 2.134 5.264.797 5.733-.524.184-.953-.03-.953-.472zm-8.77-6.737c-3.847-.946-4.76-4.024-1.194-4.024 3.525 0 6.15 1.295 6.15 3.032 0 1.572-1.432 1.86-4.958.992zm12.203-1.492c-7.592-1.7-12.585-5.15-12.585-8.692 0-2.006.406-1.88 4.065 1.272 1.75 1.506 5.042 3.48 7.318 4.386 5.53 2.202 6.314 4.18 1.2 3.035zm-20.912-7.39c-1.79-2.894-2.106-7.195-.575-7.783.557-.214 1.93-.04 3.05.386 1.667.634 2.038 1.255 2.038 3.414 0 3.074-1.17 6.552-2.207 6.552-.396 0-1.434-1.156-2.307-2.57zm93.432 65.973c-.225-.365-1.447-1.093-2.715-1.618-2.823-1.17-2.89-1.784-.32-2.955 2.082-.95 6.826-.477 8.492.845 1.24.984 3.25.176 3.25-1.305 0-.79-.742-1.168-2.288-1.168-1.538 0-2.288-.38-2.288-1.16 0-.855-.5-1.033-1.907-.68-1.725.433-1.907.255-1.907-1.875 0-2.214.17-2.352 2.86-2.34 1.573.01 4.882-.257 7.353-.6 3.696-.497 4.606-.914 5.135-2.35.738-2.008.9-1.932-6.487-3.066-2.887-.444-5.586-1.143-5.997-1.554-1.098-1.098.014-2.406 2.046-2.406.973 0 2.196-.515 2.718-1.144s1.724-1.144 2.67-1.144 2.233-.772 2.86-1.715c.987-1.487 1.838-1.725 6.385-1.792 6.83-.1 11.4-2.186 20.976-9.572 6.81-5.253 7.22-5.72 5.675-6.448-1.272-.6-1.923-.5-2.758.384-.978 1.047-1.12 1.024-1.36-.21-.18-.936-.735-1.258-1.72-1-.8.21-1.648.07-1.884-.313-.25-.402-1.083-.343-1.99.142-1.013.542-1.822.575-2.304.093s-1.665-.46-3.37.063c-1.98.608-2.856.572-3.56-.147-1.344-1.372 2.147-3.978 8.184-6.11 2.656-.938 5.577-2.5 6.5-3.473 2.1-2.234 7.524-3.782 11.422-3.26 2.82.378 3.073.246 4.24-2.217 1.997-4.208 1.34-5.63-3.432-7.448-5.884-2.24-5.82-2.17-6.874-7.75-.644-3.41-1.347-5.144-2.186-5.387-.68-.197-2.2-.852-3.378-1.454-3.288-1.68-7.9-.034-8.96 3.206-2.195 6.652-8.663 11.957-15.707 12.882-3.08.404-4.797 1.23-7.965 3.83-6.61 5.423-7.402 8.41-4.102 15.5 1.054 2.263 1.702 4.323 1.442 4.576s-1.773-.997-3.36-2.78-3.242-3.242-3.675-3.242c-1.46 0-3.83 4.916-5.464 11.33-1.453 5.704-1.5 6.464-.445 7.246.966.717 1.034 1.39.376 3.755-1.073 3.856-3.9 6.92-12.133 13.158-4.047 3.065-6.89 5.77-6.89 6.55 0 1.48 3.874 2.816 15.132 5.216 7.5 1.598 10.31 1.858 9.717.897zm-8.07-4.676c0-.42.515-.763 1.144-.763s1.144.343 1.144.763-.515.763-1.144.763-1.144-.343-1.144-.763zm2.43-5.387a2.39 2.39 0 0 1 1.335-1.335c.572-.19.858.095.667.667a2.39 2.39 0 0 1-1.335 1.335c-.572.19-.858-.095-.667-.667zm2.908-9.04c0-.937.492-1.59 1.2-1.59s1.1.52.953 1.272c-.37 1.913-2.153 2.176-2.153.317zm27.458-25.233c0-.42.323-.763.718-.763s.93.343 1.19.763-.064.763-.718.763-1.19-.343-1.19-.763zm-1.525-6.433c0-3.893 3.46-6.884 5.757-4.977 1.64 1.362 1.407 1.857-1.927 4.063-3.505 2.32-3.83 2.397-3.83.914zm6.102-6.405c0-2.046 1.407-2.985 4.94-3.294 2.366-.208 3.088.017 3.288 1.017.3 1.5-1.376 2.507-5.366 3.227-2.492.45-2.86.328-2.86-.95zm-11.43-.65c.026-1.37 1.276-2.355 4.183-3.295 1.678-.542 5.05-2.34 7.495-3.992s4.63-2.82 4.86-2.592.192 1.3-.08 2.38c-.6 2.388-3.994 4.564-9.605 6.155l-5.53 1.58c-.734.214-1.33.11-1.323-.234zm21.326-6.772c-1.35-3.547-.655-7.4 1.526-8.482 1.72-.853 2.014-.74 3.286 1.27 1.258 1.986 1.286 2.42.286 4.353-.61 1.18-1.823 2.792-2.695 3.58-1.564 1.415-1.595 1.406-2.403-.72zm-64.766 49.29c.38.602.698 1.695.704 2.43.014 1.764.87 1.683 3.532-.333l2.444-1.833c.134-.09-.166-.82-.666-1.62-1.43-2.3.828-5.826 5.013-7.852 1.92-.93 3.36-2.08 3.204-2.557-.6-1.83-5.68-2.796-9.762-1.854-2.947.68-4.88.676-8.234-.017-5.86-1.2-8.14-1.14-9.575.293-1.756 1.756-1.493 2.472 1.343 3.656 3.805 1.6 6.06 4.834 5.487 7.89-.416 2.22-.193 2.657 2.044 4.02l2.512 1.528.63-2.423c.482-1.852.794-2.165 1.323-1.33zm-8.437-2.536c0-1.506-2.72-4.2-3.478-3.443-.342.342 2.54 5.166 3.086 5.166.216 0 .393-.776.393-1.723zm20.316-3.384c-.842-.842-3.535 1.486-3.513 3.037.023 1.617.107 1.595 1.946-.496 1.057-1.202 1.762-2.345 1.567-2.54zm-58.802-3.994c-.276-.447-.868-.813-1.314-.813-.506 0-.448.438.154 1.163 1.046 1.26 1.98.98 1.16-.35zm95.515-.67c.186-.557-.163-.728-.906-.443-.664.255-1.208.8-1.208 1.208 0 1.002 1.733.375 2.114-.765zm-59.805-13.11c.894 0 1.25-.684 1.25-2.396v-2.396l3.116 3.54c2.9 3.294 3.372 3.54 6.805 3.54 3.488 0 3.885-.22 7.27-4.004 3.574-3.998 3.58-4 3.13-1.525-.377 2.073-.217 2.48.974 2.48.784 0 1.622.515 1.864 1.144.816 2.125 1.802 1.163 2.265-2.21.253-1.844 1.8-6.735 3.44-10.87s3.553-10.433 4.253-14c1.62-8.253 3.956-15.428 5.78-17.745.783-.996 3.936-2.97 7.007-4.385 5.034-2.32 6.413-2.605 14.037-2.898 7.412-.284 8.91-.123 12.137 1.304 2.07.916 4.335 1.42 5.174 1.155.82-.26 2.306-.038 3.302.495 1.42.76 2.24.772 3.808.058 2.724-1.24 3.644-.308 5.215 5.293.783 2.8 1.8 4.784 2.576 5.055.706.246 1.837 1.134 2.513 1.973 1.635 2.026 2.6 1.274 3.634-2.833 1.748-6.943.232-11.7-3.437-10.778-1.48.372-1.977.08-2.583-1.514-1.06-2.787-.964-3.166.923-3.66 1.584-.414 1.604-.514.38-1.865-1.817-2.008-1.606-3.214.562-3.214 2.32 0 2.45.474-5.198-18.948-3.195-8.114-5.808-15.846-5.808-17.182 0-3.353 1.714-5.49 6.345-7.916 3.7-1.937 3.817-2.085 1.854-2.325-1.154-.14-2.097-.546-2.097-.9 0-1.175 4.493-4.448 9.105-6.634 2.5-1.185 4.565-2.373 4.586-2.64s-3.65.513-8.16 1.732l-9.997 2.686c-3.6.938-.224-2.748 6.575-7.18 6.834-4.455 7.433-6.46.86-2.883-5.883 3.202-6.17 1.857-.7-3.27 2.715-2.544 4.737-4.826 4.492-5.07s-2.21.743-4.365 2.194-3.92 2.278-3.92 1.84c0-1.05 4.665-7.367 7.176-9.717 2.687-2.514 2.49-1.308-.376 2.31-2.747 3.468-2.275 3.74 1.7.987 4.53-3.14 4.924-1.857 1.044 3.413-1.952 2.65-3.424 4.945-3.27 5.097s1.807-.738 3.676-1.978c3.344-2.218 5.306-2.835 5.306-1.67 0 .943-3.965 4.865-8.242 8.153-6.173 4.746-3.154 5.306 6.335 1.174 3.91-1.703 7.246-2.492 7.246-1.715 0 1.616-2.846 4.26-7.66 7.12-2.918 1.734-5.306 3.38-5.306 3.657s1.45.367 3.224.198c2.768-.264 3.093-.15 2.294.813-.512.616-3.72 2.622-7.13 4.457-9.194 4.948-9.132 4.72-4.454 16.447l4.27 10.387c.198.32 1.022.228 1.83-.206 1.23-.658 1.32-1.028.56-2.248-.75-1.2-.65-1.748.56-3.085 1.466-1.62 1.465-1.624-.415-1.18-1.037.245-2.38.125-2.983-.267-.912-.593-.73-1.243 1.08-3.855 3.43-4.95 4.358-4.83 2.262.3-.617 1.508.143 1.523 3.665.073 1.066-.44 1.335-.158 1.335 1.394 0 1.07-.343 2.156-.763 2.415-1.16.717-.9 1.907.4 1.907 2.06 0-.9 4.47-3.894 5.903-2.387 1.138-2.61 1.502-2.167 3.522.272 1.24.945 3.315 1.495 4.613.894 2.108 1.053 2.198 1.494.835 2.242-6.935 4.658-12.086 6.892-14.695 3.305-3.86 3.478-7.21.643-12.42-2.933-5.39-1.104-10.137 5.45-14.15 5.642-3.455 6.997-5.1 8.65-10.437 3.55-11.49 3.658-23.23.3-32.274-1.26-3.392-1.663-3.775-4.95-4.704-5.437-1.536-8.737-.323-14.908 5.475-2.82 2.65-6.326 5.42-7.794 6.156-4.835 2.427-7.416 4.856-9.912 9.33-1.355 2.428-3.188 5.205-4.074 6.17-1.33 1.45-1.422 1.872-.535 2.42.923.57.92.852-.02 1.99-.742.9-.82 1.418-.245 1.613.52.176-.298 2.56-2.118 6.168-2.694 5.338-2.923 6.252-2.478 9.886.568 4.643-.3 5.177-2.836 1.745-1.977-2.674-5.868-4.697-7.975-4.146-1.24.324-1.655-.184-2.388-2.923-1.238-4.628-3.627-7.452-6.305-7.452-1.19 0-4.34-.682-7-1.516-7.108-2.228-7.507-2.137-7.49 1.706.01 1.783 1.044 6.16 2.3 9.724 1.81 5.13 2.263 7.633 2.18 12.003-.115 5.923 1.026 8.825 3.818 9.71 1.278.406 1.484 1.17 1.46 5.397l-.03 4.924-2.393.012c-1.316.006-3.122.206-4.012.445-2.466.662-3.568-3.2-3.72-13.04-.09-5.77-.803-11.692-2.29-18.968-1.794-8.788-1.997-10.838-1.2-12.115 1.058-1.695.123-2.823-2.36-2.846a8.5 8.5 0 0 1-2.479-.475c-1.722-.66-1.57 2.1.32 5.802 1.866 3.657 1.87 3.814.138 3.814-.763 0-2.134-.858-3.046-1.907-.952-1.095-2.48-1.907-3.59-1.907-1.33 0-2.145-.563-2.618-1.807-.85-2.235-4.334-5.058-6.243-5.058-1.714 0-1.866 1.733-.268 3.06.635.527 1.064 1.355.953 1.84s.886 1.898 2.214 3.14c1.806 1.69 2.538 3.17 2.907 5.88.647 4.756-.405 4.708-5.256-.238l-3.748-3.822-2.4 2.316c-3.044 2.95-4.575 3.056-3.875.265.283-1.128 1.2-3.012 2.036-4.188s1.712-3.308 1.944-4.74c.576-3.552-1.297-4.522-7.397-3.832l-4.56.516v2.995c0 2.4-.487 3.44-2.458 5.24-2.146 1.96-5.17 3.032-5.17 1.833 0-.226.686-1.757 1.525-3.402 2.394-4.693 2.107-5.618-1.588-5.122-3.817.512-4.095.765-3.03 2.754.985 1.84-.893 14.68-2.8 19.148-.813 1.904-1.103 5.074-1.01 11.06.153 10.028-1.166 14.578-4.005 13.817-.92-.247-2.752-.453-4.07-.46-2.507-.012-3.913-1.762-2.69-3.35.363-.47 1.742-3.493 3.064-6.715 1.705-4.156 2.404-7.1 2.404-10.097 0-3.148.716-5.96 2.783-10.922 2.51-6.03 3.632-12.345 2.408-13.57-.22-.222-4.223.493-8.892 1.588-9.465 2.22-11.553 3.747-11.553 8.452 0 2.287-.228 2.568-2.097 2.583-3 .023-8.304 2.617-9.356 4.584-.8 1.493-1.026 1.552-2.043.535-.884-.884-.955-1.498-.313-2.697 1.137-2.124-1.658-11.154-4.173-13.485-2.163-2.004-2.317-2.682-.61-2.682 1.013 0 1.066-.207.288-1.144-.76-.914-.754-1.38.023-2.316.812-.978.642-1.517-1.03-3.263-1.102-1.15-2.413-3.264-2.912-4.697-1.2-3.445-3.77-6.232-8.967-9.73-2.35-1.582-4.772-3.562-5.382-4.4-5.142-7.077-13.072-10.263-19.75-7.934-2.167.755-2.597 1.467-4.416 7.302-1.872 6.005-1.985 7.153-1.585 16.134.467 10.476 1.978 16.978 4.605 19.818.895.968 3.428 2.8 5.628 4.048 7.597 4.347 8.783 8.214 4.804 15.67-1.258 2.358-2.288 4.782-2.288 5.387s1.192 2.554 2.65 4.332c3.052 3.725 6.16 10.203 6.93 14.442.432 2.38.708 2.736 1.476 1.907 1.412-1.523 2.806-7.818 1.808-8.163-.444-.153-1.975-1.304-3.403-2.558-2.66-2.336-3.573-4.947-1.443-4.13 1.008.387 1 .15-.055-1.894-1.36-2.63-.92-4.888.815-4.185l2.404.97c1.296.522 1.267-.388-.118-3.752-.985-2.393.707-1.374 2.926 1.762 2.445 3.455 2.23 5.294-.62 5.294-2.238 0-2.45.597-.67 1.898 1.452 1.06.784 2.673-1.115 2.7-1.11.01-1.132.114-.146.75 2.64 1.706 3.584.8 6.87-6.674 3.545-8.05 4.5-12.745 3.09-15.358-.512-.957-3.58-2.905-7.227-4.6-7.938-3.667-9.04-5-3.693-4.496l3.84.37-2.013-1.684c-1.107-.926-3.82-2.793-6.03-4.148s-4.366-3.117-4.794-3.916c-.682-1.274-.504-1.453 1.445-1.453 1.223 0 4.14.878 6.483 1.95s5.56 2.13 7.147 2.35l2.887.398-2.434-2.158-6.292-5.462c-2.122-1.817-3.858-3.79-3.858-4.386 0-1.518.76-1.36 3.977.825 2.664 1.8 4.412 2.402 4.412 1.493 0-.228-1.373-2.232-3.05-4.455s-3.05-4.267-3.05-4.544c0-1.052 1.858-.43 4.314 1.443 3.06 2.334 3.307 1.233.538-2.4-1.107-1.452-1.85-2.804-1.648-3.004.62-.62 9 10.032 9 11.44 0 .744-1.4.423-2.424-.555-2-1.912-5.203-3.642-5.203-2.81 0 .46 1.974 2.916 4.386 5.457 4.78 5.034 4.2 5.367-3.003 1.755-4.642-2.324-3.968-.746 1.125 2.633 5.726 3.8 9.697 6.93 9.697 7.64 0 .723-3.975-.104-12.91-2.687-3.535-1.022-6.522-1.762-6.64-1.645s2.465 1.817 5.738 3.78 6.385 4.09 6.916 4.73c1.008 1.214 1.014 1.208-2.257 2.154-.69.2.312 1.022 2.533 2.077 2.022.96 4.236 2.6 4.92 3.64 1.148 1.752 1.146 2.26-.023 6.714-.695 2.65-3.68 11.045-6.635 18.655s-5.37 14.15-5.37 14.532.666.697 1.48.697c2.057 0 2.822 1.57 1.306 2.68-1.64 1.2-1.6 1.634.25 2.115 1.333.348 1.415.673.696 2.736-.63 1.808-1.402 2.45-3.39 2.824-4.05.76-4.536 1.85-3.47 7.805 1.25 7 1.802 7.788 4.043 5.77.966-.87 2.314-1.778 2.995-2.017.705-.247 1.457-1.69 1.747-3.355 1.163-6.678 1.32-6.808 8.295-6.905 3.75-.052 7.37-.558 9.022-1.262 9.943-4.232 28.758-.283 34.156 7.17 1.506 2.08 2.593 5.247 3.83 11.167 2.227 10.65 4.392 18.148 6.344 21.974.86 1.683 1.617 4.782 1.69 6.913.168 4.802 1.004 6.474 2.33 4.662.507-.693 1.484-1.26 2.172-1.26zm-5.63-32.987c-.01-.944-.834-4.033-1.833-6.864l-1.817-5.148h2.17c4.13 0 6.014 6.4 3.382 11.48-1.394 2.696-1.882 2.833-1.903.534zm32.518-.38c-1.36-6.856-1.375-7.865-.155-9.728.867-1.324 1.938-1.903 3.518-1.903 1.25 0 2.27.112 2.27.25s-.858 2.362-1.907 4.942-1.907 5.557-1.907 6.615c0 2.578-1.3 2.453-1.82-.176zm-44.855-14.72c-.71-.415-2.06-1.83-2.995-3.143-1.438-2.02-1.742-3.6-1.965-10.227-.162-4.82.037-8.023.52-8.32.43-.266.572-1.32.315-2.343-.903-3.596.956-1.805 3.412 3.288 2.3 4.767 2.465 5.628 2.245 11.63-.13 3.566.043 7.255.386 8.2.672 1.85.13 2.108-1.917.916zm57.81-7.864c.07-8.043.208-8.75 2.567-13.263 2.538-4.856 4.257-6.305 3.392-2.86-.307 1.22-.157 1.907.415 1.907.655 0 .775 2.154.45 8.055-.47 8.57-1.23 10.622-4.903 13.236l-1.997 1.42zm-33.878 5.423c.134-.944.587-1.716 1.006-1.716s.872.772 1.006 1.716c.168 1.18-.146 1.716-1.006 1.716s-1.174-.535-1.006-1.716zm-7.002-2.48c0-1.05.343-1.907.763-1.907s.763.858.763 1.907-.343 1.907-.763 1.907-.763-.858-.763-1.907zm-8.758-.572c.233-.944-.8-5.83-2.274-10.855s-2.69-10.003-2.68-11.06l.017-1.92 1.4 1.82c.77 1 3.02 5.12 5 9.153l3.602 7.333-1.56 3.623c-1.622 3.77-4.33 5.242-3.507 1.907zm32.402.19c0-.983.386-1.524.953-1.335.524.175.953.775.953 1.335s-.43 1.16-.953 1.335c-.567.19-.953-.352-.953-1.335zm7.307-2.04l-1.464-3.56 4.515-8.8c2.483-4.84 4.918-8.92 5.41-9.067.966-.286.66 1.083-3.098 13.83-1.096 3.717-1.993 7.75-1.993 8.962 0 3.345-1.72 2.65-3.37-1.363zm53.652-.19c-2.427-2.427-3.125-5.904-1.023-5.098.664.255 2.55.463 4.195.463 3.378 0 3.74.913 1.825 4.614-1.454 2.812-2.203 2.815-4.997.02zm-148.596-.935c-1.655-4.748-.896-6.227 2.205-4.29 1.18.737 1.693.737 2.43 0 1.662-1.662 3.038-1.097 2.777 1.14-.157 1.35-1.146 2.68-2.833 3.814-3.337 2.24-3.58 2.206-4.58-.66zm66.824 1.872c-.2-.338-.602-1.73-.894-3.093-.462-2.154-.33-2.48 1.01-2.48 1.84 0 2.157.434 2.508 3.418.194 1.648-.08 2.342-.996 2.52-.695.136-1.427-.03-1.626-.367zm17.153-.385c-1.32-1.32-1.126-3.234.48-4.687 2.808-2.54 4.205-1.05 2.925 3.12-.8 2.606-1.873 3.1-3.404 1.568zm-50.492-4.803c-1.05-.568-3.88-1.263-6.292-1.546-4.88-.57-5.458-1.26-2.196-2.61 3.513-1.455 7.714-.746 9.455 1.596 1.98 2.663 1.51 3.902-.968 2.56zm84.64-1.104c1.227-2.293 3.28-3.093 7.936-3.093 7.105 0 6.09 2.416-1.43 3.4-2.097.274-4.604.662-5.57.863-1.556.323-1.663.2-.936-1.168zm-53.622-1.313c-.715-.715-.635-3.305.102-3.305.95 0 2.44 1.723 2.44 2.822 0 1.04-1.67 1.356-2.542.483zm14.466-1.842c-.523-2.615.654-5.53 2.047-5.072 1.934.637 1.438 7.423-.543 7.423-.57 0-1.246-1.058-1.504-2.35zm7.907.865c0-1.622 1.912-2.96 2.866-2.004.625.625-.727 2.904-1.967 3.317-.5.167-.9-.414-.9-1.313zm-16.47-2.578c-2.37-2.038-2.195-4.8.403-6.415 1.297-.8 1.647-.73 2.292.476.42.782.988 2.838 1.264 4.57.6 3.76-.67 4.2-3.96 1.37zm82.82.24c-.643-1.2-.573-1.632.318-1.974 1.572-.603 2.74.263 2.74 2.03 0 1.94-2.008 1.903-3.057-.056zm-156.208-.56c.14-.734 1.023-1.444 1.963-1.578 1.878-.268 2.213.578.793 1.998-1.366 1.366-3.047 1.1-2.756-.42zm63.925-6.226c0-.44-1.33-1.477-2.957-2.306-3.847-1.962-4.408-3.498-1.884-5.152 1.875-1.23 2.028-1.22 3.026.144.958 1.3 1.052 1.164 1.052-1.63 0-1.688.226-3.295.502-3.57.938-.938 2.55 1.188 2.55 3.362 0 1.19.676 2.794 1.5 3.564 2.18 2.03 1.11 5.812-1.742 6.148-1.126.133-2.047-.118-2.047-.557zm27.528-1.718c-.672-1.927-.617-2.662.27-3.643.612-.676 1.557-2.566 2.102-4.2 1.174-3.525 3.334-4.83 2.725-1.645-.213 1.113-.105 2.2.24 2.412s.424.977.176 1.698c-.36 1.044-.214 1.006.712-.185 1.002-1.288 1.44-1.37 3.153-.588 2.5 1.14 2.5 2.03.036 3.764a104.53 104.53 0 0 0-4.114 3.086c-2.94 2.337-4.306 2.157-5.302-.698zm-7.242-7.3c-1.02-1.02-.358-4.63 1.088-5.938 2.278-2.06 3.466-.557 2.316 2.93-.845 2.562-2.44 3.972-3.403 3.01zm-11.134-6.59c0-1.012-.515-2.037-1.144-2.28-.718-.276-1.144-1.442-1.144-3.132 0-1.886-.343-2.693-1.144-2.693-.63 0-1.14-.6-1.132-1.335.02-2.424 1.196-3.364 3.882-3.107l2.6.247-.264 3.675c-.227 3.16-.05 3.73 1.27 4.076 1.603.42 2.96 3.886 1.896 4.845-.338.305-1.558.776-2.712 1.048-1.845.435-2.097.273-2.097-1.345zm-13.36-2.04c-.58-1.823.563-3.47 1.852-2.674 1.155.714 1.035 2.353-.25 3.42-.865.718-1.184.57-1.6-.746zm38.556-.31c-1.06-1.278-.448-2.703 1.16-2.703.664 0 1.1.755 1.1 1.907 0 2.142-.885 2.454-2.26.796zm-61.523-7.82c.677-4.938 1.663-5.694 3.963-3.04 2.328 2.687 2.315 3.107-.156 5.05-3.386 2.663-4.376 2.14-3.807-2.01zm40.7 3.092c-.2-.354-.107-1.368.228-2.253.467-1.235 1.517-1.73 4.512-2.127 4.478-.594 5.385-.27 4.86 1.74-.228.873-1.32 1.618-2.79 1.9a162.63 162.63 0 0 0-4.421.924c-1.104.252-2.18.17-2.39-.186zm42.724-1.113c-1.154-.86-2.097-1.912-2.097-2.337 0-1.078 3.015-5.202 3.802-5.202.56 0 2.3 6.373 2.3 8.427 0 1.178-1.757.79-4.004-.888zm-61.052-4.68c-.704-.524-1.492-2.037-1.752-3.362-.396-2.015-.18-2.56 1.324-3.333.99-.51 2.908-1.975 4.265-3.26s2.706-2.096 2.998-1.805c.468.468-.905 9.23-1.843 11.76-.195.524-1.11.953-2.033.953s-2.255-.43-2.96-.953zm36.846-1.907c-1.386-4.81-1.807-9.848-.87-10.427.494-.305 1.228.293 1.742 1.422.49 1.072 1.348 1.95 1.9 1.95s1.022.343 1.022.763.666.763 1.48.763c1.99 0 2.42.9 1.836 3.82-.368 1.838-1.124 2.717-3.023 3.51-3.335 1.394-3.153 1.474-4.097-1.802zm-68.263-.938c-.643-1.04.97-3.83 2.212-3.83.563 0 1.425.484 1.916 1.075.708.853.535 1.326-.84 2.288-2.008 1.407-2.65 1.498-3.29.466zm52.263-.728c-1.078-2.014-.997-7.165.13-8.292.718-.718 1.64-.214 4.195 2.294 3.726 3.657 3.967 4.614 1.58 6.286-2.314 1.62-4.953 1.492-5.905-.288zm48.718.25c-.865-1.043-.798-1.387.448-2.298 1.967-1.438 3.003-.97 3.294 1.486.19 1.593-.082 2.04-1.24 2.04-.815 0-1.94-.552-2.5-1.227zm-93.745-6.782c0-1.288.35-1.917.953-1.716.524.175.953.947.953 1.716s-.43 1.54-.953 1.716c-.604.2-.953-.428-.953-1.716zm88.475-.063c0-2.39 1.79-2.128 2.15.314.162 1.1-.158 1.656-.953 1.656-.78 0-1.197-.69-1.197-1.97zm-80.695-.47c-.503-.503-.915-1.884-.915-3.067 0-3.03 2.962-4.378 5.69-2.59 2.242 1.47 2.403 2.52.75 4.88-1.292 1.844-4.068 2.236-5.525.78zm24.254-1.31c0-1.626.37-2.352 1.195-2.352.847 0 1.124.594.953 2.04-.352 2.97-2.148 3.23-2.148.313zm45.425.53c-1.633-2.33-1.492-3.41.626-4.797 2.564-1.68 5.814-.2 5.814 2.648 0 3.906-4.222 5.315-6.44 2.15zm-43.747-6.085c-2.432-2.432.035-6.972 3.566-6.563 2.465.286 3.06 2.898 1.28 5.615-1.317 2-3.38 2.414-4.846.947zm-20.905 85.816c2.755-2.05 2.925-4.09.642-7.706-2.498-3.957-4.7-4.573-5.736-1.603-.615 1.764-1.222 2.205-3.034 2.205-3.598 0-4.608-.72-5.462-3.892-.695-2.58-1.09-2.972-2.997-2.972-3.54 0-4.61.735-4.61 3.163 0 4.654 3.977 9.84 9.263 12.08 2.83 1.198 9.578.478 11.934-1.274zm76.843.615c3.807-1.73 6.922-5.326 7.964-9.197 1.162-4.314.464-5.386-3.5-5.386-3.04 0-3.35.172-3.35 1.85 0 1.092-.825 2.5-2 3.432-3.472 2.73-7.143 1.702-7.143-2.004 0-1.002-.462-1.754-1.076-1.754-1.217 0-4.528 3.7-6.182 6.9-.986 1.906-.963 2.296.22 3.7 3.314 3.94 9.584 4.966 15.08 2.47zm-83.723-10.627c.166-.498-.242-.906-.906-.906a1.21 1.21 0 0 0-1.208 1.208c0 1.347 1.642 1.112 2.113-.302zm82.897-.1c.564-.913-.87-1.817-1.887-1.19-.853.527-.293 1.9.775 1.9.37 0 .87-.32 1.112-.7zm-157.81 54.93c.4-.383 4.713-1.584 9.588-2.67 10.095-2.247 19.958-2.523 30.035-.84l6.102 1.02-8.008-.505c-12.446-.784-18.734-.4-28.145 1.727-9.603 2.168-10.653 2.307-9.57 1.267z"/><g transform="matrix(.861757 0 0 .861757 198.48572 -67.0282)"><use xlink:href="#B" class="B"/><path d="M972.99-433.508v73.864l59.09-29.545v-73.864z" class="D"/><path d="M972.99-433.508v73.864L913.9-389.2v-73.864z" fill="#ccc"/><use xlink:href="#C" fill="none" class="C E"/><g transform="matrix(.071286 -.034094 0 .071286 986.57626 -423.69973)" fill="#999"><use xlink:href="#D"/><use xlink:href="#E"/><use xlink:href="#F"/><use xlink:href="#G"/><use xlink:href="#H"/></g></g><g transform="matrix(.861757 0 0 .861757 198.48572 63.908821)"><use xlink:href="#B" class="B"/><path d="M972.99-433.508v73.864l59.09-29.545v-73.864z" class="D"/><path d="M972.99-433.508v73.864L913.9-389.2v-73.864z" fill="#ccc"/><use xlink:href="#C" fill="none" class="C E"/><g transform="matrix(.071286 -.034094 0 .071286 986.57626 -423.69973)" fill="#999"><use xlink:href="#D"/><use xlink:href="#E"/><use xlink:href="#F"/><use xlink:href="#G"/><use xlink:href="#H"/></g></g><g transform="matrix(.861757 0 0 .861757 198.48572 195.3902)"><use xlink:href="#B" class="B"/><path d="M972.99-433.508v73.864l59.09-29.545v-73.864z" class="D"/><path d="M972.99-433.508v73.864L913.9-389.2v-73.864z" fill="#ccc"/><use xlink:href="#C" fill="none" class="C E"/><g transform="matrix(.071286 -.034094 0 .071286 986.57626 -423.69973)" fill="#999"><use xlink:href="#D"/><use xlink:href="#E"/><use xlink:href="#F"/><use xlink:href="#G"/><use xlink:href="#H"/></g></g><circle r="83.388" cy="-303" cx="194.225" fill="#3498db"/><g class="B C"><path d="M193.89-368.088c-35.906.184-64.89 29.393-64.8 65.3s29.226 64.966 65.133 64.966 65.04-29.06 65.133-64.966-28.892-65.115-64.8-65.3z" stroke-width="8.684"/><path d="M194.225-368.088v130.266m65.133-65.133H129.092m14.697-40.082c30.178 21.53 70.695 21.53 100.873 0m0 80.164c-30.178-21.53-70.695-21.53-100.873 0m45.426-103.545c-18.787 15.866-29.626 39.206-29.626 63.797s10.84 47.93 29.626 63.797m10.02 0c18.787-15.866 29.626-39.206 29.626-63.797s-10.84-47.93-29.626-63.797" stroke-width="6.012"/></g></g><defs ><path id="B" d="M972.99-492.6l-59.09 29.545 59.09 29.545 59.09-29.545z"/><path id="C" d="M972.99-492.56l-59.09 29.545v73.864l59.09 29.545 59.09-29.545v-73.864z"/><path id="D" d="M253.468 432.168l-39.574 22.848-20.87-36.145c-12.175 1.417-24.782 2.165-37.727 2.165-64.156 0-120.118-18.188-155.296-46.8v44.413c0 11.226 5.375 33.128 41.372 53.7 30.115 17.208 70.574 26.685 113.923 26.685s83.81-9.477 113.923-26.685c9.503-5.43 16.852-10.95 22.552-16.345-13.75-6.17-26.64-14.153-38.303-23.825z"/><path id="E" d="M194.923 330.887c-1.397-8.286-2.134-16.7-2.272-25.194-12.06 1.388-24.542 2.124-37.355 2.124-64.156 0-120.118-18.188-155.296-46.8l.001 40.65c0 11.227 5.375 33.128 41.372 53.7 30.115 17.208 70.574 26.685 113.923 26.685a292.27 292.27 0 0 0 16.206-.448L155.4 353.705l33.772-19.497z"/><path id="F" d="M174.898 218.384l14.146-24.5a321.52 321.52 0 0 1-33.748 1.756c-65.712 0-122.42-19.42-155.296-49.384l.001 42.186c0 11.225 5.375 33.128 41.372 53.7 30.115 17.208 70.574 26.685 113.923 26.685a288.87 288.87 0 0 0 26.803-1.258l-26.7-15.414z"/><path id="G" d="M263.315 37.314c-28.533-15.693-66.896-24.336-108.02-24.336S75.81 21.62 47.275 37.314C22.786 50.782 8.74 68.096 8.74 84.8s14.046 34.028 38.534 47.496c28.533 15.693 66.896 24.336 108.02 24.336s79.486-8.642 108.02-24.336c24.5-13.47 38.534-30.782 38.534-47.496s-14.045-34.028-38.534-47.496z"/><path id="H" d="M489.08 302.93c0-16.482-3.117-32.25-8.787-46.746l31.708-18.305-19.497-33.77-31.762 18.336c-19.756-24.6-48.343-41.82-80.91-46.788v-36.6H340.84v36.6c-32.567 4.97-61.153 22.19-80.91 46.788l-31.762-18.336-19.497 33.77 31.708 18.305c-5.668 14.498-8.787 30.265-8.787 46.746s3.117 32.248 8.787 46.745L208.67 367.98l19.497 33.77 31.76-18.336c19.758 24.6 48.344 41.82 80.912 46.787v36.6h38.994v-36.6c32.568-4.968 61.153-22.186 80.91-46.785l31.76 18.335L512 367.98l-31.706-18.305c5.668-14.497 8.787-30.263 8.787-46.745zm-128.745 52.376c-28.882 0-52.377-23.495-52.377-52.376s23.495-52.377 52.377-52.377 52.376 23.495 52.376 52.377-23.497 52.376-52.376 52.376z"/></defs></svg>