<svg xmlns="http://www.w3.org/2000/svg" width="1200" height="1200" viewBox="0 0 317.5 317.5"><defs><linearGradient id="A" x1="158.4" y1="134.622" x2="158.4" y2="208.052" gradientUnits="userSpaceOnUse"><stop offset="0" stop-color="#37b1d9"/><stop offset="1" stop-color="#22a0c8"/></linearGradient></defs><g transform="translate(317.499 20.492)"><path d="M-317.5-20.492H.001v317.5h-317.5z" fill="#fff"/><g transform="translate(-317.5)"><path d="M317.5 134.493c-3.36 2.914-9.255 4.842-15.923 4.842-6.535 0-12.483-1.898-15.897-4.723-.03.025-.06.05-.09.075l.048-.186c-2.59 2.247-6.69 3.903-11.488 4.546a34.63 34.63 0 0 1-4.446.287c-6.52 0-12.402-1.92-15.82-4.734l.022-.083c-1.208 1.048-2.75 1.966-4.53 2.715l-.3.126c-.117.047-.24.09-.358.137-3.104 1.17-6.876 1.84-10.913 1.84a33.56 33.56 0 0 1-3.137-.149l-.315-.03-.394-.047c-.414-.05-.823-.107-1.228-.172l-.3-.047-.534-.095-.785-.158-.316-.07-.9-.214c-.342-.1-.666-.182-.985-.278l-.102-.03c-2.032-.62-3.848-1.434-5.345-2.395-.502-.322-.97-.66-1.395-1.014-.03-.002-.048-.014-.064-.028l.022-.083c-1.294 1.122-2.965 2.097-4.91 2.872-3.16 1.237-7.036 1.946-11.19 1.946a33.73 33.73 0 0 1-2.443-.09c-5.47-.435-10.28-2.204-13.23-4.647l.008-.044c-1.12.97-2.524 1.828-4.14 2.545l-.67.283c-3.166 1.25-7.07 1.968-11.253 1.968a33.55 33.55 0 0 1-3.137-.149l-.315-.03-.394-.047c-3.752-.448-7.135-1.523-9.736-3.002-.024-.014-.05-.027-.074-.04-.104-.06-.2-.123-.302-.184-.41-.25-.8-.507-1.166-.778l.004.017c-.24-.173-.468-.35-.687-.53l.008-.044c-1.1.962-2.497 1.815-4.097 2.528-3.284 1.434-7.46 2.27-11.967 2.27a32.5 32.5 0 0 1-6.187-.586l-.643-.132c-.007-.001-.014-.003-.02-.004-3.6-.8-6.704-2.218-8.838-3.975l.022-.083c-1.208 1.048-2.75 1.966-4.53 2.715l-.3.126c-.117.047-.24.09-.358.137-3.104 1.17-6.876 1.84-10.913 1.84a33.53 33.53 0 0 1-3.137-.149l-.315-.03-.394-.047c-.414-.05-.823-.107-1.228-.172l-.3-.047-.534-.095-.785-.158-.316-.07-.9-.214c-.344-.1-.668-.182-.987-.278-.034-.01-.068-.02-.102-.03-2.032-.62-3.848-1.434-5.345-2.395-.502-.322-.97-.66-1.395-1.014-.03-.002-.048-.015-.064-.028l.02-.083c-1.294 1.122-2.965 2.097-4.91 2.872-3.16 1.237-7.037 1.946-11.192 1.946a33.73 33.73 0 0 1-2.443-.09c-5.47-.435-10.28-2.204-13.23-4.647a12.71 12.71 0 0 1-.665.534c-.19.143-.393.28-.596.42-.046.03-.09.064-.135.094-.176.115-.36.226-.546.337l-.24.147c-.165.095-.338.185-.51.276l-.323.174a19.81 19.81 0 0 1-.663.318l-.208.1a21.69 21.69 0 0 1-.919.387c-3.166 1.25-7.07 1.968-11.253 1.968-1.07 0-2.115-.053-3.137-.15l-.315-.03-.394-.047c-3.752-.448-7.135-1.523-9.736-3.002-.024-.014-.05-.026-.074-.04-.104-.06-.2-.123-.302-.184a15.75 15.75 0 0 1-1.166-.778l.004.017c-.24-.173-.468-.35-.687-.53-3.387 2.914-9.362 4.753-16.056 4.753-6.16 0-11.656-1.66-15.124-4.23V297.01l317.5-.434z" fill="url(#A)"/><g transform="matrix(.075074 0 0 .075074 42.728013 50.521001)" fill="#ff5722"><circle cx="54.674" cy="256" r="53.333"/><circle cx="406.61" cy="458.667" r="53.333"/><circle cx="406.61" cy="53.333" r="53.333"/><path d="M262.098 147.67c2.383 4.13 7.216 6.176 11.84 5.013 55.924-14.4 113.1 18.592 128.597 74.22 1.298 4.593 5.5 7.764 10.26 7.765h87.168a10.67 10.67 0 0 0 10.673-10.661 10.76 10.76 0 0 0-.134-1.691 212.78 212.78 0 0 0-48.512-104.98 10.67 10.67 0 0 0-13.995-1.877A74.27 74.27 0 0 1 406.673 128c-40.78-.145-73.96-32.87-74.667-73.643a10.67 10.67 0 0 0-9.536-10.453c-33.448-3.504-67.25.925-98.667 12.928a10.67 10.67 0 0 0-6.143 13.778 10.66 10.66 0 0 0 .724 1.518zm237.888 129.663h-87.168c-4.772.001-8.963 3.173-10.26 7.765-15.5 55.642-72.67 88.643-128.597 74.22-4.624-1.163-9.457.884-11.84 5.013l-43.605 75.54a10.67 10.67 0 0 0 3.9 14.572 10.66 10.66 0 0 0 1.518.724c31.384 12.127 65.217 16.56 98.667 12.928a10.67 10.67 0 0 0 9.536-10.453c.472-41.14 34.205-74.1 75.345-73.637a74.49 74.49 0 0 1 40.516 12.538 10.67 10.67 0 0 0 14.016-1.941 212.78 212.78 0 0 0 48.512-104.917 10.67 10.67 0 0 0-8.847-12.218c-.56-.1-1.126-.134-1.692-.134zM223.548 330.26c-40.254-41.333-40.254-107.2 0-148.544a10.67 10.67 0 0 0 1.579-12.8l-43.54-75.37a10.67 10.67 0 0 0-7.317-5.163 11.13 11.13 0 0 0-8.66 2.133 213.5 213.5 0 0 0-67.243 96.32 10.67 10.67 0 0 0 3.307 11.712c31.735 25.306 36.947 71.546 11.64 103.28a73.49 73.49 0 0 1-11.641 11.641 10.67 10.67 0 0 0-3.307 11.712 213.51 213.51 0 0 0 67.221 96.235 10.73 10.73 0 0 0 6.74 2.4 11.65 11.65 0 0 0 1.92-.17c3.078-.564 5.754-2.452 7.317-5.163l43.54-75.413a10.68 10.68 0 0 0-1.557-12.798z"/></g><path d="M40.705 102.888a3.02 3.02 0 0 0-1.874-.648c-1.663 0-3.016 1.34-3.058 3.013a4.58 4.58 0 0 0-2.939 4.288c0 2.32 1.704 4.235 3.916 4.537v.042l15.666-.007c2.184-.13 3.916-1.96 3.916-4.2 0-2.16-1.6-3.942-3.684-4.18l.012-.398c0-3.35-2.795-6.064-6.242-6.064-2.55 0-4.745 1.487-5.714 3.62M257.38 63.923a5.51 5.51 0 0 0-3.419-1.183c-3.033 0-5.502 2.447-5.58 5.496-3.132 1.187-5.36 4.243-5.36 7.823 0 4.23 3.1 7.726 7.143 8.276v.076l28.578-.013c3.985-.235 7.143-3.575 7.143-7.662 0-3.943-2.94-7.2-6.72-7.626a15.98 15.98 0 0 0 .022-.727c0-6.1-5.098-11.06-11.386-11.06-4.654 0-8.656 2.713-10.423 6.602" fill="#9bdcfd"/><g transform="matrix(.264583 0 0 .264583 -4.47381 218.425)" fill-rule="evenodd"><path d="M658.347-420.465h48.794v49.88h24.67c11.395 0 23.112-2.03 33.9-5.685 5.303-1.8 11.252-4.3 16.482-7.447-6.888-8.992-10.405-20.347-11.438-31.54-1.408-15.225 1.664-35.04 11.967-46.956l5.13-5.932 6.11 4.914c15.387 12.362 28.33 29.638 30.61 49.33 18.53-5.45 40.284-4.16 56.614 5.264l6.7 3.867-3.525 6.884c-13.813 26.955-42.69 35.307-70.922 33.83-42.245 105.22-134.217 155.033-245.732 155.033-57.615 0-110.47-21.537-140.572-72.653l-.493-.832-4.385-8.924c-10.174-22.5-13.554-47.148-11.263-71.778l.69-7.377h41.726v-49.88h48.79v-48.794h97.59v-48.794h58.554v97.587" fill="#364548"/><path d="M816.43-402.01c3.27-25.427-15.757-45.398-27.557-54.882-13.6 15.722-15.712 56.928 5.623 74.276-11.907 10.576-36.995 20.16-62.685 20.16H419.1c-2.497 26.817 2.21 51.512 12.963 72.648l3.557 6.508a120.64 120.64 0 0 0 7.373 11.062c12.857.826 24.7 1.1 35.555.87h.004c21.31-.47 38.7-2.987 51.88-7.554a3.76 3.76 0 0 1 4.667 2.357 3.76 3.76 0 0 1-2.207 4.74c-1.754.6-3.58 1.178-5.467 1.718h-.008c-10.377 2.964-21.505 4.957-35.862 5.843.854.016-.888.128-.892.128-.49.032-1.103.102-1.594.128-5.65.318-11.75.384-17.984.384-6.82 0-13.535-.128-21.044-.512l-.192.128c26.055 29.285 66.795 46.85 117.863 46.85 108.077 0 199.75-47.9 240.344-155.47 28.8 2.955 56.478-4.39 69.068-28.968-20.054-11.572-45.844-7.883-60.694-.418" fill="#22a0c8"/><path d="M816.43-402.01c3.27-25.427-15.757-45.398-27.557-54.882-13.6 15.722-15.712 56.928 5.623 74.276-11.907 10.576-36.995 20.16-62.685 20.16H437.617c-1.276 41.07 13.964 72.243 40.928 91.09h.006c21.31-.47 38.7-2.987 51.88-7.554a3.76 3.76 0 0 1 4.667 2.357 3.76 3.76 0 0 1-2.207 4.74c-1.754.6-3.58 1.178-5.467 1.718h-.008c-10.377 2.964-22.46 5.213-36.818 6.1-.004 0-.348-.33-.352-.33 36.782 18.868 90.114 18.8 151.26-4.688 68.562-26.34 132.363-76.52 176.878-133.917a53.55 53.55 0 0 0-1.957.93" fill="#37b1d9"/><path d="M461.543-412.333h42.29v42.29h-42.29zm3.523 3.525h3.337v35.24h-3.337zm6.274 0h3.472v35.24h-3.47v-35.24zm6.406 0h3.472v35.24h-3.472zm6.4 0h3.47v35.24h-3.47zm6.408 0h3.47v35.24h-3.47zm6.406 0h3.34v35.24h-3.34zm13.367-52.32h42.292v42.287h-42.294v-42.287zm3.525 3.525h3.335v35.24h-3.335zm6.274 0h3.47v35.24h-3.468v-35.24zm6.406 0h3.47v35.24h-3.47zm6.408 0h3.47v35.24h-3.47zm6.408 0h3.472v35.24h-3.472zm6.406 0h3.342v35.24h-3.342z" fill="#23a3c2"/><path d="M510.336-412.333h42.292v42.29h-42.294v-42.29zm3.525 3.525h3.335v35.24h-3.335zm6.274 0h3.47v35.24h-3.468v-35.24zm6.406 0h3.47v35.24h-3.47zm6.408 0h3.47v35.24h-3.47zm6.408 0h3.472v35.24h-3.472zm6.406 0h3.342v35.24h-3.342z" fill="#34bbde"/><path d="M559.132-412.333h42.29v42.29h-42.29zm3.523 3.525H566v35.24h-3.335zm6.274 0h3.47v35.24h-3.47zm6.408 0h3.47v35.24h-3.47zm6.408 0h3.47v35.24h-3.47zm6.406 0h3.474v35.24h-3.474zm6.408 0h3.337v35.24h-3.337z" fill="#23a3c2"/><path d="M559.132-461.126h42.29v42.287h-42.29zm3.523 3.525H566v35.24h-3.335zm6.274 0h3.47v35.24h-3.47zm6.408 0h3.47v35.24h-3.47zm6.408 0h3.47v35.24h-3.47zm6.406 0h3.474v35.24h-3.474zm6.408 0h3.337v35.24h-3.337zm13.367 45.268h42.29v42.29h-42.29zm3.525 3.525h3.335v35.24h-3.335zm6.274 0h3.47v35.24h-3.47zm6.406 0h3.47v35.24h-3.47zm6.408 0H634v35.24h-3.472zm6.408 0h3.472v35.24h-3.472zm6.408 0h3.337v35.24h-3.337z" fill="#34bbde"/><path d="M607.925-461.126h42.29v42.287h-42.29zm3.525 3.525h3.335v35.24h-3.335zm6.274 0h3.47v35.24h-3.47zm6.406 0h3.47v35.24h-3.47zm6.408 0H634v35.24h-3.472zm6.408 0h3.472v35.24h-3.472zm6.408 0h3.337v35.24h-3.337z" fill="#23a3c2"/><path d="M607.925-509.922h42.29v42.294h-42.29zm3.525 3.523h3.335v35.243h-3.335V-506.4zm6.274 0h3.47v35.243h-3.47V-506.4zm6.406 0h3.47v35.243h-3.47V-506.4zm6.408 0H634v35.243h-3.472V-506.4zm6.408 0h3.472v35.243h-3.472V-506.4zm6.408 0h3.337v35.243h-3.337V-506.4z" fill="#34bbde"/><path d="M656.72-412.333h42.29v42.29h-42.29zm3.52 3.525h3.34v35.24h-3.337v-35.24zm6.274 0h3.472v35.24h-3.47v-35.24zm6.4 0h3.472v35.24h-3.472zm6.406 0h3.472v35.24h-3.472zm6.4 0h3.47v35.24h-3.47zm6.406 0h3.337v35.24h-3.337z" fill="#23a3c2"/><path d="M549.98-301.48a11.67 11.67 0 0 1 10.233 17.548 11.67 11.67 0 0 1-21.746-5.883 11.67 11.67 0 0 1 11.512-11.665" fill="#d3ecec"/><path d="M549.98-298.17a8.32 8.32 0 0 1 3.024.565c-3.01 1.747-1.777 6.35 1.703 6.36 1.29 0 2.41-.715 2.992-1.773 3.168 7.632-5.482 14.737-12.353 10.15s-3.63-15.3 4.635-15.302" fill="#364548"/><path d="M580.99-217.408c-28.893-13.7-44.75-32.35-53.573-52.694-10.733 3.062-23.633 5.02-38.623 5.862-5.646.316-11.587.478-17.818.478-7.187 0-14.76-.213-22.71-.634 26.497 26.482 59.092 46.87 119.447 47.24a351.46 351.46 0 0 0 13.279-.252" fill="#bdd9d7"/><path d="M538.15-251.328c-3.997-5.426-7.874-12.246-10.725-18.778-10.733 3.066-23.637 5.025-38.63 5.868 10.298 5.59 25.024 10.768 49.357 12.9" fill="#d3ecec"/><path d="M426.133-146.52v-34.95c0-4.593 2.87-8.282 7.626-8.282h1.316c4.753 0 7.61 3.693 7.61 8.282v73.582c0 17.943-8.865 32.22-24.313 41.316-7.077 4.193-15.154 6.396-23.38 6.376H391.7c-17.947 0-32.206-8.87-41.316-24.31a45.53 45.53 0 0 1-6.374-23.384v-3.28c0-17.95 8.87-32.22 24.304-41.33 7.075-4.2 15.157-6.405 23.386-6.376h3.283c12.146 0 22.45 4.708 31.14 12.355zM360.57-109.53c0 12.962 6.282 22.707 17.64 28.923 4.593 2.512 9.578 3.862 14.818 3.862 12.723 0 22.16-6.002 28.668-16.783 3.027-5.016 4.437-10.503 4.437-16.337 0-11.236-5.32-20.004-14.374-26.517-5.5-3.947-11.67-5.928-18.41-5.928-13.867 0-23.847 7.006-29.837 19.45-2.02 4.208-2.944 8.675-2.944 13.33zm139.538-49.344h2.294c19.178 0 33.763 9.303 43.006 26.043 3.695 6.697 5.673 14.006 5.673 21.664v3.28c0 17.943-8.848 32.24-24.32 41.318-7.162 4.202-15.074 6.374-23.375 6.374h-3.28c-17.947 0-32.2-8.87-41.316-24.31-4.2-7.075-6.405-15.156-6.38-23.384v-3.28c0-17.952 8.905-32.174 24.302-41.327 7.158-4.253 15.076-6.38 23.394-6.38zm-31.144 49.344c0 12.582 6.173 21.837 16.8 28.346 5 3.055 10.486 4.44 16.315 4.44 12.432 0 21.62-6.304 28.017-16.796 3.05-5.003 4.43-10.5 4.43-16.324 0-11.7-5.635-20.637-15.27-27.113-5.278-3.552-11.155-5.332-17.512-5.332-13.867 0-23.847 7.006-29.835 19.45-2.025 4.208-2.948 8.675-2.948 13.33zM619.89-140.99c-2.5-1.17-7.177-1.56-9.877-1.662-13.83-.52-23.834 7.267-29.704 19.466-2.027 4.208-2.952 8.662-2.952 13.318 0 14.177 7.444 24.104 20.098 30.155 4.622 2.21 10.59 2.627 15.643 2.627 4.443 0 10.723-2.72 14.666-4.595l.684-.325h3.06l.338.068c3.764.784 6.605 3.17 6.605 7.22v1.638c0 10.078-18.417 12.385-25.445 12.876-24.8 1.715-43.348-11.904-50.418-35.56-1.228-4.108-1.782-8.188-1.782-12.468v-3.275c0-17.95 8.907-32.167 24.302-41.312 7.158-4.25 15.074-6.387 23.4-6.387h3.28c8.822 0 16.948 2.506 24.232 7.48l.598.414.378.624c.786 1.303 1.463 2.81 1.463 4.362v1.638c0 4.225-3.16 6.498-6.976 7.233l-.316.055h-.978c-2.47 0-8.085-2.557-10.3-3.595zm53.688 11.208l19.406-19.195c1.818-1.767 8.702-9.243 11.413-9.243h2.965l.338.07c3.777.784 6.605 3.174 6.605 7.233v1.636c0 2.768-3.243 5.985-5.03 7.88-3.802 4.03-7.805 7.93-11.697 11.877l-19.998 20.3 25.753 25.962 7.05 7.254c.822.865 2.036 1.942 2.726 3.14.74 1.124 1.196 2.4 1.196 3.742v1.71l-.096.395c-.93 3.777-3.326 6.823-7.5 6.823h-1.318c-2.738 0-5.832-3.097-7.707-4.868-3.866-3.644-7.598-7.476-11.387-11.2L673.58-88.74V-68.8c0 4.593-2.875 8.284-7.624 8.284h-1.303c-4.755 0-7.626-3.69-7.626-8.284v-112.35c0-4.593 2.873-8.267 7.626-8.267h1.303c4.75 0 7.624 3.674 7.624 8.267zm206.297-28.438h1.645c4.964 0 8.277 3.345 8.277 8.282 0 6.853-6.55 8.606-12.218 8.606-7.434 0-14.532 4.5-19.656 9.548-6.39 6.3-9.185 14.367-9.185 23.236v40.07c0 4.593-2.87 8.28-7.626 8.28h-1.307c-4.757 0-7.624-3.685-7.624-8.28v-42.37c0-16.27 7.92-29.553 21.126-38.868 7.884-5.564 16.916-8.502 26.57-8.502zm-117.643 79.41c6.024 2.104 12.89 1.803 19.07.726 3.16-1.344 11.244-4.87 14.218-4.353l.464.08.427.21c1.816.88 3.548 2.125 4.475 3.973 2.166 4.33 1.126 8.683-3.13 11.142l-1.416.818c-15.7 9.06-32.4 7.805-48.05-.658-7.483-4.046-13.207-10.05-17.43-17.37l-.987-1.71c-10.08-17.456-8.72-35.818 2.65-52.417 3.924-5.738 9.053-10.17 15.05-13.637l2.27-1.31c14.786-8.536 30.634-7.95 45.82-.46 8.166 4.03 14.782 10.033 19.34 17.93l.82 1.423c3.31 5.738-.978 10.736-5.406 14.154-5.14 3.965-10.328 8.737-15.254 12.987l-32.926 28.474zm-14.216-9.984l49.75-42.8c-3.332-4.2-8.9-7.226-13.628-9.03-9.548-3.638-18.962-2.416-27.718 2.638-11.46 6.618-16.34 17.155-15.914 30.268.17 5.165 1.56 10.142 4.3 14.536.966 1.55 2.044 3.003 3.21 4.4z" opacity=".85" fill="#fff"/></g></g></g></svg>