<svg xmlns="http://www.w3.org/2000/svg" width="4535.433" height="4535.433" viewBox="0 0 1200 1200"><path d="M0 0h1200v1200H0z" fill="#f9f9f9"/><g transform="matrix(1.982379 0 0 1.982379 275.02402 215.46172)"><g transform="matrix(.499994 0 0 .499994 -94.341781 129.97821)"><circle cx="129.757" cy="126.243" r="126.243" fill="#5c2d91"/><g fill="#fff"><path d="M42.255 35.506a126.243 126.243 0 1 0 178.239 178.239z" opacity=".1"/><path d="M32.708 146.955a5.326 5.326 0 0 1-3.945-1.657 5.444 5.444 0 0 1-1.617-3.945 5.523 5.523 0 0 1 1.617-3.945 5.286 5.286 0 0 1 3.945-1.696 5.405 5.405 0 0 1 3.945 1.696 5.484 5.484 0 0 1 1.657 3.945 5.405 5.405 0 0 1-1.657 3.945 5.444 5.444 0 0 1-3.945 1.657zm78.4-.987H100.76l-36.965-57.36a23.671 23.671 0 0 1-2.288-4.497h-.316a73.852 73.852 0 0 1 .395 9.863v51.996h-8.403V74.05H64.1l35.98 56.336q2.25 3.5 2.92 4.813h.197a76.061 76.061 0 0 1-.513-10.573V74.05h8.403zm56.888 0h-38.228V74.05H166.2v7.614h-27.852v23.907h25.96v7.575h-25.96v24.933h29.667zm56.455-64.305h-20.9v64.305h-8.403V81.663h-20.672V74.05h49.984z"/></g><path d="M106.56 194.888a19.449 19.449 0 0 1-9.153 1.933 14.755 14.755 0 0 1-11.322-4.537 16.806 16.806 0 0 1-4.261-11.835 17.595 17.595 0 0 1 4.774-12.861 16.254 16.254 0 0 1 12.151-4.892 19.449 19.449 0 0 1 7.89 1.381v3.945a15.78 15.78 0 0 0-7.89-1.973 12.072 12.072 0 0 0-9.271 3.945 14.36 14.36 0 0 0-3.551 10.178 13.689 13.689 0 0 0 3.314 9.665 11.283 11.283 0 0 0 8.719 3.59 16.333 16.333 0 0 0 8.64-2.209zm16.135 1.932a10.967 10.967 0 0 1-8.403-3.511 12.269 12.269 0 0 1-3.117-8.798 12.782 12.782 0 0 1 3.274-9.31 11.835 11.835 0 0 1 8.798-3.353 10.612 10.612 0 0 1 8.245 3.274 12.94 12.94 0 0 1 2.959 9.034 12.703 12.703 0 0 1-3.196 9.074 11.204 11.204 0 0 1-8.561 3.59zm.276-21.58a7.22 7.22 0 0 0-5.76 2.485 10.218 10.218 0 0 0-2.13 6.864 9.665 9.665 0 0 0 2.13 6.628 7.298 7.298 0 0 0 5.76 2.446 6.943 6.943 0 0 0 5.641-2.367 10.336 10.336 0 0 0 1.973-6.786 10.494 10.494 0 0 0-1.973-6.825 6.904 6.904 0 0 0-5.641-2.446zm29.904 1.185a4.655 4.655 0 0 0-2.88-.75 4.852 4.852 0 0 0-3.945 2.288 10.573 10.573 0 0 0-1.617 6.233v12.072h-3.945v-23.67h3.945v4.93a8.285 8.285 0 0 1 2.485-3.945 5.641 5.641 0 0 1 3.708-1.381 6.194 6.194 0 0 1 2.249.316zm23.12 8.995h-16.688a8.837 8.837 0 0 0 2.012 6.075 7.338 7.338 0 0 0 5.602 2.13 11.835 11.835 0 0 0 7.338-2.643v3.55a13.729 13.729 0 0 1-8.245 2.249 10.021 10.021 0 0 1-7.89-3.235 13.216 13.216 0 0 1-2.88-9.074 12.94 12.94 0 0 1 3.117-8.995 10.06 10.06 0 0 1 7.89-3.472 8.916 8.916 0 0 1 7.18 2.998 12.545 12.545 0 0 1 2.525 8.364zm-3.945-3.196a7.89 7.89 0 0 0-1.578-5.089 5.405 5.405 0 0 0-4.34-1.815 6.115 6.115 0 0 0-4.537 1.933 8.719 8.719 0 0 0-2.328 5.01z" fill="#f2f2f2"/></g><g transform="matrix(.25 0 0 .25 107.54529 129.97821)" fill="#ff5722"><circle cx="54.674" cy="256" r="53.333"/><circle cx="406.61" cy="458.667" r="53.333"/><circle cx="406.61" cy="53.333" r="53.333"/><path d="M262.098 147.67c2.383 4.13 7.216 6.176 11.84 5.013 55.924-14.4 113.1 18.592 128.597 74.22 1.298 4.593 5.5 7.764 10.26 7.765h87.168a10.67 10.67 0 0 0 10.673-10.661 10.76 10.76 0 0 0-.134-1.691 212.78 212.78 0 0 0-48.512-104.98 10.67 10.67 0 0 0-13.995-1.877A74.27 74.27 0 0 1 406.673 128c-40.78-.145-73.96-32.87-74.667-73.643a10.67 10.67 0 0 0-9.536-10.453c-33.448-3.504-67.25.925-98.667 12.928a10.67 10.67 0 0 0-6.143 13.778 10.66 10.66 0 0 0 .724 1.518zm237.888 129.663h-87.168c-4.772.001-8.963 3.173-10.26 7.765-15.5 55.642-72.67 88.643-128.597 74.22-4.624-1.163-9.457.884-11.84 5.013l-43.605 75.54a10.67 10.67 0 0 0 3.9 14.572 10.66 10.66 0 0 0 1.518.724c31.384 12.127 65.217 16.56 98.667 12.928a10.67 10.67 0 0 0 9.536-10.453c.472-41.14 34.205-74.1 75.345-73.637a74.49 74.49 0 0 1 40.516 12.538 10.67 10.67 0 0 0 14.016-1.941 212.78 212.78 0 0 0 48.512-104.917 10.67 10.67 0 0 0-8.847-12.218c-.56-.1-1.126-.134-1.692-.134zM223.548 330.26c-40.254-41.333-40.254-107.2 0-148.544a10.67 10.67 0 0 0 1.579-12.8l-43.54-75.37a10.67 10.67 0 0 0-7.317-5.163 11.13 11.13 0 0 0-8.66 2.133 213.5 213.5 0 0 0-67.243 96.32 10.67 10.67 0 0 0 3.307 11.712c31.735 25.306 36.947 71.546 11.64 103.28a73.49 73.49 0 0 1-11.641 11.641 10.67 10.67 0 0 0-3.307 11.712 213.51 213.51 0 0 0 67.221 96.235 10.73 10.73 0 0 0 6.74 2.4 11.65 11.65 0 0 0 1.92-.17c3.078-.564 5.754-2.452 7.317-5.163l43.54-75.413a10.68 10.68 0 0 0-1.557-12.798z"/></g><path d="M365.82 130.134c-1.402 0-2.648.312-3.894 1.1l-48.6 28.038c-2.336 1.402-3.894 3.894-3.894 6.698v56.23c0 1.402.312 2.648 1.1 3.894l55.297-31.932v-64.02z" fill="#00ab4e"/><path d="M310.524 225.93c.623 1.1 1.558 2.18 2.804 2.804l48.6 28.193c2.336 1.402 5.296 1.402 7.632 0l48.754-28.193c1.246-.623 2.18-1.713 2.804-2.804l-55.297-31.932-55.297 31.932z" fill="#00853e"/><path d="M421.118 225.93c.623-1.1 1.1-2.492 1.1-3.894v-56.23c0-2.804-1.402-5.296-3.894-6.698l-48.6-28.038c-1.246-.623-2.492-1.1-3.894-1.1v63.864c0 .156 35.826 20.873 55.297 32.088z" fill="#004c2c"/><path d="M378.594 218.297c2.18 2.648 5.608 3.894 8.723 3.894 4.206 0 7.32-2.804 7.32-6.23v-43.926a6.25 6.25 0 0 0-6.231-6.231h-.156c-3.583 0-6.386 2.804-6.386 6.386v31.31c0 .156-.156.156-.312.156l-28.505-33.957c-2.18-2.648-5.608-3.894-8.723-3.894-4.206 0-7.32 2.804-7.32 6.23v43.926a6.25 6.25 0 0 0 6.231 6.231h.156c3.583 0 6.386-2.804 6.386-6.386v-31.31c0-.156.156-.156.312-.156z" fill="#fff"/><text y="219.674" x="45.779" xml:space="preserve" font-size="27.138" font-family="Keraleeyam" letter-spacing="0" word-spacing="0" fill="#333"><tspan y="219.674" x="45.779" font-size="115.788">+</tspan></text><text y="219.674" x="247.333" xml:space="preserve" font-size="27.138" font-family="Keraleeyam" letter-spacing="0" word-spacing="0" fill="#333"><tspan y="219.674" x="247.333" font-size="115.788">+</tspan></text></g></svg>