<svg xmlns="http://www.w3.org/2000/svg" width="4535.433" height="4535.433" viewBox="0 0 1200 1200"><path d="M.942.942H1199.06V1199.06H.942z" fill="#f9f9f9" stroke="#fff" stroke-width="1.883"/><g fill-rule="evenodd"><path d="M694.784 439.738V592.7h25.588c11.82 0 23.972-2.105 35.162-5.896 5.5-1.866 11.67-4.46 17.095-7.724-7.144-9.327-10.792-21.104-11.863-32.712-1.46-15.792 1.726-36.344 12.412-48.703l5.32-6.153 6.34 5.097c15.96 12.82 29.383 30.74 31.75 51.166 19.218-5.653 41.782-4.316 58.72 5.46l6.95 4-3.656 7.14c-14.326 27.958-44.28 36.62-73.56 35.087-43.816 109.134-139.2 160.8-254.874 160.8-59.758 0-114.58-22.34-145.802-75.355l-.51-.863-4.548-9.256c-10.553-23.337-14.06-48.902-11.682-74.448l.715-7.65h43.278V439.738" fill="#364548"/><path d="M808.138 560.095c3.393-26.373-16.343-47.087-28.582-56.923-14.105 16.307-16.296 59.046 5.832 77.04-12.35 10.97-38.372 20.91-65.017 20.91H396.027c-2.6 27.814 2.293 53.428 13.446 75.35l3.7 6.75a125.13 125.13 0 0 0 7.647 11.474c13.335.857 25.63 1.15 36.878.903h.005c22.104-.487 40.14-3.1 53.81-7.835a3.9 3.9 0 0 1 4.84 2.445 3.9 3.9 0 0 1-2.288 4.916c-1.82.633-3.714 1.222-5.67 1.782h-.006c-10.763 3.074-22.305 5.14-37.196 6.06.885.015-.92.133-.925.133-.507.033-1.144.106-1.653.133-5.86.33-12.186.398-18.653.398-7.074 0-14.04-.133-21.827-.53l-.2.133c27.024 30.375 69.28 48.592 122.248 48.592 112.098 0 207.18-49.692 249.285-161.252 29.87 3.065 58.58-4.553 71.637-30.045-20.8-12.003-47.55-8.176-62.952-.434" fill="#22a0c8"/><path d="M808.138 560.095c3.393-26.373-16.343-47.087-28.582-56.923-14.105 16.307-16.296 59.046 5.832 77.04-12.35 10.97-38.372 20.91-65.017 20.91H415.234c-1.324 42.597 14.484 74.93 42.45 94.478h.006c22.104-.487 40.14-3.1 53.81-7.835a3.9 3.9 0 0 1 4.84 2.445 3.9 3.9 0 0 1-2.288 4.916c-1.82.633-3.714 1.222-5.67 1.782h-.006c-10.763 3.074-23.297 5.407-38.188 6.326-.005 0-.36-.343-.365-.343 38.15 19.57 93.466 19.5 156.888-4.863 71.112-27.32 137.287-79.368 183.458-138.898-.695.314-1.372.635-2.03.965" fill="#37b1d9"/><path d="M396.636 634.917c2.014 14.9 6.374 28.85 12.837 41.556l3.7 6.75a124.9 124.9 0 0 0 7.647 11.474c13.337.857 25.632 1.15 36.882.903 22.104-.487 40.14-3.1 53.81-7.835a3.9 3.9 0 0 1 4.84 2.445 3.9 3.9 0 0 1-2.288 4.916c-1.82.633-3.714 1.222-5.67 1.782h-.006c-10.763 3.074-23.23 5.274-38.12 6.195-.51.03-1.403.038-1.92.066-5.856.328-12.118.53-18.587.53-7.07 0-14.304-.135-22.088-.53 27.024 30.375 69.54 48.66 122.51 48.66 95.968 0 179.46-36.426 227.92-116.91H396.636" fill="#1b81a5"/><path d="M418.153 634.917c5.737 26.16 19.523 46.698 39.538 60.683 22.104-.487 40.14-3.1 53.81-7.835a3.9 3.9 0 0 1 4.84 2.445 3.9 3.9 0 0 1-2.288 4.916c-1.82.633-3.714 1.222-5.67 1.782h-.006c-10.763 3.074-23.494 5.274-38.387 6.195 38.148 19.565 93.305 19.284 156.722-5.075 38.365-14.74 75.29-36.683 108.415-63.11H418.154" fill="#1d91b4"/><path d="M440.05 448.174h246.3v145.078h-246.3zm3.654 3.656h3.462v137.767h-3.462zm6.507 0h3.6v137.767h-3.6V451.83zm6.644 0h3.6v137.767h-3.6zm6.65 0h3.6v137.767h-3.6zm6.646 0h3.6v137.767h-3.6zm6.644 0h3.464v137.767h-3.464z" fill="#34bbde"/><path d="M531.776 664.366a12.1 12.1 0 0 1 10.614 18.201 12.1 12.1 0 0 1-10.618 6.001c-6.62-.09-11.937-5.483-11.936-12.103s5.32-12.01 11.94-12.1" fill="#d3ecec"/><path d="M531.776 667.8c1.107 0 2.162.208 3.136.587-1.382.802-2.054 2.43-1.64 3.974s1.81 2.618 3.407 2.622c1.34 0 2.5-.74 3.103-1.84 1.463 3.525.448 7.593-2.5 10.017s-7.137 2.632-10.312.513-4.59-6.066-3.483-9.72 4.473-6.152 8.3-6.153M317.744 639.3H880.64c-12.255-3.107-38.777-7.308-34.403-23.372-22.288 25.79-76.033 18.094-89.598 5.378-15.103 21.907-103.037 13.578-109.17-3.488-18.937 22.223-77.613 22.223-96.55 0-6.137 17.067-94.07 25.395-109.174 3.486-13.563 12.717-67.306 20.413-89.593-5.374 4.373 16.062-22.148 20.263-34.408 23.372" fill="#364548"/><path d="M563.942 751.565c-29.968-14.22-46.415-33.553-55.566-54.655-11.133 3.176-24.512 5.208-40.06 6.08-5.856.328-12.018.496-18.48.496-7.454 0-15.31-.22-23.556-.657 27.482 27.467 61.3 48.612 123.9 48.997a364.59 364.59 0 0 0 13.773-.261" fill="#bdd9d7"/><path d="M519.506 716.383c-4.145-5.628-8.167-12.702-11.124-19.477-11.133 3.18-24.516 5.212-40.067 6.086 10.68 5.797 25.955 11.168 51.193 13.4" fill="#d3ecec"/></g><path d="M625.742 509.22h-32.947c-1.655 0-2.996-1.34-2.996-2.996v-34.334a4.61 4.61 0 0 0-4.606-4.61h-11.758a4.61 4.61 0 0 0-4.606 4.606v34.134a3.21 3.21 0 0 1-3.204 3.219l-10.8.053a3.21 3.21 0 0 1-3.234-3.223l.068-34.172a4.61 4.61 0 0 0-4.602-4.617h-11.713a4.61 4.61 0 0 0-4.644 4.606v96.16a4.08 4.08 0 0 0 4.088 4.088h90.957a4.08 4.08 0 0 0 4.088-4.088v-54.737a4.08 4.08 0 0 0-4.088-4.088zM610.29 545.32c-.002 2.96-2.4 5.36-5.362 5.362h-9.295c-2.96-.002-5.36-2.4-5.362-5.362v-9.295c.002-2.96 2.4-5.36 5.362-5.362h9.295c2.96.002 5.36 2.4 5.362 5.362z" fill="#f60" stroke="#fff" stroke-width="3.778"/></svg>