<svg xmlns="http://www.w3.org/2000/svg" xmlns:xlink="http://www.w3.org/1999/xlink" width="1200" height="1200" viewBox="0 0 317.5 317.5"><style><![CDATA[.L{stroke:#4d4d4d}.M{fill:#f9f9f9}.N{fill:#fff}.O{fill:#ececec}.P{stroke-width:1.722}.Q{fill:#5c2d91}.R{fill:#f2f2f2}.S{stroke-width:4.092}.T{stroke-dasharray:24.55182, 24.55182}.U{stroke-linejoin:round}.V{stroke-width:1.54}]]></style><defs><path d="M973-492.6l-59.1 29.545L973-433.5l59.1-29.545z" id="A"/><path d="M973-492.56l-59.1 29.545v73.864l59.1 29.545 59.1-29.545v-73.864z" id="B"/><path d="M253.468 432.168l-39.574 22.848-20.87-36.145c-12.175 1.417-24.782 2.165-37.727 2.165-64.156 0-120.118-18.188-155.296-46.8v44.413c0 11.226 5.375 33.128 41.372 53.7 30.115 17.208 70.574 26.685 113.923 26.685s83.8-9.477 113.923-26.685c9.503-5.43 16.852-10.95 22.552-16.345-13.75-6.17-26.64-14.153-38.303-23.825z" id="C"/><path d="M194.923 330.887c-1.397-8.286-2.134-16.7-2.272-25.194-12.06 1.388-24.542 2.124-37.355 2.124-64.156 0-120.118-18.188-155.296-46.8l.001 40.65c0 11.227 5.375 33.128 41.372 53.7 30.115 17.208 70.574 26.685 113.923 26.685a292.27 292.27 0 0 0 16.206-.448l-16.102-27.9 33.772-19.497z" id="D"/><path d="M174.898 218.384l14.146-24.5a321.52 321.52 0 0 1-33.748 1.756c-65.712 0-122.42-19.42-155.296-49.384l.001 42.186c0 11.225 5.375 33.128 41.372 53.7 30.115 17.208 70.574 26.685 113.923 26.685a288.87 288.87 0 0 0 26.803-1.258l-26.7-15.414z" id="E"/><path d="M263.315 37.314c-28.533-15.693-66.896-24.336-108.02-24.336S75.8 21.62 47.275 37.314C22.786 50.782 8.74 68.096 8.74 84.8s14.046 34.028 38.534 47.496c28.533 15.693 66.896 24.336 108.02 24.336s79.486-8.642 108.02-24.336c24.5-13.47 38.534-30.782 38.534-47.496s-14.045-34.028-38.534-47.496z" id="F"/><path d="M489.08 302.93c0-16.482-3.117-32.25-8.787-46.746L512 237.88l-19.497-33.77-31.762 18.336c-19.756-24.6-48.343-41.82-80.9-46.788v-36.6h-39v36.6c-32.567 4.97-61.153 22.2-80.9 46.788L228.178 204.1l-19.497 33.77 31.708 18.305c-5.668 14.498-8.787 30.265-8.787 46.746s3.117 32.248 8.787 46.745l-31.7 18.305 19.497 33.77 31.76-18.336c19.758 24.6 48.344 41.82 80.912 46.787v36.6h38.994v-36.6c32.568-4.968 61.153-22.186 80.9-46.785l31.76 18.335L512 367.98l-31.706-18.305c5.668-14.497 8.787-30.263 8.787-46.745zm-128.745 52.376c-28.882 0-52.377-23.495-52.377-52.376s23.495-52.377 52.377-52.377 52.376 23.495 52.376 52.377-23.497 52.376-52.376 52.376z" id="G"/><path id="H" d="M14 34.602v42.9l34.32-17.16v-42.9z"/><path id="I" d="M14 34.602v42.9l-34.3-17.166v-42.9z"/><path id="J" d="M42.255 35.506a126.243 126.243 0 1 0 178.239 178.239z"/><path id="K" d="M32.708 146.955a5.326 5.326 0 0 1-3.945-1.657 5.444 5.444 0 0 1-1.617-3.945 5.523 5.523 0 0 1 1.617-3.945 5.286 5.286 0 0 1 3.945-1.696 5.405 5.405 0 0 1 3.945 1.696 5.484 5.484 0 0 1 1.657 3.945 5.405 5.405 0 0 1-1.657 3.945 5.444 5.444 0 0 1-3.945 1.657zm78.4-.987H100.76l-36.965-57.36a23.671 23.671 0 0 1-2.288-4.497h-.316a73.852 73.852 0 0 1 .395 9.863v51.996h-8.403V74.05H64.1l35.98 56.336q2.25 3.5 2.92 4.813h.197a76.061 76.061 0 0 1-.513-10.573V74.05h8.403zm56.888 0h-38.228V74.05H166.2v7.614h-27.852v23.907h25.96v7.575h-25.96v24.933h29.667zm56.455-64.305h-20.9v64.305h-8.403V81.663h-20.672V74.05h49.984z"/><path id="L" d="M106.56 194.888a19.449 19.449 0 0 1-9.153 1.933 14.755 14.755 0 0 1-11.322-4.537 16.806 16.806 0 0 1-4.261-11.835 17.595 17.595 0 0 1 4.774-12.861 16.254 16.254 0 0 1 12.151-4.892 19.449 19.449 0 0 1 7.89 1.381v3.945a15.78 15.78 0 0 0-7.89-1.973 12.072 12.072 0 0 0-9.271 3.945 14.36 14.36 0 0 0-3.551 10.178 13.689 13.689 0 0 0 3.314 9.665 11.283 11.283 0 0 0 8.719 3.59 16.333 16.333 0 0 0 8.64-2.209zm16.135 1.932a10.967 10.967 0 0 1-8.403-3.511 12.269 12.269 0 0 1-3.117-8.798 12.782 12.782 0 0 1 3.274-9.31 11.835 11.835 0 0 1 8.798-3.353 10.612 10.612 0 0 1 8.245 3.274 12.94 12.94 0 0 1 2.959 9.034 12.703 12.703 0 0 1-3.196 9.074 11.204 11.204 0 0 1-8.561 3.59zm.276-21.58a7.22 7.22 0 0 0-5.76 2.485 10.218 10.218 0 0 0-2.13 6.864 9.665 9.665 0 0 0 2.13 6.628 7.298 7.298 0 0 0 5.76 2.446 6.943 6.943 0 0 0 5.641-2.367 10.336 10.336 0 0 0 1.973-6.786 10.494 10.494 0 0 0-1.973-6.825 6.904 6.904 0 0 0-5.641-2.446zm29.904 1.185a4.655 4.655 0 0 0-2.88-.75 4.852 4.852 0 0 0-3.945 2.288 10.573 10.573 0 0 0-1.617 6.233v12.072h-3.945v-23.67h3.945v4.93a8.285 8.285 0 0 1 2.485-3.945 5.641 5.641 0 0 1 3.708-1.381 6.194 6.194 0 0 1 2.249.316zm23.12 8.995h-16.688a8.837 8.837 0 0 0 2.012 6.075 7.338 7.338 0 0 0 5.602 2.13 11.835 11.835 0 0 0 7.338-2.643v3.55a13.729 13.729 0 0 1-8.245 2.249 10.021 10.021 0 0 1-7.89-3.235 13.216 13.216 0 0 1-2.88-9.074 12.94 12.94 0 0 1 3.117-8.995 10.06 10.06 0 0 1 7.89-3.472 8.916 8.916 0 0 1 7.18 2.998 12.545 12.545 0 0 1 2.525 8.364zm-3.945-3.196a7.89 7.89 0 0 0-1.578-5.089 5.405 5.405 0 0 0-4.34-1.815 6.115 6.115 0 0 0-4.537 1.933 8.719 8.719 0 0 0-2.328 5.01z"/></defs><path d="M0 0h317.5v317.5H0z" class="M"/><g transform="matrix(.264583 0 0 .264583 74.021143 244.75704)"><g stroke="#3498db"><rect width="612.46" height="636" x="170.553" y="-643.066" ry="95.149" stroke-width="4" class="M"/><path d="M460.966-510.2h198.13M228.812-268.93l209.322 139.1M-2.745-326.146h661.84m-430.283-52.708l209.322-139.1" fill="none" class="S T"/></g><g transform="matrix(2.045985 0 0 2.045985 397.38243 -541.63396)"><g class="L"><circle cx="-110.581" cy="105.85" r="21.198" stroke-width="1.127" class="N"/><path d="M-112.868 66.032c-2.55.168-5.7.648-6.063.93-.38.274-.374.224-.374 3.234l-.006 2.76-.137.056-1.196.374c-1.184.36-2.387.798-3.46 1.265-.848.36-2.617 1.24-3.147 1.558l-.374.224-1.932-1.92-2.07-1.994c-.187-.093-.604-.087-.847.02-.256.106-1.595 1.066-2.567 1.838a45.56 45.56 0 0 0-7.017 7.017c-1.16 1.464-1.85 2.474-1.926 2.804-.112.486-.062.548 2.025 2.648L-140 88.8l-.224.374c-.318.536-1.196 2.306-1.558 3.147a32.77 32.77 0 0 0-1.265 3.459l-.374 1.196-.056.137-2.76.006c-3.022 0-2.954-.006-3.247.386-.212.287-.6 2.655-.835 4.942-.15 1.57-.15 5.222 0 6.793.224 2.287.623 4.66.84 4.948.287.386.224.38 3.24.38l2.76.006.056.137.374 1.196a32.77 32.77 0 0 0 1.265 3.459 40.18 40.18 0 0 0 1.558 3.147l.224.374-1.92 1.932-1.994 2.07c-.093.187-.087.604.02.847.106.256 1.066 1.595 1.838 2.567a45.56 45.56 0 0 0 7.017 7.017c1.464 1.16 2.474 1.85 2.804 1.926.486.112.548.062 2.648-2.025l1.963-1.957.374.224a42.5 42.5 0 0 0 3.147 1.558 32.77 32.77 0 0 0 3.459 1.265l1.196.374.137.056.006 2.76c0 3.022-.006 2.954.386 3.247.287.212 2.655.6 4.942.835 1.57.15 5.222.15 6.793 0 2.287-.224 4.66-.623 4.948-.84.386-.287.38-.224.38-3.24l.006-2.76.137-.056 1.196-.374a32.77 32.77 0 0 0 3.459-1.265c.848-.36 2.617-1.24 3.147-1.558l.374-.224 1.932 1.92 2.07 1.994c.187.094.604.087.848-.02.255-.106 1.595-1.066 2.567-1.838a45.56 45.56 0 0 0 7.017-7.017c1.16-1.464 1.85-2.474 1.926-2.804.112-.486.062-.548-2.025-2.648l-1.957-1.963.224-.374c.318-.536 1.196-2.306 1.558-3.147.467-1.072.904-2.275 1.265-3.46l.374-1.196.056-.137 2.76-.006c3.022 0 2.954.006 3.247-.386.212-.287.6-2.655.835-4.942.15-1.57.15-5.222 0-6.793-.224-2.287-.623-4.66-.84-4.948-.287-.386-.224-.38-3.24-.38l-2.76-.006-.056-.137-.374-1.196c-.36-1.184-.798-2.387-1.265-3.46-.36-.848-1.24-2.617-1.558-3.147l-.224-.374 1.92-1.932 1.994-2.07c.093-.187.087-.604-.02-.848-.106-.255-1.066-1.595-1.838-2.567a45.56 45.56 0 0 0-7.017-7.017c-1.464-1.16-2.474-1.85-2.804-1.926-.486-.112-.548-.062-2.648 2.025l-1.963 1.957-.374-.224c-.536-.318-2.306-1.196-3.147-1.558-1.072-.467-2.275-.904-3.46-1.265l-1.196-.374-.137-.056-.006-2.76c0-3.022.006-2.954-.386-3.247-.287-.212-2.692-.617-4.88-.823a57.35 57.35 0 0 0-5.746-.093zm4.113 21.443c6.338.573 12.058 4.593 14.85 10.432a17.98 17.98 0 0 1 1.764 6.967c.255 4.605-1.2 9.08-4.163 12.694-2.935 3.602-7.135 5.94-11.846 6.606a21.86 21.86 0 0 1-4.861 0c-4.113-.58-7.74-2.38-10.625-5.266s-4.686-6.512-5.266-10.625a21.86 21.86 0 0 1 0-4.861c.667-4.7 3.004-8.9 6.606-11.846 3.857-3.147 8.5-4.555 13.54-4.1z" fill="#ccc"/></g><path d="M-117.74 120.816c.162-.308 1.913-2.025 2.595-2.545.352-.268.62-.52.596-.56-.106-.17-.577-.054-.988.24l-2.122 1.4c-.143 0 .53-.5 1.65-1.223l1.058-.684-.132-.255c-.16-.307-.43-.387-1.083-.32-.825.085-1.7.562-3.594 1.96-.85.627-1.07.75-.784.433.222-.245.97-.783 2.196-1.58.93-.603.995-.663.672-.608-.197.034-.876.24-1.5.46l-1.2.35c-.14-.14 2.76-1.176 3.56-1.27.677-.08 1.076-.212 1.076-.358 0-.2-.2-.58-.306-.578-.247.004-1.42.3-2.07.505-.784.26-2.573 1.103-3.877 1.827l-.83.4c0-.065 1.287-.817 2.196-1.284 1.2-.615 2.37-1.078 3.36-1.326.518-.13.997-.3 1.066-.358.206-.202-.42-.262-1.547-.148a9 9 0 0 0-3.283.913c-.705.33-.874.386-.672.22.398-.33 1.354-.8 2.016-1 .32-.097 1.006-.204 1.524-.237 1.156-.075 1.537-.137 1.473-.24-.125-.202-3.33-.047-4.677.224-.308.062-.56.098-.56.08s.15-.097.333-.173c.2-.088.958-.184 2.04-.262l2.192-.182.486-.06-.338-.173c-.186-.095-.586-.206-.9-.245-.402-.052-.462-.075-.22-.083.182-.006.35-.043.376-.083s-.302-.3-.726-.605l-1.07-.8c-.394-.337-.957-1.5-1.243-2.567s-.393-2.778-.224-3.572c.195-.92-.146-2.242-.855-3.3-.243-.367-.3-.553-.294-.822.017-.3-.035-.408-.308-.7-.34-.375-.374-.46-.507-1.22a5.85 5.85 0 0 0-.317-1.015c-.365-.868-.525-1.873-.47-2.974.054-1.108.277-1.798.715-2.212.416-.393.62-.477 1.166-.477.87 0 1.855.386 2.935 1.152.9.638 1.222.965 1.9 1.934 1.2 1.7 1.35 1.8 2.307 1.5.318-.1.74-.182.937-.182s.94-.108 1.647-.24c1.168-.216 1.353-.23 1.972-.136l1.848.197c.713.06 1.476.182 1.966.322.838.238 1.208.285 1.384.176.06-.036.353-.435.657-.887.913-1.358 2.247-2.583 3.52-3.233.758-.387 1.413-.533 2.168-.486.497.032.605.073.875.335.5.496.698 1.06.75 2.262.053 1.263-.14 2.485-.515 3.28-.14.293-.282.7-.318.928-.082.493-.314.955-.624 1.244-.197.184-.23.274-.184.516.044.234 0 .372-.22.692-.727 1.056-1.137 2.3-1.04 3.126.194 1.665.183 1.817-.257 3.506l-.554 1.863c-.224.433-.818 1.023-1.547 1.536-.375.264-.754.56-.843.66-.16.18-.158.18.27.088.236-.05 1.176-.092 2.088-.1 1.438.001 1.8.032 2.72.23l1.113.28c.175.175-.223.137-1.346-.127-1.475-.347-2.055-.366-4.135-.138-1.222.134-1.752.27-1.885.486-.028.047.523.106 1.27.14 1.714.075 2.754.194 3.282.374.234.08.4.16.392.178s-.434-.046-.924-.143c-1.064-.2-3.1-.314-3.848-.196-.5.077-.504.086-.17.096.5.015 1.828.25 2.632.467.907.246 2.007.78 2.578 1.25.58.477.558.58-.028.132-1.107-.845-2.576-1.327-4.8-1.574-.646-.072-1.004-.077-1.113-.015-.146.082-.137.103.1.224.144.073.636.22 1.094.323 1.343.306 2.78.958 4.4 2 .873.558.723.558-.215 0-.904-.537-2.686-1.373-3.46-1.62a17.88 17.88 0 0 0-1.37-.358l-.788-.172-.14.215c-.2.306-.108.445.378.567 2 .5 5.088 1.666 5.288 2 .075.122.057.115-.588-.224-.923-.485-3.317-1.247-3.463-1.102-.024.024.434.332 1.015.685 1.225.744 1.525.958 1.448 1.034-.03.03-.655-.34-1.388-.82-1.446-.95-1.98-1.186-2.692-1.2-.408-.003-.5.03-.694.273-.128.152-.232.305-.232.34s.268.22.596.4c.662.387 1.885 1.24 2.093 1.46.172.18-.05.045-1.546-.95-1.056-.703-1.16-.752-1.375-.655l-.23.105.568.416c.876.642 1.596 1.3 2.136 1.953l.52.67c.014.04-.55-.498-1.255-1.197-1.24-1.23-1.628-1.515-2.218-1.633l-.28-.056.06.375c.06.37.057.374-.175.317-.2-.05-.25-.022-.332.197-.35.93-1.92 1.5-3.486 1.287-1.083-.154-1.82-.574-2.072-1.18-.082-.2-.148-.248-.285-.204-.163.052-.172.026-.115-.3.06-.36.056-.367-.192-.365-.523.004-1.004.344-2.366 1.67l-1.27 1.146zm8.16-1.157c.643-.17 1.055-.465 1.274-.914.1-.205.27-.43.378-.503.32-.213.075-.4-.63-.45-.333-.03-.943-.153-1.357-.275l-.752-.222-1.04.267c-1.38.355-1.892.523-1.892.623 0 .045.03.083.067.083s.166.153.286.336c.497.76.765.947 1.65 1.147.6.135 1.27.105 2.014-.1zm-2.9-2.25c.897-.166 1.596-.5 1.55-.74-.016-.082-.4-.437-.88-.788s-.94-.77-1.052-.932c-.22-.322-.26-.714-.096-.976.086-.137.048-.35-.203-1.134-.17-.53-.36-.983-.423-1.004s-.256.112-.43.295-.338.3-.367.28.038-.336.15-.682c.253-.787.182-1.007-.485-1.506-.37-.277-.574-.362-.966-.403-.273-.028-.664-.136-.868-.24-.45-.23-.906-.83-.906-1.2 0-.32-.156-.633-.277-.558-.05.03-.2-.012-.316-.093-.207-.135-.245-.136-.44-.008-.118.077-.27.14-.34.14-.2 0-.328.22-.43.794l-.096.545-.506.184c-.886.322-.828.25-.626.785l.176.47.34-.054c.268-.043.488.012 1.047.253.997.433 2.406 1.32 2.288 1.438-.065.065-.218.045-.5-.062-.223-.085-.486-.13-.583-.098a.54.54 0 0 1-.361-.041c-.158-.085-.183-.07-.183.103 0 .156-.024.176-.108.094-.17-.17-.34-.125-.343.094-.003.198-.006.198-.215-.04s-.213-.24-.267-.045c-.043.155.034.277.372.582.7.624 1.438 1.082 2.092 1.28.336.102.658.243.716.313a.35.35 0 0 0 .514.02c.084-.084.132-.084.215 0a.44.44 0 0 0 .27.108c.1 0 .23.08.316.18s.243.18.352.18c.24 0 .357.157.22.294-.054.054-.386.13-.738.167s-.66.088-.684.113-.02.144.01.265c.058.23.055.23 1.5.345.325.026.43.186.277.423-.07.108-.106.1-.228.008s-.153-.095-.197.073c-.037.142-.12.194-.3.194-.165 0-.26.047-.26.13 0 .183.145.25.333.153.3-.148.966-.275.997-.187.04.113.373.108.373-.006 0-.122.243-.114.32.01s-.125.26-.3.196c-.066-.025-.12-.005-.12.046s-.14.14-.314.196c-.37.122-.423.304-.067.236l1.053-.196zm-.85-1.115c0-.05.06-.1.134-.1s.134.04.134.1-.06.1-.134.1-.134-.04-.134-.1zm-.306-.95c-.066-.17.015-.33.13-.257.107.066.1.4.004.4-.044 0-.105-.064-.135-.143zm-2.325-.903c-.13-.13-.047-.2.206-.2.2 0 .253.033.214.134-.053.137-.313.183-.42.075zm-.687-2.888c0-.052-.123-.16-.275-.237-.173-.1-.264-.198-.247-.294.036-.2.338-.24.538-.088.184.14.25.62.094.674-.062.022-.112-.004-.112-.055zm-1.03-.792c-.452-.1-.56-.473-.14-.473s.723.152.723.356c0 .185-.168.22-.583.117zm1.434-.175c-.892-.2-1.48-.605-1.48-1.02 0-.236.048-.22.478.15a3.65 3.65 0 0 0 .86.515c.65.26.742.5.14.357zm-2.457-.868c-.2-.34-.247-.845-.068-.915.065-.025.227-.005.358.045.196.075.24.147.24.4 0 .36-.137.77-.26.77-.047 0-.17-.136-.27-.302zm10.98 7.752c-.026-.043-.17-.128-.32-.2-.332-.137-.34-.2-.038-.347.245-.112.802-.056.998.1.146.116.382.02.382-.153 0-.093-.087-.137-.27-.137s-.27-.045-.27-.136c0-.1-.06-.12-.224-.08-.203.05-.224.03-.224-.22 0-.26.02-.276.336-.275.185.001.574-.03.864-.07.434-.058.54-.107.603-.276.087-.236.106-.227-.762-.36-.34-.052-.656-.134-.705-.183-.13-.13.002-.283.24-.283a.47.47 0 0 0 .32-.134.46.46 0 0 1 .314-.134.47.47 0 0 0 .336-.202c.116-.175.216-.203.75-.2.803-.012 1.34-.257 2.465-1.125.8-.617.848-.672.667-.758-.15-.07-.226-.06-.324.045-.115.123-.132.12-.16-.025-.02-.1-.086-.148-.202-.118-.094.025-.194.008-.22-.037s-.127-.04-.234.017c-.12.064-.214.068-.27.01s-.196-.054-.396.007c-.233.07-.336.067-.418-.017-.158-.16.252-.467.962-.718.312-.1.655-.294.764-.408.247-.263.884-.444 1.342-.383.33.044.36.03.498-.26.235-.494.157-.662-.403-.875-.7-.263-.684-.255-.808-.9-.076-.4-.158-.604-.257-.633-.08-.023-.26-.1-.397-.17-.386-.197-.928-.004-1.053.377-.258.782-1.018 1.405-1.846 1.514-.362.047-.564.145-.936.45-.777.637-.87.988-.482 1.82.124.266.2.508.17.538s-.208-.117-.395-.327-.38-.38-.432-.38c-.172 0-.45.578-.642 1.33-.17.67-.176.76-.052.85.114.084.122.163.044.44-.126.453-.458.813-1.426 1.546-.476.36-.8.678-.8.77 0 .174.455.33 1.778.613.88.188 1.212.218 1.142.105zm-.948-.55c0-.05.06-.1.134-.1s.134.04.134.1-.06.1-.134.1-.134-.04-.134-.1zm.286-.633a.28.28 0 0 1 .157-.157c.067-.022.1.01.078.078a.28.28 0 0 1-.157.157c-.067.022-.1-.01-.078-.078zm.342-1.062c0-.1.058-.187.14-.187s.13.06.112.15c-.043.225-.253.256-.253.037zm3.227-2.965c0-.05.038-.1.084-.1s.1.04.14.1-.008.1-.084.1-.14-.04-.14-.1zm-.18-.756c0-.457.407-.8.677-.585.193.16.165.218-.226.477-.412.273-.45.282-.45.107zm.717-.753c0-.24.165-.35.58-.387.278-.024.363.002.386.12.035.176-.162.295-.63.38-.293.053-.336.04-.336-.112zm-1.343-.076c.003-.16.15-.277.492-.387.197-.064.593-.275.88-.47s.544-.33.57-.305.023.153-.01.28c-.07.28-.47.536-1.13.723l-.65.186c-.086.025-.156.013-.155-.027zm2.506-.796c-.16-.417-.077-.87.18-.997.202-.1.237-.087.386.15s.15.284.034.512a1.73 1.73 0 0 1-.317.42c-.184.166-.187.165-.282-.085zm-7.6 5.792a.64.64 0 0 1 .083.286c.002.207.102.198.415-.04l.287-.215c.016-.01-.02-.096-.078-.2-.168-.27.097-.685.6-.923.226-.1.395-.244.377-.3-.07-.215-.667-.33-1.147-.218-.346.08-.573.08-.968-.002-.7-.14-.957-.134-1.125.034-.206.206-.175.3.158.43.447.188.712.568.645.927-.05.26-.023.312.24.472l.295.18.074-.285c.057-.218.093-.254.155-.156zm-1-.298c0-.177-.32-.494-.4-.405-.04.04.298.607.363.607.025 0 .046-.1.046-.202zm2.387-.398c-.1-.1-.415.175-.413.357.003.2.013.187.23-.058.124-.14.207-.276.184-.298zm-6.9-.47c-.032-.053-.102-.096-.154-.096-.06 0-.053.05.018.137.123.148.233.115.136-.04zm11.224-.08c.022-.065-.02-.086-.106-.052-.078.03-.142.094-.142.142 0 .118.204.044.248-.1zm-7.028-1.54c.105 0 .147-.08.147-.282v-.282l.366.416c.34.387.396.416.8.416s.457-.026.854-.47c.42-.47.42-.47.368-.18-.044.244-.026.3.114.3a.25.25 0 0 1 .22.134c.096.25.212.137.266-.26.03-.217.212-.8.404-1.277s.418-1.226.5-1.645c.2-.97.465-1.813.68-2.085.092-.117.463-.35.823-.515.592-.273.754-.306 1.65-.34.87-.033 1.047-.014 1.426.153.243.108.5.167.608.136s.27-.004.388.058c.167.1.263.1.447.007.32-.146.428-.036.613.622.092.33.212.562.303.594a.83.83 0 0 1 .295.232c.192.238.306.15.427-.333.205-.816.027-1.375-.404-1.267-.174.044-.232.01-.304-.178-.125-.327-.113-.372.108-.43.186-.05.188-.06.045-.22-.214-.236-.2-.378.066-.378.273 0 .288.056-.6-2.227l-.682-2.02c0-.394.2-.645.746-.93.435-.228.45-.245.218-.273-.136-.016-.246-.064-.246-.106 0-.138.528-.523 1.07-.78.294-.14.536-.28.54-.3s-.43.06-.96.204l-1.175.316c-.423.1-.026-.323.773-.844s.873-.76.1-.34c-.7.376-.725.218-.082-.384.32-.3.557-.567.528-.596s-.26.087-.513.258-.46.268-.46.216c0-.123.548-.866.843-1.142.316-.295.293-.154-.044.27-.323.408-.267.44.2.116.532-.37.58-.218.123.4-.23.3-.402.58-.384.6s.212-.087.432-.232c.393-.26.624-.333.624-.196 0 .1-.466.572-.97.958-.725.558-.37.624.744.138.46-.2.85-.293.85-.202 0 .2-.334.5-.9.837-.343.204-.624.397-.624.43s.17.043.38.023c.325-.03.363-.018.27.096-.06.072-.437.308-.838.524-1.08.58-1.073.555-.523 1.933l.502 1.22c.023.038.12.027.215-.024.145-.077.155-.12.066-.264s-.076-.205.066-.363c.172-.2.172-.2-.05-.14-.122.03-.28.015-.35-.03-.107-.07-.086-.146.127-.453.403-.582.512-.568.266.035-.073.177.017.18.43.01.125-.052.157-.02.157.164 0 .126-.04.253-.1.284-.136.084-.106.224.047.224.242 0-.106.525-.458.694-.28.134-.307.176-.255.414a3.74 3.74 0 0 0 .176.542c.105.248.124.258.176.098.263-.815.547-1.42.8-1.727.388-.454.4-.847.076-1.46-.345-.633-.13-1.2.64-1.663.663-.406.822-.6 1.016-1.226.417-1.35.43-2.73.035-3.793-.148-.4-.195-.444-.582-.553-.64-.18-1.027-.038-1.752.643-.33.3-.743.637-.916.723a2.41 2.41 0 0 0-1.165 1.096c-.16.285-.375.612-.48.725-.156.17-.167.22-.063.284s.108.1-.002.234c-.087.106-.096.167-.03.2.06.02-.035.3-.25.725-.317.627-.343.735-.3 1.162.067.546-.035.608-.333.205-.232-.314-.7-.552-.937-.487-.146.038-.194-.022-.28-.343-.145-.544-.426-.876-.74-.876-.14 0-.5-.08-.823-.178-.835-.262-.882-.25-.88.2.001.2.123.724.27 1.143.213.603.266.897.256 1.4-.014.696.12 1.037.45 1.14.15.048.174.137.172.634l-.003.58-.28.001c-.155.001-.367.024-.47.052-.3.078-.42-.376-.437-1.532-.01-.678-.094-1.374-.27-2.23-.2-1.033-.235-1.274-.14-1.424.124-.2.014-.332-.277-.334a1 1 0 0 1-.291-.056c-.202-.078-.184.247.038.682.22.43.22.448.016.448-.1 0-.25-.1-.358-.224-.112-.13-.3-.224-.422-.224-.156 0-.252-.066-.308-.212-.1-.263-.5-.594-.734-.594-.2 0-.22.204-.03.36.075.062.125.16.112.216s.104.223.26.37c.212.2.298.373.342.7.076.56-.048.553-.618-.028l-.44-.45-.282.272c-.358.347-.538.36-.455.03a1.79 1.79 0 0 1 .239-.492 1.61 1.61 0 0 0 .228-.557c.068-.417-.152-.53-.87-.45l-.536.06v.352c0 .282-.057.404-.3.616-.252.23-.608.356-.608.215 0-.027.08-.206.18-.4.28-.55.248-.66-.187-.602-.45.06-.48.1-.356.324.116.216-.105 1.725-.33 2.25-.096.224-.13.596-.12 1.3.018 1.178-.137 1.713-.47 1.624a2.26 2.26 0 0 0-.478-.054c-.295-.001-.46-.207-.316-.394.043-.055.205-.4.36-.8.2-.488.282-.834.282-1.186 0-.37.084-.7.327-1.283.295-.7.427-1.45.283-1.595-.026-.026-.496.058-1.045.187-1.112.26-1.358.44-1.358.993 0 .27-.027.302-.246.304-.353.003-.976.308-1.1.54-.094.175-.12.182-.24.063-.104-.104-.112-.176-.037-.317.134-.25-.195-1.3-.5-1.585-.254-.235-.272-.315-.072-.315.12 0 .125-.024.034-.134s-.1-.162.003-.272.075-.178-.12-.383c-.13-.135-.284-.384-.342-.552-.14-.405-.443-.732-1.054-1.143-.276-.186-.56-.42-.632-.517-.604-.832-1.536-1.206-2.32-.932-.255.1-.305.172-.52.858-.22.706-.233.84-.186 1.896.055 1.23.232 1.995.54 2.33.105.114.403.33.66.476.893.5 1.032.965.565 1.84-.148.277-.27.562-.27.633s.14.3.3.5a4.46 4.46 0 0 1 .814 1.697c.05.28.083.322.173.224.166-.18.33-.92.212-.96-.052-.018-.232-.153-.4-.3-.313-.275-.42-.58-.17-.485.118.045.118.018-.006-.223-.16-.3-.108-.574.096-.492l.282.114c.152.06.15-.046-.014-.44-.116-.28.083-.16.344.207.287.406.262.622-.073.622-.263 0-.288.07-.08.223.17.125.092.314-.13.317-.13.001-.133.013-.017.088.3.2.42.094.807-.784.417-.946.53-1.498.363-1.805-.06-.112-.42-.34-.85-.54-.933-.43-1.062-.588-.434-.528l.45.043-.237-.198c-.13-.1-.45-.328-.7-.487s-.513-.366-.563-.46c-.08-.15-.06-.17.17-.17.144 0 .486.103.762.23s.653.25.84.276l.34.047-.286-.254-.74-.642c-.25-.214-.453-.445-.453-.515 0-.178.1-.16.467.097.313.212.518.282.518.175 0-.027-.16-.262-.358-.524s-.358-.5-.358-.534c0-.124.218-.05.507.17.36.274.4.145.063-.282-.13-.17-.217-.33-.194-.353.073-.073 1.058 1.18 1.058 1.344 0 .087-.165.05-.285-.065-.235-.225-.6-.428-.6-.33 0 .054.232.343.515.64.562.592.494.63-.353.206-.545-.273-.466-.088.132.3.673.447 1.14.814 1.14.898s-.467-.012-1.517-.316l-.78-.193c-.014.014.3.214.674.444l.813.556c.118.143.12.142-.265.253-.08.024.037.12.298.244.238.113.498.306.578.428.135.206.135.266-.003.8-.082.3-.432 1.298-.78 2.192l-.63 1.708c0 .045.078.082.174.082.242 0 .332.184.153.315-.193.14-.188.192.03.25.157.04.166.08.082.322-.074.212-.165.288-.398.332-.476.1-.533.217-.408.917.147.823.212.915.475.678a1.39 1.39 0 0 1 .352-.237c.083-.03.17-.2.205-.394.137-.785.155-.8.975-.8.44-.006.866-.066 1.06-.148 1.168-.497 3.38-.033 4.014.843.177.244.305.617.45 1.312.262 1.25.516 2.133.745 2.582a2.15 2.15 0 0 1 .2.812c.02.564.118.76.274.548.06-.08.174-.148.255-.148zm-.662-3.876c-.001-.1-.098-.474-.215-.807l-.214-.605h.255c.485 0 .707.752.397 1.35-.164.317-.22.333-.224.063zm3.82-.045c-.16-.806-.162-.924-.018-1.143a.45.45 0 0 1 .413-.224c.147 0 .267.013.267.03s-.1.278-.224.58-.224.653-.224.777c0 .303-.153.288-.214-.02zm-5.27-1.73c-.083-.05-.242-.215-.352-.37-.17-.237-.205-.423-.23-1.202-.02-.566.004-.943.06-.978.05-.03.067-.155.037-.275-.106-.423.112-.212.4.386.27.56.3.66.264 1.367-.015.42.005.853.045.964.08.217.015.248-.225.108zm6.793-.924c.008-.945.024-1.028.302-1.56.298-.57.5-.74.4-.336-.036.143-.018.224.05.224.077 0 .1.253.053.947-.055 1.007-.145 1.248-.576 1.555l-.235.167zm-3.98.637c.016-.1.07-.202.118-.202s.102.1.118.202c.02.14-.017.202-.118.202s-.138-.063-.118-.202zm-.823-.3c0-.123.04-.224.1-.224s.1.1.1.224-.04.224-.1.224-.1-.1-.1-.224zm-1.03-.067c.027-.1-.094-.685-.267-1.276l-.315-1.3.002-.226.165.214c.1.118.355.602.588 1.076l.423.862-.183.426c-.2.443-.5.616-.412.224zm3.808.022c0-.116.045-.18.112-.157s.112.1.112.157-.05.136-.112.157-.112-.04-.112-.157zm.86-.24l-.172-.418.53-1.034c.292-.57.578-1.048.636-1.065.114-.034.078.127-.364 1.625-.13.437-.234.9-.234 1.053 0 .393-.202.3-.396-.16zm6.305-.022c-.285-.285-.367-.694-.12-.6.078.03.3.054.493.054.397 0 .44.107.214.542-.17.33-.26.33-.587.002zm-17.46-.1c-.194-.558-.105-.732.26-.504.14.087.2.087.286 0 .195-.195.357-.13.326.134-.018.16-.135.315-.333.448-.392.263-.42.26-.538-.078zm7.852.22a1.96 1.96 0 0 1-.105-.363c-.054-.253-.04-.3.12-.3.216 0 .253.05.295.402.023.194-.01.275-.117.296-.082.016-.168-.004-.2-.043zm2.016-.045c-.155-.155-.132-.38.056-.55.33-.298.494-.123.344.367-.094.306-.22.364-.4.184zm-5.933-.564c-.123-.067-.456-.148-.74-.182-.573-.067-.64-.148-.258-.307.413-.17.906-.088 1.1.188.233.313.177.46-.114.3zm9.946-.13c.144-.27.385-.363.933-.363.835 0 .716.284-.168.4l-.655.1c-.183.038-.195.024-.1-.137zm-6.3-.154c-.084-.084-.075-.388.012-.388.112 0 .287.202.287.332 0 .122-.196.16-.3.057zm1.7-.216c-.06-.307.077-.65.24-.596.227.075.17.872-.064.872-.067 0-.146-.124-.177-.276zm.93.102c0-.2.225-.348.337-.235.073.073-.085.34-.23.4-.06.02-.106-.05-.106-.154zm-1.935-.303c-.278-.24-.258-.564.047-.754.152-.094.194-.086.27.056.05.092.116.333.15.537.07.442-.08.494-.465.16zm9.732.028c-.076-.14-.067-.192.037-.232.185-.07.322.03.322.24 0 .228-.236.224-.36-.007zm-18.356-.066c.016-.086.12-.17.23-.185.22-.03.26.068.093.235-.16.16-.358.13-.324-.05zm7.512-.732c0-.052-.156-.174-.347-.27-.452-.23-.518-.4-.22-.605.22-.145.238-.143.356.017.113.153.124.137.124-.192 0-.198.027-.387.06-.42.1-.1.3.14.3.395 0 .14.08.328.176.42.256.24.13.683-.205.722-.132.016-.24-.014-.24-.065zm3.235-.202c-.08-.226-.073-.313.032-.428.072-.08.183-.302.247-.494.138-.414.392-.568.32-.193-.025.13-.012.26.028.283s.05.115.02.2c-.042.123-.025.118.084-.022.118-.15.17-.16.37-.07.294.134.294.24.004.442l-.483.363c-.345.275-.506.253-.623-.082zm-.85-.858c-.12-.12-.042-.544.128-.698.268-.242.407-.065.272.344-.1.3-.287.467-.4.354zm-1.308-.774c0-.12-.06-.24-.134-.268-.084-.032-.134-.17-.134-.368 0-.222-.04-.316-.134-.316-.074 0-.134-.07-.133-.157.002-.285.14-.395.456-.365l.306.03-.03.432c-.027.37-.006.438.15.48.188.05.348.457.223.57a1.01 1.01 0 0 1-.32.123c-.217.05-.246.032-.246-.158zm-1.57-.24c-.068-.214.066-.408.218-.314.136.084.122.277-.03.402-.102.084-.14.067-.188-.088zm4.53-.036c-.125-.15-.053-.318.136-.318.078 0 .13.1.13.224 0 .252-.104.288-.266.094zm-7.23-.92c.08-.58.195-.67.466-.357s.272.365-.018.593c-.398.313-.514.25-.447-.236zm4.783.363c-.024-.042-.013-.16.027-.265.055-.145.178-.203.53-.25.526-.07.633-.032.57.204-.027.103-.155.2-.328.223l-.52.1c-.13.03-.256.02-.28-.022zm5.02-.13c-.136-.1-.246-.225-.246-.275 0-.127.354-.6.447-.6.066 0 .27.75.27 1 0 .138-.206.093-.47-.104zm-7.174-.55c-.083-.062-.175-.24-.206-.395-.047-.237-.02-.3.156-.392a2.85 2.85 0 0 0 .501-.383c.16-.15.318-.246.352-.212.055.055-.106 1.085-.217 1.382-.023.062-.13.112-.24.112s-.265-.05-.348-.112zm4.33-.224c-.163-.565-.212-1.157-.102-1.225.058-.036.144.034.205.167.058.126.158.23.223.23s.12.04.12.1.078.1.174.1c.234 0 .284.106.216.45-.043.216-.132.32-.355.412-.392.164-.37.173-.48-.212zm-8.022-.1c-.076-.122.114-.45.26-.45.066 0 .167.057.225.126.083.1.063.156-.1.27-.236.165-.3.176-.387.055zm6.14-.086c-.127-.237-.117-.842.015-.974.084-.084.193-.025.493.27.438.43.466.542.186.74-.272.2-.582.175-.694-.034zm5.725.03c-.102-.123-.094-.163.053-.27.23-.17.353-.114.387.175.022.187-.01.24-.146.24a.44.44 0 0 1-.294-.144zm-11.016-.797c0-.15.04-.225.112-.202.062.02.112.1.112.202s-.05.18-.112.202c-.07.024-.112-.05-.112-.202zm10.397-.007c0-.28.2-.25.253.037.02.13-.02.195-.112.195s-.14-.08-.14-.23zm-9.482-.055c-.06-.06-.108-.22-.108-.36 0-.356.348-.514.67-.304.263.173.282.296.088.573-.152.217-.478.263-.65.092zm2.85-.154c0-.2.043-.276.14-.276s.132.07.112.24c-.04.35-.252.38-.252.037zm5.338.062c-.192-.274-.175-.4.074-.564.3-.197.683-.024.683.3 0 .46-.496.625-.757.253zm-5.14-.715c-.286-.286.004-.82.42-.77.3.034.36.34.15.66-.155.235-.397.284-.57.1zm-3.265 8.908c.02-.06-.028-.106-.106-.106s-.142.064-.142.142c0 .158.193.13.248-.035zm9.74-.012c.066-.107-.102-.214-.222-.14-.1.062-.034.223.1.223.043 0 .102-.038.13-.082zm-18.544 6.455c.047-.045.554-.186 1.127-.314a9.09 9.09 0 0 1 3.529-.099l.717.12-.94-.06c-1.463-.092-2.2-.047-3.307.203-1.128.255-1.252.27-1.125.15z" fill="#3da7f2"/><path d="M-115.144 118.272c.352-.268.62-.52.596-.56-.106-.17-.577-.054-.988.24l-2.122 1.4c-.143 0 .53-.5 1.65-1.223l1.058-.684-.132-.255c-.16-.307-.43-.387-1.083-.32-.825.085-1.7.562-3.594 1.96-.85.627-1.07.75-.784.433.222-.245.97-.783 2.196-1.58.93-.603.995-.663.672-.608-.197.034-.876.24-1.5.46l-1.2.35c-.14-.14 2.76-1.176 3.56-1.27.677-.08 1.076-.212 1.076-.358 0-.2-.2-.58-.306-.578-.247.004-1.42.3-2.07.505-.784.26-2.573 1.103-3.877 1.827l-.83.4c0-.065 1.287-.817 2.196-1.284 1.2-.615 2.37-1.078 3.36-1.326.518-.13.997-.3 1.066-.358.206-.202-.42-.262-1.547-.148a9 9 0 0 0-3.283.913c-.705.33-.874.386-.672.22.398-.33 1.354-.8 2.016-1 .32-.097 1.006-.204 1.524-.237 1.156-.075 1.537-.137 1.473-.24-.125-.202-3.33-.047-4.677.224-.308.062-.56.098-.56.08s.15-.097.333-.173c.2-.088.958-.184 2.04-.262l2.192-.182.486-.06-.338-.173c-.186-.095-.586-.206-.9-.245-.402-.052-.462-.075-.22-.083.182-.006.35-.043.376-.083s-.302-.3-.726-.605l-1.07-.8c-.394-.337-.957-1.5-1.243-2.567s-.393-2.778-.224-3.572c.195-.92-.146-2.242-.855-3.3-.243-.367-.3-.553-.294-.822.017-.3-.035-.408-.308-.7-.34-.375-.374-.46-.507-1.22a5.85 5.85 0 0 0-.317-1.015c-.365-.868-.525-1.873-.47-2.974.054-1.108.277-1.798.715-2.212.416-.393.62-.477 1.166-.477.87 0 1.855.386 2.935 1.152.9.638 1.222.965 1.9 1.934 1.2 1.7 1.35 1.8 2.307 1.5.318-.1.74-.182.937-.182s.94-.108 1.647-.24c1.168-.216 1.353-.23 1.972-.136l1.848.197c.713.06 1.476.182 1.966.322.838.238 1.208.285 1.384.176.06-.036.353-.435.657-.887.913-1.358 2.247-2.583 3.52-3.233.758-.387 1.413-.533 2.168-.486.497.032.605.073.875.335.5.496.698 1.06.75 2.262.053 1.263-.14 2.485-.515 3.28-.14.293-.282.7-.318.928-.082.493-.314.955-.624 1.244-.197.184-.23.274-.184.516.044.234 0 .372-.22.692-.727 1.056-1.137 2.3-1.04 3.126.194 1.665.183 1.817-.257 3.506l-.554 1.863c-.224.433-.818 1.023-1.547 1.536-.375.264-.754.56-.843.66-.16.18-.158.18.27.088.236-.05 1.176-.092 2.088-.1 1.438.001 1.8.032 2.72.23l1.113.28c.175.175-.223.137-1.346-.127-1.475-.347-2.055-.366-4.135-.138-1.222.134-1.752.27-1.885.486-.028.047.523.106 1.27.14 1.714.075 2.754.194 3.282.374.234.08.4.16.392.178s-.434-.046-.924-.143c-1.064-.2-3.1-.314-3.848-.196-.5.077-.504.086-.17.096.5.015 1.828.25 2.632.467.907.246 2.007.78 2.578 1.25.58.477.558.58-.028.132-1.107-.845-2.576-1.327-4.8-1.574-.646-.072-1.004-.077-1.113-.015-.146.082-.137.103.1.224.144.073.636.22 1.094.323 1.343.306 2.78.958 4.4 2 .873.558.723.558-.215 0-.904-.537-2.686-1.373-3.46-1.62a17.88 17.88 0 0 0-1.37-.358l-.788-.172-.14.215c-.2.306-.108.445.378.567 2 .5 5.088 1.666 5.288 2 .075.122.057.115-.588-.224-.923-.485-3.317-1.247-3.463-1.102-.024.024.434.332 1.015.685 1.225.744 1.525.958 1.448 1.034-.03.03-.655-.34-1.388-.82-1.446-.95-1.98-1.186-2.692-1.2-.408-.003-.5.03-.694.273-.128.152-.232.305-.232.34s.268.22.596.4c.662.387 1.885 1.24 2.093 1.46.172.18-.05.045-1.546-.95-1.056-.703-1.16-.752-1.375-.655l-.23.105.568.416c.876.642 1.596 1.3 2.136 1.953l.52.67c.014.04-.55-.498-1.255-1.197-1.24-1.23-1.628-1.515-2.218-1.633l-.28-.056.06.375c.06.37.057.374-.175.317-.2-.05-.25-.022-.332.197-.35.93-1.92 1.5-3.486 1.287-1.083-.154-1.82-.574-2.072-1.18-.082-.2-.148-.248-.285-.204-.163.052-.172.026-.115-.3.06-.36.056-.367-.192-.365-.523.004-1.004.344-2.366 1.67-2.856 2.753.254-.56 1.326-1.4zm5.566 1.388c.643-.17 1.055-.465 1.274-.914.1-.205.27-.43.378-.503.32-.213.075-.4-.63-.45-.333-.03-.943-.153-1.357-.275l-.752-.222-1.04.267c-1.38.355-1.892.523-1.892.623 0 .045.03.083.067.083s.166.153.286.336c.497.76.765.947 1.65 1.147.6.135 1.27.105 2.014-.1zm-2.9-2.25c.897-.166 1.596-.5 1.55-.74-.016-.082-.4-.437-.88-.788s-.94-.77-1.052-.932c-.22-.322-.26-.714-.096-.976.086-.137.048-.35-.203-1.134-.17-.53-.36-.983-.423-1.004s-.256.112-.43.295-.338.3-.367.28.038-.336.15-.682c.253-.787.182-1.007-.485-1.506-.37-.277-.574-.362-.966-.403-.273-.028-.664-.136-.868-.24-.45-.23-.906-.83-.906-1.2 0-.32-.156-.633-.277-.558-.05.03-.2-.012-.316-.093-.207-.135-.245-.136-.44-.008-.118.077-.27.14-.34.14-.2 0-.328.22-.43.794l-.096.545-.506.184c-.886.322-.828.25-.626.785l.176.47.34-.054c.268-.043.488.012 1.047.253.997.433 2.406 1.32 2.288 1.438-.065.065-.218.045-.5-.062-.223-.085-.486-.13-.583-.098a.54.54 0 0 1-.361-.041c-.158-.085-.183-.07-.183.103 0 .156-.024.176-.108.094-.17-.17-.34-.125-.343.094-.003.198-.006.198-.215-.04s-.213-.24-.267-.045c-.043.155.034.277.372.582.7.624 1.438 1.082 2.092 1.28.336.102.658.243.716.313a.35.35 0 0 0 .514.02c.084-.084.132-.084.215 0a.44.44 0 0 0 .27.108c.1 0 .23.08.316.18s.243.18.352.18c.24 0 .357.157.22.294-.054.054-.386.13-.738.167s-.66.088-.684.113-.02.144.01.265c.058.23.055.23 1.5.345.325.026.43.186.277.423-.07.108-.106.1-.228.008s-.153-.095-.197.073c-.037.142-.12.194-.3.194-.165 0-.26.047-.26.13 0 .183.145.25.333.153.3-.148.966-.275.997-.187.04.113.373.108.373-.006 0-.122.243-.114.32.01s-.125.26-.3.196c-.066-.025-.12-.005-.12.046s-.14.14-.314.196c-.37.122-.423.304-.067.236l1.053-.196zm-.85-1.115c0-.05.06-.1.134-.1s.134.04.134.1-.06.1-.134.1-.134-.04-.134-.1zm-.306-.95c-.066-.17.015-.33.13-.257.107.066.1.4.004.4-.044 0-.105-.064-.135-.143zm-2.325-.903c-.13-.13-.047-.2.206-.2.2 0 .253.033.214.134-.053.137-.313.183-.42.075zm-.687-2.888c0-.052-.123-.16-.275-.237-.173-.1-.264-.198-.247-.294.036-.2.338-.24.538-.088.184.14.25.62.094.674-.062.022-.112-.004-.112-.055zm-1.03-.792c-.452-.1-.56-.473-.14-.473s.723.152.723.356c0 .185-.168.22-.583.117zm1.434-.175c-.892-.2-1.48-.605-1.48-1.02 0-.236.048-.22.478.15a3.65 3.65 0 0 0 .86.515c.65.26.742.5.14.357zm-2.457-.868c-.2-.34-.247-.845-.068-.915.065-.025.227-.005.358.045.196.075.24.147.24.4 0 .36-.137.77-.26.77-.047 0-.17-.136-.27-.302zm10.98 7.752c-.026-.043-.17-.128-.32-.2-.332-.137-.34-.2-.038-.347.245-.112.802-.056.998.1.146.116.382.02.382-.153 0-.093-.087-.137-.27-.137s-.27-.045-.27-.136c0-.1-.06-.12-.224-.08-.203.05-.224.03-.224-.22 0-.26.02-.276.336-.275.185.001.574-.03.864-.07.434-.058.54-.107.603-.276.087-.236.106-.227-.762-.36-.34-.052-.656-.134-.705-.183-.13-.13.002-.283.24-.283a.47.47 0 0 0 .32-.134.46.46 0 0 1 .314-.134.47.47 0 0 0 .336-.202c.116-.175.216-.203.75-.2.803-.012 1.34-.257 2.465-1.125.8-.617.848-.672.667-.758-.15-.07-.226-.06-.324.045-.115.123-.132.12-.16-.025-.02-.1-.086-.148-.202-.118-.094.025-.194.008-.22-.037s-.127-.04-.234.017c-.12.064-.214.068-.27.01s-.196-.054-.396.007c-.233.07-.336.067-.418-.017-.158-.16.252-.467.962-.718.312-.1.655-.294.764-.408.247-.263.884-.444 1.342-.383.33.044.36.03.498-.26.235-.494.157-.662-.403-.875-.7-.263-.684-.255-.808-.9-.076-.4-.158-.604-.257-.633-.08-.023-.26-.1-.397-.17-.386-.197-.928-.004-1.053.377-.258.782-1.018 1.405-1.846 1.514-.362.047-.564.145-.936.45-.777.637-.87.988-.482 1.82.124.266.2.508.17.538s-.208-.117-.395-.327-.38-.38-.432-.38c-.172 0-.45.578-.642 1.33-.17.67-.176.76-.052.85.114.084.122.163.044.44-.126.453-.458.813-1.426 1.546-.476.36-.8.678-.8.77 0 .174.455.33 1.778.613.88.188 1.212.218 1.142.105zm-.948-.55c0-.05.06-.1.134-.1s.134.04.134.1-.06.1-.134.1-.134-.04-.134-.1zm.286-.633a.28.28 0 0 1 .157-.157c.067-.022.1.01.078.078a.28.28 0 0 1-.157.157c-.067.022-.1-.01-.078-.078zm.342-1.062c0-.1.058-.187.14-.187s.13.06.112.15c-.043.225-.253.256-.253.037zm3.227-2.965c0-.05.038-.1.084-.1s.1.04.14.1-.008.1-.084.1-.14-.04-.14-.1zm-.18-.756c0-.457.407-.8.677-.585.193.16.165.218-.226.477-.412.273-.45.282-.45.107zm.717-.753c0-.24.165-.35.58-.387.278-.024.363.002.386.12.035.176-.162.295-.63.38-.293.053-.336.04-.336-.112zm-1.343-.076c.003-.16.15-.277.492-.387.197-.064.593-.275.88-.47s.544-.33.57-.305.023.153-.01.28c-.07.28-.47.536-1.13.723l-.65.186c-.086.025-.156.013-.155-.027zm2.506-.796c-.16-.417-.077-.87.18-.997.202-.1.237-.087.386.15s.15.284.034.512a1.73 1.73 0 0 1-.317.42c-.184.166-.187.165-.282-.085zm-7.6 5.792a.64.64 0 0 1 .083.286c.002.207.102.198.415-.04l.287-.215c.016-.01-.02-.096-.078-.2-.168-.27.097-.685.6-.923.226-.1.395-.244.377-.3-.07-.215-.667-.33-1.147-.218-.346.08-.573.08-.968-.002-.7-.14-.957-.134-1.125.034-.206.206-.175.3.158.43.447.188.712.568.645.927-.05.26-.023.312.24.472l.295.18.074-.285c.057-.218.093-.254.155-.156zm-1-.298c0-.177-.32-.494-.4-.405-.04.04.298.607.363.607.025 0 .046-.1.046-.202zm2.387-.398c-.1-.1-.415.175-.413.357.003.2.013.187.23-.058.124-.14.207-.276.184-.298zm-6.9-.47c-.032-.053-.102-.096-.154-.096-.06 0-.053.05.018.137.123.148.233.115.136-.04zm11.224-.08c.022-.065-.02-.086-.106-.052-.078.03-.142.094-.142.142 0 .118.204.044.248-.1zm-7.028-1.54c.105 0 .147-.08.147-.282v-.282l.366.416c.34.387.396.416.8.416s.457-.026.854-.47c.42-.47.42-.47.368-.18-.044.244-.026.3.114.3a.25.25 0 0 1 .22.134c.096.25.212.137.266-.26.03-.217.212-.8.404-1.277s.418-1.226.5-1.645c.2-.97.465-1.813.68-2.085.092-.117.463-.35.823-.515.592-.273.754-.306 1.65-.34.87-.033 1.047-.014 1.426.153.243.108.5.167.608.136s.27-.004.388.058c.167.1.263.1.447.007.32-.146.428-.036.613.622.092.33.212.562.303.594a.83.83 0 0 1 .295.232c.192.238.306.15.427-.333.205-.816.027-1.375-.404-1.267-.174.044-.232.01-.304-.178-.125-.327-.113-.372.108-.43.186-.05.188-.06.045-.22-.214-.236-.2-.378.066-.378.273 0 .288.056-.6-2.227l-.682-2.02c0-.394.2-.645.746-.93.435-.228.45-.245.218-.273-.136-.016-.246-.064-.246-.106 0-.138.528-.523 1.07-.78.294-.14.536-.28.54-.3s-.43.06-.96.204l-1.175.316c-.423.1-.026-.323.773-.844s.873-.76.1-.34c-.7.376-.725.218-.082-.384.32-.3.557-.567.528-.596s-.26.087-.513.258-.46.268-.46.216c0-.123.548-.866.843-1.142.316-.295.293-.154-.044.27-.323.408-.267.44.2.116.532-.37.58-.218.123.4-.23.3-.402.58-.384.6s.212-.087.432-.232c.393-.26.624-.333.624-.196 0 .1-.466.572-.97.958-.725.558-.37.624.744.138.46-.2.85-.293.85-.202 0 .2-.334.5-.9.837-.343.204-.624.397-.624.43s.17.043.38.023c.325-.03.363-.018.27.096-.06.072-.437.308-.838.524-1.08.58-1.073.555-.523 1.933l.502 1.22c.023.038.12.027.215-.024.145-.077.155-.12.066-.264s-.076-.205.066-.363c.172-.2.172-.2-.05-.14-.122.03-.28.015-.35-.03-.107-.07-.086-.146.127-.453.403-.582.512-.568.266.035-.073.177.017.18.43.01.125-.052.157-.02.157.164 0 .126-.04.253-.1.284-.136.084-.106.224.047.224.242 0-.106.525-.458.694-.28.134-.307.176-.255.414a3.74 3.74 0 0 0 .176.542c.105.248.124.258.176.098.263-.815.547-1.42.8-1.727.388-.454.4-.847.076-1.46-.345-.633-.13-1.2.64-1.663.663-.406.822-.6 1.016-1.226.417-1.35.43-2.73.035-3.793-.148-.4-.195-.444-.582-.553-.64-.18-1.027-.038-1.752.643-.33.3-.743.637-.916.723A2.41 2.41 0 0 0-102.222 97c-.16.285-.375.612-.48.725-.156.17-.167.22-.063.284s.108.1-.002.234c-.087.106-.096.167-.03.2.06.02-.035.3-.25.725-.317.627-.343.735-.3 1.162.067.546-.035.608-.333.205-.232-.314-.7-.552-.937-.487-.146.038-.194-.022-.28-.343-.145-.544-.426-.876-.74-.876-.14 0-.5-.08-.823-.178-.835-.262-.882-.25-.88.2.001.2.123.724.27 1.143.213.603.266.897.256 1.4-.014.696.12 1.037.45 1.14.15.048.174.137.172.634l-.003.58-.28.001c-.155.001-.367.024-.47.052-.3.078-.42-.376-.437-1.532-.01-.678-.094-1.374-.27-2.23-.2-1.033-.235-1.274-.14-1.424.124-.2.014-.332-.277-.334a1 1 0 0 1-.291-.056c-.202-.078-.184.247.038.682s.22.448.016.448c-.1 0-.25-.1-.358-.224-.112-.13-.3-.224-.422-.224-.156 0-.252-.066-.308-.212-.1-.263-.5-.594-.734-.594-.2 0-.22.204-.03.36.075.062.125.16.112.216s.104.223.26.37c.212.2.298.373.342.7.076.56-.048.553-.618-.028l-.44-.45-.282.272c-.358.347-.538.36-.455.03a1.79 1.79 0 0 1 .239-.492 1.61 1.61 0 0 0 .228-.557c.068-.417-.152-.53-.87-.45l-.536.06v.352c0 .282-.057.404-.3.616-.252.23-.608.356-.608.215 0-.027.08-.206.18-.4.28-.55.248-.66-.187-.602-.45.06-.48.1-.356.324.116.216-.105 1.725-.33 2.25-.096.224-.13.596-.12 1.3.018 1.178-.137 1.713-.47 1.624a2.26 2.26 0 0 0-.478-.054c-.295-.001-.46-.207-.316-.394.043-.055.205-.4.36-.8.2-.488.282-.834.282-1.186 0-.37.084-.7.327-1.283.295-.7.427-1.45.283-1.595-.026-.026-.496.058-1.045.187-1.112.26-1.358.44-1.358.993 0 .27-.027.302-.246.304-.353.003-.976.308-1.1.54-.094.175-.12.182-.24.063-.104-.104-.112-.176-.037-.317.134-.25-.195-1.3-.5-1.585-.254-.235-.272-.315-.072-.315.12 0 .125-.024.034-.134s-.1-.162.003-.272.075-.178-.12-.383c-.13-.135-.284-.384-.342-.552-.14-.405-.443-.732-1.054-1.143-.276-.186-.56-.42-.632-.517-.604-.832-1.536-1.206-2.32-.932-.255.1-.305.172-.52.858-.22.706-.233.84-.186 1.896.055 1.23.232 1.995.54 2.33.105.114.403.33.66.476.893.5 1.032.965.565 1.84-.148.277-.27.562-.27.633s.14.3.3.5a4.46 4.46 0 0 1 .814 1.697c.05.28.083.322.173.224.166-.18.33-.92.212-.96-.052-.018-.232-.153-.4-.3-.313-.275-.42-.58-.17-.485.118.045.118.018-.006-.223-.16-.3-.108-.574.096-.492l.282.114c.152.06.15-.046-.014-.44-.116-.28.083-.16.344.207.287.406.262.622-.073.622-.263 0-.288.07-.08.223.17.125.092.314-.13.317-.13.001-.133.013-.017.088.3.2.42.094.807-.784.417-.946.53-1.498.363-1.805-.06-.112-.42-.34-.85-.54-.933-.43-1.062-.588-.434-.528l.45.043-.237-.198c-.13-.1-.45-.328-.7-.487s-.513-.366-.563-.46c-.08-.15-.06-.17.17-.17.144 0 .486.103.762.23s.653.25.84.276l.34.047-.286-.254-.74-.642c-.25-.214-.453-.445-.453-.515 0-.178.1-.16.467.097.313.212.518.282.518.175 0-.027-.16-.262-.358-.524s-.358-.5-.358-.534c0-.124.218-.05.507.17.36.274.4.145.063-.282-.13-.17-.217-.33-.194-.353.073-.073 1.058 1.18 1.058 1.344 0 .087-.165.05-.285-.065-.235-.225-.6-.428-.6-.33 0 .054.232.343.515.64.562.592.494.63-.353.206-.545-.273-.466-.088.132.3.673.447 1.14.814 1.14.898s-.467-.012-1.517-.316l-.78-.193c-.014.014.3.214.674.444l.813.556c.118.143.12.142-.265.253-.08.024.037.12.298.244.238.113.498.306.578.428.135.206.135.266-.003.8-.082.3-.432 1.298-.78 2.192l-.63 1.708c0 .045.078.082.174.082.242 0 .332.184.153.315-.193.14-.188.192.03.25.157.04.166.08.082.322-.074.212-.165.288-.398.332-.476.1-.533.217-.408.917.147.823.212.915.475.678a1.39 1.39 0 0 1 .352-.237c.083-.03.17-.2.205-.394.137-.785.155-.8.975-.8.44-.006.866-.066 1.06-.148 1.168-.497 3.38-.033 4.014.843.177.244.305.617.45 1.312.262 1.25.516 2.133.745 2.582a2.15 2.15 0 0 1 .2.812c.02.564.118.76.274.548.06-.08.174-.148.255-.148zm-.662-3.876c-.001-.1-.098-.474-.215-.807l-.214-.605h.255c.485 0 .707.752.397 1.35-.164.317-.22.333-.224.063zm3.82-.045c-.16-.806-.162-.924-.018-1.143a.45.45 0 0 1 .413-.224c.147 0 .267.013.267.03s-.1.278-.224.58-.224.653-.224.777c0 .303-.153.288-.214-.02zm-5.27-1.73c-.083-.05-.242-.215-.352-.37-.17-.237-.205-.423-.23-1.202-.02-.566.004-.943.06-.978.05-.03.067-.155.037-.275-.106-.423.112-.212.4.386.27.56.3.66.264 1.367-.015.42.005.853.045.964.08.217.015.248-.225.108zm6.793-.924c.008-.945.024-1.028.302-1.56.298-.57.5-.74.4-.336-.036.143-.018.224.05.224.077 0 .1.253.053.947-.055 1.007-.145 1.248-.576 1.555l-.235.167zm-3.98.637c.016-.1.07-.202.118-.202s.102.1.118.202c.02.14-.017.202-.118.202s-.138-.063-.118-.202zm-.823-.3c0-.123.04-.224.1-.224s.1.1.1.224-.04.224-.1.224-.1-.1-.1-.224zm-1.03-.067c.027-.1-.094-.685-.267-1.276l-.315-1.3.002-.226.165.214c.1.118.355.602.588 1.076l.423.862-.183.426c-.2.443-.5.616-.412.224zm3.808.022c0-.116.045-.18.112-.157.062.02.112.1.112.157s-.05.136-.112.157c-.067.022-.112-.04-.112-.157zm.86-.24l-.172-.418.53-1.034c.292-.57.578-1.048.636-1.065.114-.034.078.127-.364 1.625-.13.437-.234.9-.234 1.053 0 .393-.202.3-.396-.16zm6.305-.022c-.285-.285-.367-.694-.12-.6.078.03.3.054.493.054.397 0 .44.107.214.542-.17.33-.26.33-.587.002zm-17.46-.1c-.194-.558-.105-.732.26-.504.14.087.2.087.286 0 .195-.195.357-.13.326.134-.018.16-.135.315-.333.448-.392.263-.42.26-.538-.078zm7.852.22a1.96 1.96 0 0 1-.105-.363c-.054-.253-.04-.3.12-.3.216 0 .253.05.295.402.023.194-.01.275-.117.296-.082.016-.168-.004-.2-.043zm2.016-.045c-.155-.155-.132-.38.056-.55.33-.298.494-.123.344.367-.094.306-.22.364-.4.184zm-5.933-.564c-.123-.067-.456-.148-.74-.182-.573-.067-.64-.148-.258-.307.413-.17.906-.088 1.1.188.233.313.177.46-.114.3zm9.946-.13c.144-.27.385-.363.933-.363.835 0 .716.284-.168.4l-.655.1c-.183.038-.195.024-.1-.137zm-6.3-.154c-.084-.084-.075-.388.012-.388.112 0 .287.202.287.332 0 .122-.196.16-.3.057zm1.7-.216c-.06-.307.077-.65.24-.596.227.075.17.872-.064.872-.067 0-.146-.124-.177-.276zm.93.102c0-.2.225-.348.337-.235.073.073-.085.34-.23.4-.06.02-.106-.05-.106-.154zm-1.935-.303c-.278-.24-.258-.564.047-.754.152-.094.194-.086.27.056.05.092.116.333.15.537.07.442-.08.494-.465.16zm9.732.028c-.076-.14-.067-.192.037-.232.185-.07.322.03.322.24 0 .228-.236.224-.36-.007zm-18.356-.066c.016-.086.12-.17.23-.185.22-.03.26.068.093.235-.16.16-.358.13-.324-.05zm7.512-.732c0-.052-.156-.174-.347-.27-.452-.23-.518-.4-.22-.605.22-.145.238-.143.356.017.113.153.124.137.124-.192 0-.198.027-.387.06-.42.1-.1.3.14.3.395 0 .14.08.328.176.42.256.24.13.683-.205.722-.132.016-.24-.014-.24-.065zm3.235-.202c-.08-.226-.073-.313.032-.428.072-.08.183-.302.247-.494.138-.414.392-.568.32-.193-.025.13-.012.26.028.283s.05.115.02.2c-.042.123-.025.118.084-.022.118-.15.17-.16.37-.07.294.134.294.24.004.442l-.483.363c-.345.275-.506.253-.623-.082zm-.85-.858c-.12-.12-.042-.544.128-.698.268-.242.407-.065.272.344-.1.3-.287.467-.4.354zm-1.308-.774c0-.12-.06-.24-.134-.268-.084-.032-.134-.17-.134-.368 0-.222-.04-.316-.134-.316-.074 0-.134-.07-.133-.157.002-.285.14-.395.456-.365l.306.03-.03.432c-.027.37-.006.438.15.48.188.05.348.457.223.57a1.01 1.01 0 0 1-.32.123c-.217.05-.246.032-.246-.158zm-1.57-.24c-.068-.214.066-.408.218-.314.136.084.122.277-.03.402-.102.084-.14.067-.188-.088zm4.53-.036c-.125-.15-.053-.318.136-.318.078 0 .13.1.13.224 0 .252-.104.288-.266.094zm-7.23-.92c.08-.58.195-.67.466-.357s.272.365-.018.593c-.398.313-.514.25-.447-.236zm4.783.363c-.024-.042-.013-.16.027-.265.055-.145.178-.203.53-.25.526-.07.633-.032.57.204-.027.103-.155.2-.328.223l-.52.1c-.13.03-.256.02-.28-.022zm5.02-.13c-.136-.1-.246-.225-.246-.275 0-.127.354-.6.447-.6.066 0 .27.75.27 1 0 .138-.206.093-.47-.104zm-7.174-.55c-.083-.062-.175-.24-.206-.395-.047-.237-.02-.3.156-.392a2.85 2.85 0 0 0 .501-.383c.16-.15.318-.246.352-.212.055.055-.106 1.085-.217 1.382-.023.062-.13.112-.24.112s-.265-.05-.348-.112zm4.33-.224c-.163-.565-.212-1.157-.102-1.225.058-.036.144.034.205.167.058.126.158.23.223.23s.12.04.12.1.078.1.174.1c.234 0 .284.106.216.45-.043.216-.132.32-.355.412-.392.164-.37.173-.48-.212zm-8.022-.1c-.076-.122.114-.45.26-.45.066 0 .167.057.225.126.083.1.063.156-.1.27-.236.165-.3.176-.387.055zm6.14-.086c-.127-.237-.117-.842.015-.974.084-.084.193-.025.493.27.438.43.466.542.186.74-.272.2-.582.175-.694-.034zm5.725.03c-.102-.123-.094-.163.053-.27.23-.17.353-.114.387.175.022.187-.01.24-.146.24a.44.44 0 0 1-.294-.144zm-11.016-.797c0-.15.04-.225.112-.202.062.02.112.1.112.202s-.05.18-.112.202c-.07.024-.112-.05-.112-.202zm10.397-.007c0-.28.2-.25.253.037.02.13-.02.195-.112.195s-.14-.08-.14-.23zm-9.482-.055c-.06-.06-.108-.22-.108-.36 0-.356.348-.514.67-.304.263.173.282.296.088.573-.152.217-.478.263-.65.092zm2.85-.154c0-.2.043-.276.14-.276s.132.07.112.24c-.04.35-.252.38-.252.037zm5.338.062c-.192-.274-.175-.4.074-.564.3-.197.683-.024.683.3 0 .46-.496.625-.757.253zm-5.14-.715c-.286-.286.004-.82.42-.77.3.034.36.34.15.66-.155.235-.397.284-.57.1zm-2.457 10.084c.324-.24.344-.48.075-.906-.294-.465-.552-.537-.674-.188-.072.207-.144.26-.357.26-.423 0-.54-.085-.642-.457-.082-.303-.128-.35-.352-.35-.416 0-.542.086-.542.372 0 .547.467 1.156 1.088 1.42.333.14 1.126.056 1.402-.15zm9.03.072c.447-.203.813-.626.936-1.08.137-.507.055-.633-.4-.633-.357 0-.394.02-.394.217 0 .128-.097.294-.235.403-.408.32-.84.2-.84-.235 0-.118-.054-.206-.126-.206-.143 0-.532.435-.726.8-.116.224-.113.27.026.435.4.463 1.126.584 1.772.3zm-9.838-1.25c.02-.06-.028-.106-.106-.106s-.142.064-.142.142c0 .158.193.13.248-.035zm9.74-.012c.066-.107-.102-.214-.222-.14-.1.062-.034.223.1.223.043 0 .102-.038.13-.082zm-18.544 6.455c.047-.045.554-.186 1.127-.314a9.09 9.09 0 0 1 3.529-.099l.717.12-.94-.06c-1.463-.092-2.2-.047-3.307.203-1.128.255-1.252.27-1.125.15z"/></g><path d="M460.966-142.093h198.13" fill="none" stroke="#3498db" class="S T"/><g transform="matrix(2.045985 0 0 2.045985 409.47071 -588.73786)"><use transform="matrix(.580797 0 0 .580797 -551.10051 286.38243)" xlink:href="#A" class="M"/><use xlink:href="#H" class="O"/><use xlink:href="#I" fill="#ccc"/><use transform="matrix(.580797 0 0 .580797 -551.10051 286.38243)" xlink:href="#B" fill="none" class="L P"/><g transform="matrix(.041403 -.019802 0 .041403 21.900407 40.298733)" fill="#999"><use xlink:href="#C"/><use xlink:href="#D"/><use xlink:href="#E"/><use xlink:href="#F"/><use xlink:href="#G"/></g><g transform="matrix(.102895 .043097 -.00768 .121864 -15.728015 27.013922)"><circle cy="126.243" cx="129.757" r="126.243" class="Q"/><g class="N"><use xlink:href="#J" opacity=".1"/><use xlink:href="#K"/></g><use xlink:href="#L" class="R"/></g><g transform="translate(0 89.958)"><use xlink:href="#A" transform="matrix(.580797 0 0 .580797 -551.10051 286.38243)" class="M"/><use xlink:href="#H" class="O"/><use xlink:href="#I" fill="#ccc"/><use xlink:href="#B" transform="matrix(.580797 0 0 .580797 -551.10051 286.38243)" fill="none" class="L P"/><g transform="matrix(.041403 -.019802 0 .041403 21.900407 40.298733)" fill="#999"><use xlink:href="#C"/><use xlink:href="#D"/><use xlink:href="#E"/><use xlink:href="#F"/><use xlink:href="#G"/></g><g transform="matrix(.102895 .043097 -.00768 .121864 -15.728015 27.013922)"><circle r="126.243" cx="129.757" cy="126.243" class="Q"/><g class="N"><use xlink:href="#J" opacity=".1"/><use xlink:href="#K"/></g><use xlink:href="#L" class="R"/></g></g><g transform="translate(0 179.917)"><use transform="matrix(.580797 0 0 .580797 -551.10051 286.38243)" xlink:href="#A" class="M"/><use xlink:href="#H" class="O"/><use xlink:href="#I" fill="#ccc"/><use transform="matrix(.580797 0 0 .580797 -551.10051 286.38243)" xlink:href="#B" fill="none" class="L P"/><g transform="matrix(.041403 -.019802 0 .041403 21.900407 40.298733)" fill="#999"><use xlink:href="#C"/><use xlink:href="#D"/><use xlink:href="#E"/><use xlink:href="#F"/><use xlink:href="#G"/></g><g transform="matrix(.102895 .043097 -.00768 .121864 -15.728015 27.013922)"><circle cy="126.243" cx="129.757" r="126.243" class="Q"/><g class="N"><use xlink:href="#J" opacity=".1"/><use xlink:href="#K"/></g><use xlink:href="#L" class="R"/></g></g></g><path d="M667.924-587.113c-25.018 0-45.23 8.5-45.23 18.87v486.357c0 10.378 20.212 18.87 45.23 18.87s45.23-8.5 45.23-18.87v-486.357c0-10.378-20.212-18.87-45.23-18.87z" stroke-width="1.785" class="L M"/><path d="M667.924-549.375c-25.018 0-45.23-8.5-45.23-18.87v486.357c0 10.378 20.212 18.87 45.23 18.87s45.23-8.5 45.23-18.87v-486.357c0 10.378-20.212 18.87-45.23 18.87z" opacity=".1"/><path d="M693.264-330.9h-18.36a1.67 1.67 0 0 1-1.67-1.67v-19.12a2.569 2.569 0 0 0-2.566-2.569h-6.552a2.569 2.569 0 0 0-2.566 2.566v19.02a1.79 1.79 0 0 1-1.785 1.794l-6.017.03a1.79 1.79 0 0 1-1.802-1.796l.038-19.04a2.569 2.569 0 0 0-2.564-2.573h-6.527a2.569 2.569 0 0 0-2.588 2.566v53.582a2.274 2.274 0 0 0 2.278 2.278h50.683a2.274 2.274 0 0 0 2.278-2.278v-30.5a2.274 2.274 0 0 0-2.278-2.278zm-8.6 20.117a2.99 2.99 0 0 1-2.988 2.988h-5.18a2.99 2.99 0 0 1-2.988-2.988v-5.18a2.99 2.99 0 0 1 2.988-2.988h5.18a2.99 2.99 0 0 1 2.988 2.988z" fill="#f60"/><g transform="matrix(2.045985 0 0 2.045985 552.79425 -573.05217)"><g class="L N U V"><circle cx="-328.561" cy="108.629" r=".342"/><circle cx="-324.865" cy="108.629" r=".342"/><circle cx="-321.169" cy="108.629" r=".342"/></g><path d="M-274.607 103.75h-53.905c-2.548 0-4.62 2.072-4.62 4.62v43.638c0 2.548 2.072 4.62 4.62 4.62h53.905c2.548 0 4.62-2.072 4.62-4.62V108.37c0-2.547-2.072-4.62-4.62-4.62zm-53.905 1.54h53.905c1.7 0 3.08 1.382 3.08 3.08v3.358h-60.066v-3.358c0-1.698 1.382-3.08 3.08-3.08zm53.905 49.798h-53.905c-1.7 0-3.08-1.382-3.08-3.08v-38.74h60.066v38.74c0 1.7-1.382 3.08-3.08 3.08zm-64.686-21.048V95.3h60.066v5.37h1.54V90.403c0-2.548-2.072-4.62-4.62-4.62h-53.905c-2.548 0-4.62 2.072-4.62 4.62v43.638c0 2.548 2.072 4.62 4.62 4.62v-1.54c-1.7 0-3.08-1.382-3.08-3.08zm0-43.638c0-1.7 1.382-3.08 3.08-3.08h53.905c1.7 0 3.08 1.382 3.08 3.08v3.358h-60.066z" fill="#4d4d4d"/><g class="L N U V"><circle r=".342" cy="90.66" cx="-336.262"/><circle r=".342" cy="90.66" cx="-332.566"/><circle r=".342" cy="90.66" cx="-328.869"/></g><path d="M-298.27 122.614l-3.3 5.7-3.3-5.7h-10.96l14.25 24.678 14.25-24.678z" fill="#41b883"/><path d="M-298.27 122.614l-3.3 5.7-3.3-5.7h-5.26l8.55 14.807 8.55-14.807z" fill="#34495e"/></g></g></svg>