<svg xmlns="http://www.w3.org/2000/svg" width="1200" height="1200" viewBox="0 0 317.5 317.5"><defs><linearGradient id="A" x1="158.399" y1="155.114" x2="158.399" y2="228.544" gradientUnits="userSpaceOnUse"><stop offset="0" stop-color="#37b1d9"/><stop offset="1" stop-color="#22a0c8"/></linearGradient></defs><path d="M-.001 0h317.5v317.5H0z" fill="#fff"/><path d="M317.5 154.985c-3.36 2.914-9.255 4.842-15.923 4.842-6.535 0-12.483-1.898-15.897-4.723l-.1.075.048-.186c-2.6 2.247-6.7 3.903-11.488 4.546a34.63 34.63 0 0 1-4.446.287c-6.52 0-12.402-1.92-15.82-4.734l.022-.083c-1.208 1.048-2.75 1.966-4.53 2.715l-.3.126c-.117.047-.24.1-.358.137-3.104 1.17-6.876 1.84-10.913 1.84a33.56 33.56 0 0 1-3.137-.149l-.315-.03-.394-.047a31.83 31.83 0 0 1-1.228-.172l-.3-.047-.534-.095-.785-.158-.316-.07-.9-.214-.985-.278-.102-.03c-2.032-.62-3.848-1.434-5.345-2.395a13.94 13.94 0 0 1-1.395-1.014.1.1 0 0 1-.064-.028l.022-.083c-1.294 1.122-2.965 2.097-4.9 2.872-3.16 1.237-7.036 1.946-11.2 1.946a33.73 33.73 0 0 1-2.443-.09c-5.47-.435-10.28-2.204-13.23-4.647l.008-.044c-1.12.97-2.524 1.828-4.14 2.545l-.67.283c-3.166 1.25-7.07 1.968-11.253 1.968a33.55 33.55 0 0 1-3.137-.149l-.315-.03-.394-.047c-3.752-.448-7.135-1.523-9.736-3.002-.024-.014-.05-.027-.074-.04-.104-.06-.2-.123-.302-.184a15.64 15.64 0 0 1-1.166-.778l.004.017c-.24-.173-.468-.35-.687-.53l.008-.044c-1.1.962-2.497 1.815-4.097 2.528-3.284 1.434-7.46 2.27-11.967 2.27a32.5 32.5 0 0 1-6.187-.586l-.643-.132c-.007-.001-.014-.003-.02-.004-3.6-.8-6.704-2.218-8.838-3.975l.022-.083c-1.208 1.048-2.75 1.966-4.53 2.715l-.3.126c-.117.047-.24.1-.358.137-3.104 1.17-6.876 1.84-10.913 1.84a33.53 33.53 0 0 1-3.137-.149l-.315-.03-.394-.047a31.83 31.83 0 0 1-1.228-.172l-.3-.047-.534-.095-.785-.158-.316-.07-.9-.214-.987-.278-.102-.03c-2.032-.62-3.848-1.434-5.345-2.395a13.94 13.94 0 0 1-1.395-1.014c-.03-.002-.048-.015-.064-.028l.02-.083c-1.294 1.122-2.965 2.097-4.9 2.872-3.16 1.237-7.037 1.946-11.192 1.946a33.73 33.73 0 0 1-2.443-.09c-5.47-.435-10.28-2.204-13.23-4.647a12.71 12.71 0 0 1-.665.534c-.2.143-.393.28-.596.42-.046.03-.1.064-.135.094-.176.115-.36.226-.546.337l-.24.147c-.165.095-.338.185-.5.276l-.323.174a19.81 19.81 0 0 1-.663.318l-.208.1a21.69 21.69 0 0 1-.919.387c-3.166 1.25-7.07 1.968-11.253 1.968-1.07 0-2.115-.053-3.137-.15l-.315-.03-.394-.047c-3.752-.448-7.135-1.523-9.736-3.002-.024-.014-.05-.026-.074-.04-.104-.06-.2-.123-.302-.184a15.75 15.75 0 0 1-1.166-.778l.004.017c-.24-.173-.468-.35-.687-.53-3.387 2.914-9.362 4.753-16.056 4.753-6.16 0-11.656-1.66-15.124-4.23v161.798l317.5-.434z" fill="url(#A)"/><g transform="matrix(.075074 0 0 .075074 42.727013 79.870792)" fill="#ff5722"><circle cx="54.674" cy="256" r="53.333"/><circle cx="406.61" cy="458.667" r="53.333"/><circle cx="406.61" cy="53.333" r="53.333"/><path d="M262.098 147.67c2.383 4.13 7.216 6.176 11.84 5.013 55.924-14.4 113.1 18.592 128.597 74.22 1.298 4.593 5.5 7.764 10.26 7.765h87.168a10.67 10.67 0 0 0 10.673-10.661 10.76 10.76 0 0 0-.134-1.691 212.78 212.78 0 0 0-48.512-104.98 10.67 10.67 0 0 0-13.995-1.877A74.27 74.27 0 0 1 406.673 128c-40.78-.145-73.96-32.87-74.667-73.643a10.67 10.67 0 0 0-9.536-10.453c-33.448-3.504-67.25.925-98.667 12.928a10.67 10.67 0 0 0-6.143 13.778 10.66 10.66 0 0 0 .724 1.518zm237.888 129.663h-87.168c-4.772.001-8.963 3.173-10.26 7.765-15.5 55.642-72.67 88.643-128.597 74.22-4.624-1.163-9.457.884-11.84 5.013l-43.605 75.54a10.67 10.67 0 0 0 3.9 14.572 10.66 10.66 0 0 0 1.518.724c31.384 12.127 65.217 16.56 98.667 12.928a10.67 10.67 0 0 0 9.536-10.453c.472-41.14 34.205-74.1 75.345-73.637a74.49 74.49 0 0 1 40.516 12.538 10.67 10.67 0 0 0 14.016-1.941 212.78 212.78 0 0 0 48.512-104.917 10.67 10.67 0 0 0-8.847-12.218c-.56-.1-1.126-.134-1.692-.134zM223.548 330.26c-40.254-41.333-40.254-107.2 0-148.544a10.67 10.67 0 0 0 1.579-12.8l-43.54-75.37a10.67 10.67 0 0 0-7.317-5.163 11.13 11.13 0 0 0-8.66 2.133 213.5 213.5 0 0 0-67.243 96.32 10.67 10.67 0 0 0 3.307 11.712c31.735 25.306 36.947 71.546 11.64 103.28a73.49 73.49 0 0 1-11.641 11.641 10.67 10.67 0 0 0-3.307 11.712 213.51 213.51 0 0 0 67.221 96.235 10.73 10.73 0 0 0 6.74 2.4 11.65 11.65 0 0 0 1.92-.17c3.078-.564 5.754-2.452 7.317-5.163l43.54-75.413a10.68 10.68 0 0 0-1.557-12.798z"/></g><path d="M40.704 130.26a3.02 3.02 0 0 0-1.874-.648c-1.663 0-3.016 1.34-3.058 3.013a4.58 4.58 0 0 0-2.939 4.288c0 2.32 1.704 4.235 3.916 4.537v.042l15.666-.007c2.184-.13 3.916-1.96 3.916-4.2 0-2.16-1.6-3.942-3.684-4.18l.012-.398c0-3.35-2.795-6.064-6.242-6.064-2.55 0-4.745 1.487-5.714 3.62" fill="#9bdcfd"/><g fill-rule="evenodd"><path d="M169.713 127.67h12.9v13.197h6.527c3.015 0 6.115-.537 8.97-1.504 1.403-.476 2.977-1.138 4.36-1.97-1.822-2.38-2.753-5.383-3.026-8.345-.373-4.028.44-9.27 3.166-12.424l1.357-1.57 1.617 1.3c4.07 3.27 7.496 7.842 8.1 13.052 4.903-1.442 10.658-1.1 14.98 1.393l1.773 1.023-.933 1.82c-3.655 7.132-11.295 9.342-18.765 8.95-11.177 27.84-35.512 41.02-65.017 41.02-15.244 0-29.228-5.698-37.193-19.223l-.13-.22-1.16-2.36c-2.692-5.953-3.586-12.475-2.98-18.99l.183-1.952h11.04V127.67h12.91v-12.9h25.82v-12.9h15.492v25.82" fill="#364548"/><path d="M211.54 132.552c.865-6.728-4.17-12.012-7.29-14.52-3.598 4.16-4.157 15.062 1.488 19.652-3.15 2.798-9.788 5.334-16.585 5.334h-82.738c-.66 7.095.585 13.63 3.43 19.22l.94 1.722a31.92 31.92 0 0 0 1.951 2.927c3.402.22 6.535.29 9.407.23h.001c5.638-.124 10.24-.8 13.727-2 .512-.16 1.06.117 1.235.624s-.083 1.062-.584 1.254c-.464.16-.947.312-1.446.455h-.002c-2.746.784-5.7 1.312-9.488 1.546.226.004-.235.034-.236.034-.13.008-.292.027-.422.034-1.495.084-3.11.102-4.758.102a106.4 106.4 0 0 1-5.568-.135l-.05.034c6.894 7.748 17.673 12.396 31.185 12.396 28.595 0 52.85-12.674 63.59-41.135 7.62.782 14.943-1.162 18.274-7.664-5.306-3.062-12.13-2.086-16.06-.11" fill="#22a0c8"/><path d="M211.54 132.552c.865-6.728-4.17-12.012-7.29-14.52-3.598 4.16-4.157 15.062 1.488 19.652-3.15 2.798-9.788 5.334-16.585 5.334h-77.84c-.338 10.866 3.695 19.114 10.83 24.1h.002c5.638-.124 10.24-.8 13.727-2 .512-.16 1.06.117 1.235.624s-.083 1.062-.584 1.254c-.464.16-.947.312-1.446.455h-.002c-2.746.784-5.943 1.38-9.74 1.614-.001 0-.092-.087-.093-.087 9.732 4.992 23.843 4.974 40.02-1.24 18.14-6.97 35.02-20.246 46.8-35.432a14.17 14.17 0 0 0-.518.246" fill="#37b1d9"/><path d="M117.642 129.82h11.19V141h-11.19zm.932.933h.883v9.324h-.883zm1.66 0h.92v9.324h-.918v-9.324zm1.695 0h.92v9.324h-.92zm1.693 0h.918v9.324h-.918zm1.695 0h.918v9.324h-.918zm1.695 0h.884v9.324h-.884zm3.537-13.843h11.2V128.1h-11.2V116.9zm.933.933h.882v9.324h-.882zm1.66 0h.918v9.324h-.918v-9.324zm1.695 0h.918v9.324h-.918zm1.695 0h.918v9.324h-.918zm1.695 0h.92v9.324h-.92zm1.695 0h.884v9.324h-.884z" fill="#23a3c2"/><path d="M130.55 129.82h11.2V141h-11.2v-11.19zm.933.933h.882v9.324h-.882zm1.66 0h.918v9.324h-.918v-9.324zm1.695 0h.918v9.324h-.918zm1.695 0h.918v9.324h-.918zm1.695 0h.92v9.324h-.92zm1.695 0h.884v9.324h-.884z" fill="#34bbde"/><path d="M143.462 129.82h11.19V141h-11.19zm.932.933h.885v9.324h-.882zm1.66 0h.918v9.324h-.918zm1.695 0h.918v9.324h-.918zm1.695 0h.918v9.324h-.918zm1.695 0h.92v9.324h-.92zm1.695 0h.883v9.324h-.883z" fill="#23a3c2"/><path d="M143.462 116.91h11.19V128.1h-11.19zm.932.933h.885v9.324h-.882zm1.66 0h.918v9.324h-.918zm1.695 0h.918v9.324h-.918zm1.695 0h.918v9.324h-.918zm1.695 0h.92v9.324h-.92zm1.695 0h.883v9.324h-.883zm3.537 11.977h11.19V141h-11.19zm.933.933h.882v9.324h-.882zm1.66 0h.918v9.324h-.918zm1.695 0h.918v9.324h-.918zm1.695 0h.916v9.324h-.92zm1.695 0h.92v9.324h-.92zm1.695 0h.883v9.324h-.883z" fill="#34bbde"/><path d="M156.372 116.91h11.19V128.1h-11.19zm.933.933h.882v9.324h-.882zm1.66 0h.918v9.324h-.918zm1.695 0h.918v9.324h-.918zm1.695 0h.916v9.324h-.92zm1.695 0h.92v9.324h-.92zm1.695 0h.883v9.324h-.883z" fill="#23a3c2"/><path d="M156.372 104h11.19v11.2h-11.19zm.933.932h.882v9.325h-.882v-9.325zm1.66 0h.918v9.325h-.918v-9.325zm1.695 0h.918v9.325h-.918v-9.325zm1.695 0h.916v9.325h-.92v-9.325zm1.695 0h.92v9.325h-.92v-9.325zm1.695 0h.883v9.325h-.883v-9.325z" fill="#34bbde"/><path d="M169.282 129.82h11.19V141h-11.19zm.93.933h.884v9.324h-.883v-9.324zm1.66 0h.92v9.324h-.918v-9.324zm1.693 0h.92v9.324h-.92zm1.695 0h.92v9.324h-.92zm1.693 0h.918v9.324h-.918zm1.695 0h.883v9.324h-.883z" fill="#23a3c2"/><path d="M141.04 159.15a3.09 3.09 0 0 1 2.707 4.643 3.09 3.09 0 0 1-5.754-1.557 3.09 3.09 0 0 1 3.046-3.086" fill="#d3ecec"/><path d="M141.04 160.026a2.2 2.2 0 0 1 .8.149c-.796.462-.47 1.68.45 1.683a.9.9 0 0 0 .792-.469c.838 2.02-1.45 3.9-3.268 2.686s-.96-4.048 1.226-4.05" fill="#364548"/><path d="M149.245 181.395c-7.645-3.625-11.84-8.56-14.175-13.942-2.84.8-6.253 1.328-10.22 1.55-1.494.084-3.066.126-4.714.126-1.902 0-3.905-.056-6.01-.168 7.01 7.007 15.635 12.4 31.604 12.5a92.99 92.99 0 0 0 3.513-.067" fill="#bdd9d7"/><path d="M137.91 172.42c-1.058-1.436-2.083-3.24-2.838-4.968-2.84.81-6.254 1.33-10.22 1.553 2.725 1.48 6.62 2.85 13.06 3.413" fill="#d3ecec"/><path d="M108.273 200.15v-9.247c0-1.215.76-2.19 2.018-2.19h.348c1.258 0 2.013.977 2.013 2.19v19.47c0 4.747-2.346 8.525-6.433 10.932-1.872 1.11-4.01 1.692-6.186 1.687h-.87c-4.748 0-8.52-2.347-10.932-6.432-1.11-1.872-1.694-4-1.686-6.187v-.868c0-4.75 2.347-8.525 6.43-10.935a12.04 12.04 0 0 1 6.188-1.687h.87c3.214 0 5.94 1.246 8.24 3.27zm-17.347 9.787c0 3.43 1.662 6.008 4.667 7.653 1.215.665 2.534 1.022 3.92 1.022 3.366 0 5.863-1.588 7.585-4.44.8-1.327 1.174-2.78 1.174-4.322 0-2.973-1.408-5.293-3.803-7.016a8.18 8.18 0 0 0-4.871-1.568c-3.67 0-6.3 1.854-7.894 5.146-.534 1.113-.78 2.295-.78 3.527zm36.92-13.056h.607c5.074 0 8.933 2.46 11.38 6.89.978 1.772 1.5 3.706 1.5 5.732v.868c0 4.747-2.34 8.53-6.435 10.932-1.895 1.112-3.988 1.686-6.185 1.686h-.868c-4.748 0-8.52-2.347-10.932-6.432a12.05 12.05 0 0 1-1.688-6.187v-.868c0-4.75 2.356-8.513 6.43-10.934a11.98 11.98 0 0 1 6.19-1.688zm-8.24 13.056c0 3.33 1.633 5.778 4.445 7.5 1.323.808 2.774 1.175 4.317 1.175 3.29 0 5.72-1.668 7.413-4.444.807-1.324 1.172-2.778 1.172-4.32 0-3.096-1.49-5.46-4.04-7.174-1.396-.94-2.95-1.41-4.633-1.41-3.67 0-6.3 1.854-7.894 5.146-.536 1.113-.78 2.295-.78 3.527zm39.932-8.324c-.66-.3-1.9-.413-2.613-.44-3.66-.138-6.306 1.923-7.86 5.15-.536 1.113-.78 2.292-.78 3.524 0 3.75 1.97 6.378 5.318 7.98 1.223.585 2.802.695 4.14.695 1.176 0 2.837-.72 3.88-1.216l.18-.086h.8l.09.018c.996.207 1.748.84 1.748 1.9v.433c0 2.666-4.873 3.277-6.732 3.407-6.562.454-11.47-3.15-13.34-9.41-.325-1.087-.47-2.166-.47-3.3v-.867c0-4.75 2.357-8.51 6.43-10.93a11.99 11.99 0 0 1 6.191-1.69h.868a11.15 11.15 0 0 1 6.411 1.979l.158.1.1.165c.208.345.387.743.387 1.154v.433c0 1.118-.836 1.72-1.846 1.914l-.084.015h-.26c-.654 0-2.14-.677-2.725-.95zm14.205 2.965l5.134-5.08c.48-.468 2.302-2.446 3.02-2.446h.784l.09.02c1 .207 1.748.84 1.748 1.914v.433c0 .732-.858 1.584-1.33 2.085-1.006 1.066-2.065 2.098-3.095 3.142l-5.29 5.37 6.814 6.87 1.865 1.92c.217.23.54.514.72.83.196.297.316.635.316 1v.452l-.025.105c-.246 1-.88 1.805-1.984 1.805h-.35c-.724 0-1.543-.82-2.04-1.288-1.023-.964-2-1.978-3.013-2.963l-3.365-3.3v5.276c0 1.215-.76 2.192-2.017 2.192h-.345c-1.258 0-2.018-.976-2.018-2.192v-29.726c0-1.215.76-2.187 2.018-2.187h.345c1.257 0 2.017.972 2.017 2.187zm54.583-7.524h.435c1.313 0 2.2.885 2.2 2.19 0 1.813-1.733 2.277-3.233 2.277-1.967 0-3.845 1.19-5.2 2.526-1.69 1.667-2.43 3.8-2.43 6.148V220.8c0 1.215-.76 2.19-2.018 2.19h-.346c-1.26 0-2.017-.975-2.017-2.19v-11.2c0-4.305 2.095-7.82 5.6-10.284 2.086-1.472 4.476-2.25 7.03-2.25zm-31.126 21.01c1.594.557 3.4.477 5.046.192.836-.356 2.975-1.29 3.762-1.152l.123.02.113.056c.48.233.94.562 1.184 1.05.573 1.146.298 2.297-.828 2.948l-.375.216c-4.154 2.397-8.572 2.065-12.713-.174-1.98-1.07-3.494-2.66-4.612-4.596l-.26-.452c-2.667-4.62-2.307-9.477.7-13.87 1.038-1.518 2.395-2.69 3.982-3.608l.6-.347c3.912-2.258 8.105-2.103 12.123-.122 2.16 1.066 3.91 2.655 5.117 4.744l.217.377c.876 1.518-.26 2.84-1.43 3.745-1.36 1.05-2.733 2.312-4.036 3.436l-8.712 7.534zm-3.76-2.642L206.6 204.1c-.882-1.11-2.355-1.912-3.606-2.39-2.526-.963-5.017-.64-7.334.698-3.032 1.75-4.323 4.54-4.21 8.008.045 1.367.413 2.683 1.138 3.846.256.4.54.795.85 1.164z" opacity=".85" fill="#fff"/></g><path d="M257.38 94.998a5.51 5.51 0 0 0-3.419-1.183c-3.033 0-5.502 2.447-5.58 5.496-3.132 1.187-5.36 4.243-5.36 7.823 0 4.23 3.1 7.726 7.143 8.276v.076l28.578-.013c3.985-.235 7.143-3.575 7.143-7.662 0-3.943-2.94-7.2-6.72-7.626a15.88 15.88 0 0 0 .022-.727c0-6.1-5.098-11.06-11.386-11.06-4.654 0-8.656 2.713-10.423 6.602" fill="#9bdcfd"/></svg>