<svg xmlns="http://www.w3.org/2000/svg" width="226.772" height="226.772" viewBox="0 0 60 60"><path d="M23.13 36.842a1.721 1.721 0 0 0 3.442 0V23.4a1.72 1.72 0 0 0-2.938-1.217l-4.36 4.36a1.72 1.72 0 1 0 2.433 2.433l1.423-1.423zM40.168 21.8a1.72 1.72 0 0 0-1.875.373l-4.36 4.36a1.72 1.72 0 1 0 2.433 2.433l1.423-1.423v9.297a1.721 1.721 0 0 0 3.442 0V23.4a1.72 1.72 0 0 0-1.062-1.59zM11.913 32.65v-5.065c0-3.26-2.653-5.914-5.914-5.914h-.085A5.92 5.92 0 0 0 0 27.584v5.065c0 3.26 2.653 5.914 5.914 5.914H6c3.26 0 5.914-2.653 5.914-5.914zm-3.442 0c0 1.363-1.1 2.472-2.473 2.472h-.085c-1.363 0-2.473-1.1-2.473-2.472v-5.065c0-1.363 1.1-2.472 2.473-2.472H6c1.363 0 2.473 1.1 2.473 2.472zm45.615-10.98H54c-3.26 0-5.914 2.653-5.914 5.914v5.065c0 3.26 2.653 5.914 5.914 5.914h.085c3.26 0 5.914-2.653 5.914-5.914v-5.065c0-3.26-2.653-5.914-5.914-5.914zm2.472 10.98c0 1.363-1.1 2.473-2.472 2.473H54c-1.363 0-2.472-1.1-2.472-2.473v-5.065c0-1.363 1.1-2.473 2.472-2.473h.085c1.363 0 2.472 1.1 2.472 2.473zM37.16 7.298l1.423-1.423v9.297a1.721 1.721 0 1 0 3.442 0V1.72A1.72 1.72 0 0 0 39.088.503l-4.36 4.36a1.72 1.72 0 1 0 2.433 2.433zM22.245.232h-.085c-3.26 0-5.914 2.653-5.914 5.914v5.065c0 3.26 2.653 5.914 5.914 5.914h.085a1.721 1.721 0 1 0 0-3.442h-.085a2.48 2.48 0 0 1-2.473-2.473V6.146a2.48 2.48 0 0 1 2.473-2.473h.085a2.48 2.48 0 0 1 2.473 2.473 1.721 1.721 0 1 0 3.442 0c0-3.26-2.653-5.914-5.914-5.914zM54.086 0H54c-3.26 0-5.914 2.653-5.914 5.914v5.065c0 3.26 2.653 5.914 5.914 5.914h.085c3.26 0 5.914-2.653 5.914-5.914V5.915A5.92 5.92 0 0 0 54.086 0zm2.472 10.98c0 1.363-1.1 2.473-2.472 2.473H54c-1.363 0-2.472-1.1-2.472-2.473V5.915c0-1.363 1.1-2.473 2.472-2.473h.085c1.363 0 2.472 1.1 2.472 2.473zM25.5 43.238a1.72 1.72 0 0 0-1.875.373l-4.36 4.36a1.721 1.721 0 1 0 2.433 2.434l1.423-1.423v5.093a1.721 1.721 0 1 0 3.442 0v-9.247a1.72 1.72 0 0 0-1.062-1.59zM6 43.107h-.085C2.653 43.107 0 45.76 0 49.02v5.065C0 57.347 2.653 60 5.914 60H6c3.26 0 5.914-2.653 5.914-5.914V49.02c0-3.26-2.653-5.914-5.914-5.914zm2.473 10.98A2.48 2.48 0 0 1 6 56.56h-.085a2.48 2.48 0 0 1-2.473-2.473V49.02c0-1.363 1.1-2.472 2.473-2.472H6c1.363 0 2.473 1.1 2.473 2.472z"/></svg>