<svg xmlns="http://www.w3.org/2000/svg">
  <symbol id="aws" viewBox="0 0 428.097 256">
    <g transform="matrix(1.423804 0 0 1.423804 -2.374881 -1.566185)">
      <path d="M86.4 66.4c0 3.7.4 6.7 1.1 8.9.8 2.2 1.8 4.6 3.2 7.2.5.8.7 1.6.7 2.3 0 1-.6 2-1.9 3L83.2 92c-.9.6-1.8.9-2.6.9-1 0-2-.5-3-1.4-1.4-1.5-2.6-3.1-3.6-4.7l-3.1-5.9c-7.8 9.2-17.6 13.8-29.4 13.8-8.4 0-15.1-2.4-20-7.2s-7.4-11.2-7.4-19.2c0-8.5 3-15.4 9.1-20.6s14.2-7.8 24.5-7.8c3.4 0 6.9.3 10.6.8s7.5 1.3 11.5 2.2v-7.3c0-7.6-1.6-12.9-4.7-16-3.2-3.1-8.6-4.6-16.3-4.6A45.5 45.5 0 0 0 38 16.3c-3.7.9-7.3 2-10.8 3.4-1.6.7-2.8 1.1-3.5 1.3s-1.2.3-1.6.3c-1.4 0-2.1-1-2.1-3.1v-4.9c0-1.6.2-2.8.7-3.5s1.4-1.4 2.8-2.1c3.5-1.8 7.7-3.3 12.6-4.5C41 1.9 46.2 1.3 51.7 1.3c11.9 0 20.6 2.7 26.2 8.1 5.5 5.4 8.3 13.6 8.3 24.6v32.4zM45.8 81.6c3.3 0 6.7-.6 10.3-1.8s6.8-3.4 9.5-6.4c1.6-1.9 2.8-4 3.4-6.4s1-5.3 1-8.7v-4.2c-2.9-.7-6-1.3-9.2-1.7s-6.3-.6-9.4-.6c-6.7 0-11.6 1.3-14.9 4s-4.9 6.5-4.9 11.5c0 4.7 1.2 8.2 3.7 10.6 2.4 2.5 5.9 3.7 10.5 3.7zm80.3 10.8c-1.8 0-3-.3-3.8-1-.8-.6-1.5-2-2.1-3.9L96.7 10.2c-.6-2-.9-3.3-.9-4 0-1.6.8-2.5 2.4-2.5h9.8c1.9 0 3.2.3 3.9 1 .8.6 1.4 2 2 3.9l16.8 66.2 15.6-66.2c.5-2 1.1-3.3 1.9-3.9s2.2-1 4-1h8c1.9 0 3.2.3 4 1 .8.6 1.5 2 1.9 3.9l15.8 67 17.3-67c.6-2 1.3-3.3 2-3.9.8-.6 2.1-1 3.9-1h9.3c1.6 0 2.5.8 2.5 2.5 0 .5-.1 1-.2 1.6s-.3 1.4-.7 2.5l-24.1 77.3c-.6 2-1.3 3.3-2.1 3.9s-2.1 1-3.8 1h-8.6c-1.9 0-3.2-.3-4-1s-1.5-2-1.9-4L156 23l-15.4 64.4c-.5 2-1.1 3.3-1.9 4s-2.2 1-4 1zm128.5 2.7c-5.2 0-10.4-.6-15.4-1.8s-8.9-2.5-11.5-4c-1.6-.9-2.7-1.9-3.1-2.8a7.06 7.06 0 0 1-.6-2.8v-5.1c0-2.1.8-3.1 2.3-3.1.6 0 1.2.1 1.8.3s1.5.6 2.5 1c3.4 1.5 7.1 2.7 11 3.5 4 .8 7.9 1.2 11.9 1.2 6.3 0 11.2-1.1 14.6-3.3s5.2-5.4 5.2-9.5c0-2.8-.9-5.1-2.7-7s-5.2-3.6-10.1-5.2L246 52c-7.3-2.3-12.7-5.7-16-10.2-3.3-4.4-5-9.3-5-14.5 0-4.2.9-7.9 2.7-11.1s4.2-6 7.2-8.2c3-2.3 6.4-4 10.4-5.2s8.2-1.7 12.6-1.7c2.2 0 4.5.1 6.7.4 2.3.3 4.4.7 6.5 1.1 2 .5 3.9 1 5.7 1.6S280 5.4 281 6c1.4.8 2.4 1.6 3 2.5.6.8.9 1.9.9 3.3v4.7c0 2.1-.8 3.2-2.3 3.2-.8 0-2.1-.4-3.8-1.2-5.7-2.6-12.1-3.9-19.2-3.9-5.7 0-10.2.9-13.3 2.8s-4.7 4.8-4.7 8.9c0 2.8 1 5.2 3 7.1s5.7 3.8 11 5.5l14.2 4.5c7.2 2.3 12.4 5.5 15.5 9.6s4.6 8.8 4.6 14c0 4.3-.9 8.2-2.6 11.6-1.8 3.4-4.2 6.4-7.3 8.8-3.1 2.5-6.8 4.3-11.1 5.6-4.5 1.4-9.2 2.1-14.3 2.1z" fill="#252f3e"/>
      <path d="M273.5 143.7c-32.9 24.3-80.7 37.2-121.8 37.2-57.6 0-109.5-21.3-148.7-56.7-3.1-2.8-.3-6.6 3.4-4.4 42.4 24.6 94.7 39.5 148.8 39.5 36.5 0 76.6-7.6 113.5-23.2 5.5-2.5 10.2 3.6 4.8 7.6zm13.7-15.6c-4.2-5.4-27.8-2.6-38.5-1.3-3.2.4-3.7-2.4-.8-4.5 18.8-13.2 49.7-9.4 53.3-5 3.6 4.5-1 35.4-18.6 50.2-2.7 2.3-5.3 1.1-4.1-1.9 4-9.9 12.9-32.2 8.7-37.5z" fill-rule="evenodd" fill="#f90"/>
    </g>
  </symbol>
  <symbol id="circleci" viewBox="0 0 251.942 256">
    <g transform="matrix(.845317 0 0 .845317 -.827137 .000013)" fill="#343434" fill-rule="nonzero">
      <ellipse cx="147.84" cy="151.423" rx="35.851" ry="35.908"/>
      <path d="M1.41 113.35c0 .432-.432 1.297-.432 1.73 0 3.893 3.023 7.355 7.343 7.355h60.905c3.023 0 5.183-1.73 6.48-4.326 12.527-27.69 40.172-46.293 71.702-46.293 43.627 0 79.046 35.476 79.046 79.173s-35.42 79.173-79.046 79.173c-31.964 0-59.176-19.036-71.702-45.86-1.296-3.028-3.456-4.76-6.48-4.76h-60.9c-3.888 0-7.344 3.028-7.344 7.356 0 .432 0 1.297.432 1.73 16.846 65.76 76.022 114.216 146.43 114.216 83.366 0 151.18-67.925 151.18-151.423S231.205 0 147.84 0C77.434 0 18.257 48.456 1.41 113.35z"/>
    </g>
  </symbol>
  <symbol id="docker" viewBox="0 0 26.214 14.882">
    <g fill-rule="evenodd">
      <path d="M15.16 4.687h2.35V7.09h1.188c.55 0 1.113-.098 1.633-.274.255-.087.542-.207.794-.36-.332-.433-.5-.98-.55-1.52-.068-.733.08-1.688.576-2.262l.247-.286.294.237c.74.595 1.364 1.427 1.474 2.376.892-.262 1.94-.2 2.727.254l.323.186-.17.332c-.665 1.298-2.056 1.7-3.416 1.63-2.035 5.068-6.465 7.467-11.836 7.467-2.775 0-5.32-1.037-6.77-3.5L4 11.33l-.21-.43c-.5-1.084-.653-2.27-.542-3.457l.033-.355h2V4.687h2.35v-2.35h4.7v-2.35h2.82v4.7" fill="#364548"/>
      <path d="M22.773 5.576c.158-1.225-.76-2.187-1.327-2.643-.655.757-.757 2.742.27 3.577-.574.51-1.782.97-3.02.97H3.635c-.12 1.292.106 2.48.624 3.5l.17.313a5.81 5.81 0 0 0 .355.533l1.713.042c1.026-.023 1.864-.144 2.5-.364.093-.03.193.02.225.114s-.015.193-.106.228l-.264.083c-.5.143-1.036.24-1.727.28.04.001-.043.006-.043.006l-.077.006-.866.02c-.328 0-.652-.006-1.014-.025l-.01.006c1.255 1.41 3.217 2.256 5.677 2.256 5.206 0 9.62-2.308 11.576-7.488 1.387.142 2.72-.21 3.327-1.395-.966-.557-2.208-.38-2.923-.02" fill="#22a0c8"/>
      <path d="M22.773 5.576c.158-1.225-.76-2.187-1.327-2.643-.655.757-.757 2.742.27 3.577-.574.51-1.782.97-3.02.97H4.527c-.06 1.978.673 3.48 1.97 4.387 1.027-.023 1.864-.144 2.5-.364.093-.03.193.02.225.114s-.015.193-.106.228l-.264.083a8.26 8.26 0 0 1-1.773.294c0 0-.017-.016-.017-.016 1.772.91 4.34.905 7.285-.226 3.302-1.27 6.375-3.686 8.52-6.45-.032.015-.064.03-.094.045" fill="#37b1d9"/>
      <path d="M3.664 9.05a6.02 6.02 0 0 0 .596 1.93l.17.313a5.8 5.8 0 0 0 .355.533l1.713.042c1.026-.023 1.864-.144 2.5-.364.093-.03.193.02.225.114s-.015.193-.106.228l-.264.083c-.5.143-1.08.245-1.77.288l-.09.003-.863.025c-.328 0-.664-.006-1.026-.025 1.255 1.41 3.23 2.26 5.69 2.26 4.456 0 8.334-1.692 10.584-5.43H3.664" fill="#1b81a5"/>
      <path d="M4.663 9.05c.266 1.215.907 2.17 1.836 2.818 1.026-.023 1.864-.144 2.5-.364.093-.03.193.02.225.114s-.015.193-.106.228l-.264.083c-.5.143-1.09.245-1.783.288 1.77.91 4.333.896 7.278-.236 1.782-.685 3.496-1.703 5.034-2.93H4.663" fill="#1d91b4"/>
      <path d="M5.68 5.078h2.037v2.037H5.68zm.17.17H6v1.697h-.16zm.302 0h.167v1.697H6.15V5.248zm.31 0h.167v1.697H6.46zm.31 0h.167v1.697H6.77zm.31 0h.167v1.697h-.167zm.31 0h.16v1.697h-.16zm.644-2.52h2.037v2.037H8.03V2.728zm.17.17h.16v1.697H8.2zm.302 0h.167v1.697h-.167V2.898zm.31 0h.167v1.697H8.8zm.31 0h.167v1.697H9.12zm.31 0h.167v1.697h-.167zm.31 0h.16v1.697h-.16z" fill="#23a3c2"/>
      <path d="M8.03 5.078h2.037v2.037H8.03V5.078zm.17.17h.16v1.697H8.2zm.302 0h.167v1.697h-.167V5.248zm.31 0h.167v1.697H8.8zm.31 0h.167v1.697H9.12zm.31 0h.167v1.697h-.167zm.31 0h.16v1.697h-.16z" fill="#34bbde"/>
      <path d="M10.38 5.078h2.037v2.037H10.38zm.17.17h.16v1.697h-.16zm.302 0h.167v1.697h-.167zm.31 0h.167v1.697h-.167zm.31 0h.167v1.697h-.167zm.31 0h.167v1.697h-.167zm.31 0h.16v1.697h-.16z" fill="#23a3c2"/>
      <path d="M10.38 2.728h2.037v2.037H10.38zm.17.17h.16v1.697h-.16zm.302 0h.167v1.697h-.167zm.31 0h.167v1.697h-.167zm.31 0h.167v1.697h-.167zm.31 0h.167v1.697h-.167zm.31 0h.16v1.697h-.16zm.644 2.18h2.037v2.037H12.73zm.17.17h.16v1.697h-.16zm.302 0h.167v1.697h-.167zm.31 0h.167v1.697H13.5zm.31 0h.167v1.697h-.167zm.31 0h.167v1.697h-.167zm.31 0h.16v1.697h-.16z" fill="#34bbde"/>
      <path d="M12.73 2.728h2.037v2.037H12.73zm.17.17h.16v1.697h-.16zm.302 0h.167v1.697h-.167zm.31 0h.167v1.697H13.5zm.31 0h.167v1.697h-.167zm.31 0h.167v1.697h-.167zm.31 0h.16v1.697h-.16z" fill="#23a3c2"/>
      <path d="M12.73.378h2.037v2.037H12.73zm.17.17h.16v1.697h-.16V.548zm.302 0h.167v1.697h-.167V.548zm.31 0h.167v1.697H13.5V.548zm.31 0h.167v1.697h-.167V.548zm.31 0h.167v1.697h-.167V.548zm.31 0h.16v1.697h-.16V.548z" fill="#34bbde"/>
      <path d="M15.08 5.078h2.037v2.037H15.08zm.17.17h.16v1.697h-.16V5.248zm.302 0h.167v1.697h-.167V5.248zm.31 0h.167v1.697h-.167zm.31 0h.167v1.697h-.167zm.31 0h.167v1.697h-.167zm.31 0h.16v1.697h-.16z" fill="#23a3c2"/>
      <path d="M9.94 10.418a.56.56 0 0 1 .493.845.56.56 0 0 1-1.047-.283.56.56 0 0 1 .554-.562" fill="#d3ecec"/>
      <path d="M9.94 10.577a.4.4 0 0 1 .146.027c-.064.037-.095.113-.076.185s.084.122.158.122c.062 0 .116-.034.144-.085.068.164.02.353-.116.465s-.33.122-.48.024-.213-.282-.162-.45.208-.286.385-.286M0 9.253h26.14c-.57-.144-1.8-.34-1.598-1.085-1.035 1.198-3.53.84-4.16.25-.7 1.017-4.785.63-5.07-.162-.88 1.032-3.604 1.032-4.483 0-.285.793-4.368 1.18-5.07.162-.63.59-3.125.948-4.16-.25C1.8 8.914.57 9.11 0 9.253" fill="#364548"/>
      <path d="M11.433 14.467c-1.392-.66-2.155-1.558-2.58-2.538-.517.147-1.138.242-1.86.282l-.858.023c-.346 0-.71-.01-1.094-.03 1.276 1.275 2.846 2.257 5.753 2.275l.64-.012" fill="#bdd9d7"/>
      <path d="M9.37 12.833a4.88 4.88 0 0 1-.517-.904c-.517.148-1.138.242-1.86.283.496.27 1.205.52 2.377.622" fill="#d3ecec"/>
    </g>
  </symbol>
  <symbol id="github" viewBox="0 0 262.419 256">
    <path d="M244.818 65.348c-11.733-20.103-27.648-36.02-47.75-47.75S155.016 0 131.208 0s-45.76 5.867-65.86 17.597-36.018 27.648-47.75 47.75S0 107.404 0 131.205c0 28.59 8.34 54.3 25.03 77.135s38.24 38.64 64.663 47.408c3.076.57 5.353.17 6.833-1.194s2.22-3.076 2.22-5.123l-.086-9.225-.086-15.203-3.93.68c-2.505.46-5.666.653-9.482.598s-7.774-.453-11.873-1.196c-4.1-.737-7.916-2.445-11.447-5.122s-6.035-6.18-7.516-10.505l-1.708-3.93c-1.14-2.617-2.93-5.525-5.38-8.712s-4.926-5.353-7.43-6.49l-1.196-.856c-.797-.57-1.537-1.255-2.22-2.052s-1.195-1.593-1.537-2.392-.06-1.454.854-1.968 2.562-.764 4.955-.764l3.416.5c2.278.457 5.096 1.82 8.457 4.1s6.12 5.238 8.285 8.88c2.62 4.67 5.78 8.23 9.482 10.68s7.43 3.672 11.19 3.672 7.003-.285 9.738-.852 5.295-1.426 7.687-2.564c1.025-7.634 3.816-13.5 8.37-17.6-6.49-.682-12.327-1.7-17.51-3.076s-10.535-3.588-16.058-6.666-10.1-6.89-13.754-11.445-6.635-10.538-8.968-17.94-3.502-15.946-3.502-25.626c0-13.784 4.5-25.513 13.498-35.195-4.215-10.363-3.817-21.98 1.195-34.85 3.303-1.026 8.2-.256 14.693 2.306s11.246 4.758 14.265 6.58 5.44 3.362 7.26 4.612c10.594-2.96 21.527-4.44 32.802-4.44s22.2 1.48 32.805 4.44l6.492-4.098c4.44-2.735 9.682-5.24 15.715-7.52s10.652-2.904 13.843-1.878c5.123 12.87 5.58 24.487 1.364 34.85 8.997 9.682 13.5 21.414 13.5 35.195 0 9.68-1.172 18.25-3.502 25.7s-5.35 13.438-9.05 17.94-8.318 8.288-13.84 11.36-10.88 5.296-16.06 6.664-11.02 2.396-17.51 3.08c5.92 5.123 8.88 13.21 8.88 24.258v36.045c0 2.048.712 3.757 2.137 5.123s3.672 1.765 6.747 1.194c26.426-8.768 47.982-24.57 64.666-47.408S262.42 159.79 262.42 131.2c-.006-23.798-5.875-45.75-17.6-65.852z"/>
  </symbol>
  <symbol id="linkedin" viewBox="0 0 382 382">
    <path d="m347.44 0h-312.89c-19.084 0-34.555 15.471-34.555 34.555v312.89c0 19.085 15.471 34.556 34.555 34.556h312.89c19.085 0 34.556-15.471 34.556-34.556v-312.89c0-19.084-15.471-34.555-34.555-34.555zm-229.24 329.84c0 5.554-4.502 10.056-10.056 10.056h-42.806c-5.554 0-10.056-4.502-10.056-10.056v-179.44c0-5.554 4.502-10.056 10.056-10.056h42.806c5.554 0 10.056 4.502 10.056 10.056v179.44zm-31.459-206.41c-22.459 0-40.666-18.207-40.666-40.666s18.207-40.666 40.666-40.666 40.666 18.207 40.666 40.666-18.206 40.666-40.666 40.666zm255.16 207.22c0 5.106-4.14 9.246-9.246 9.246h-45.934c-5.106 0-9.246-4.14-9.246-9.246v-84.168c0-12.556 3.683-55.021-32.813-55.021-28.309 0-34.051 29.066-35.204 42.11v97.079c0 5.106-4.139 9.246-9.246 9.246h-44.426c-5.106 0-9.246-4.14-9.246-9.246v-181.06c0-5.106 4.14-9.246 9.246-9.246h44.426c5.106 0 9.246 4.14 9.246 9.246v15.655c10.497-15.753 26.097-27.912 59.312-27.912 73.552 0 73.131 68.716 73.131 106.47v86.846z" fill="#0077B7"/>
  </symbol>
  <symbol id="netcore" viewBox="0 0 256 256">
    <circle cx="129.757" cy="126.243" r="126.243" fill="#5c2d91"/>
    <g fill="#fff">
      <path d="M42.255 35.506a126.243 126.243 0 1 0 178.239 178.239z" opacity=".1"/>
      <path d="M32.708 146.955a5.326 5.326 0 0 1-3.945-1.657 5.444 5.444 0 0 1-1.617-3.945 5.523 5.523 0 0 1 1.617-3.945 5.286 5.286 0 0 1 3.945-1.696 5.405 5.405 0 0 1 3.945 1.696 5.484 5.484 0 0 1 1.657 3.945 5.405 5.405 0 0 1-1.657 3.945 5.444 5.444 0 0 1-3.945 1.657zm78.39-.987H100.76l-36.965-57.36a23.671 23.671 0 0 1-2.288-4.497h-.316a73.852 73.852 0 0 1 .395 9.863v51.996h-8.403V74.05H64.1l35.98 56.336q2.25 3.5 2.92 4.813h.197a76.061 76.061 0 0 1-.513-10.573V74.05h8.403zm56.888 0h-38.228V74.05H166.2v7.614h-27.852v23.907h25.96v7.575h-25.96v24.933h29.667zm56.455-64.305h-20.9v64.305h-8.403V81.663h-20.672V74.05h49.984z"/>
    </g>
    <path d="M106.56 194.888a19.449 19.449 0 0 1-9.153 1.933 14.755 14.755 0 0 1-11.322-4.537 16.806 16.806 0 0 1-4.261-11.835 17.595 17.595 0 0 1 4.774-12.861 16.254 16.254 0 0 1 12.151-4.892 19.449 19.449 0 0 1 7.89 1.381v3.945a15.78 15.78 0 0 0-7.89-1.973 12.072 12.072 0 0 0-9.271 3.945 14.36 14.36 0 0 0-3.551 10.178 13.689 13.689 0 0 0 3.314 9.665 11.283 11.283 0 0 0 8.719 3.59 16.333 16.333 0 0 0 8.64-2.209zm16.135 1.932a10.967 10.967 0 0 1-8.403-3.511 12.269 12.269 0 0 1-3.117-8.798 12.782 12.782 0 0 1 3.274-9.31 11.835 11.835 0 0 1 8.798-3.353 10.612 10.612 0 0 1 8.245 3.274 12.94 12.94 0 0 1 2.959 9.034 12.703 12.703 0 0 1-3.196 9.074 11.204 11.204 0 0 1-8.561 3.59zm.276-21.58a7.22 7.22 0 0 0-5.76 2.485 10.218 10.218 0 0 0-2.13 6.864 9.665 9.665 0 0 0 2.13 6.628 7.298 7.298 0 0 0 5.76 2.446 6.943 6.943 0 0 0 5.641-2.367 10.336 10.336 0 0 0 1.973-6.786 10.494 10.494 0 0 0-1.973-6.825 6.904 6.904 0 0 0-5.641-2.446zm29.904 1.185a4.655 4.655 0 0 0-2.88-.75 4.852 4.852 0 0 0-3.945 2.288 10.573 10.573 0 0 0-1.617 6.233v12.072h-3.945v-23.67h3.945v4.93a8.285 8.285 0 0 1 2.485-3.945 5.641 5.641 0 0 1 3.708-1.381 6.194 6.194 0 0 1 2.249.316zm23.12 8.995h-16.688a8.837 8.837 0 0 0 2.012 6.075 7.338 7.338 0 0 0 5.602 2.13 11.835 11.835 0 0 0 7.338-2.643v3.55a13.729 13.729 0 0 1-8.245 2.249 10.021 10.021 0 0 1-7.89-3.235 13.216 13.216 0 0 1-2.88-9.074 12.94 12.94 0 0 1 3.117-8.995 10.06 10.06 0 0 1 7.89-3.472 8.916 8.916 0 0 1 7.18 2.998 12.545 12.545 0 0 1 2.525 8.364zm-3.945-3.196a7.89 7.89 0 0 0-1.578-5.089 5.405 5.405 0 0 0-4.34-1.815 6.115 6.115 0 0 0-4.537 1.933 8.719 8.719 0 0 0-2.328 5.01z" fill="#f2f2f2"/>
  </symbol>
  <symbol id="nginx" viewBox="0 0 73 83">
    <path d="M36.5.5c-.9 0-1.7.2-2.5.7l-31.2 18c-1.5.9-2.5 2.5-2.5 4.3v36.1c0 .9.2 1.7.7 2.5l35.5-20.5V.5z" fill="#00ab4e"/>
    <path d="M1 62c.4.7 1 1.4 1.8 1.8L34 81.9c1.5.9 3.4.9 4.9 0l31.3-18.1c.8-.4 1.4-1.1 1.8-1.8L36.5 41.5 1 62z" fill="#00853e"/>
    <path d="M72 62c.4-.7.7-1.6.7-2.5V23.4c0-1.8-.9-3.4-2.5-4.3L39 1.1c-.8-.4-1.6-.7-2.5-.7v41c0 .1 23 13.4 35.5 20.6z" fill="#004c2c"/>
    <path d="M44.7 57.1c1.4 1.7 3.6 2.5 5.6 2.5 2.7 0 4.7-1.8 4.7-4V27.4c0-2.2-1.8-4-4-4h-.1c-2.3 0-4.1 1.8-4.1 4.1v20.1c0 .1-.1.1-.2.1L28.3 25.9c-1.4-1.7-3.6-2.5-5.6-2.5-2.7 0-4.7 1.8-4.7 4v28.2c0 2.2 1.8 4 4 4h.1c2.3 0 4.1-1.8 4.1-4.1V35.4c0-.1.1-.1.2-.1l18.3 21.8z" fill="#fff"/>
  </symbol>
  <symbol id="postgresql" viewBox="0 0 186.495 192">
    <g fill="none" stroke="#fff">
      <path d="M139.414 139.855c1.222-10.18.856-11.673 8.438-10.024l1.925.17c5.83.265 13.458-.938 17.938-3.02 9.646-4.476 15.365-11.948 5.854-9.985-21.696 4.476-23.187-2.87-23.187-2.87 22.91-33.992 32.486-77.14 24.22-87.703-22.547-28.81-61.574-15.186-62.227-14.832l-.208.038c-4.287-.89-9.084-1.42-14.473-1.508-9.818-.16-17.268 2.574-22.92 6.86 0 0-69.623-28.684-66.384 36.073.69 13.776 19.746 104.237 42.475 76.914 8.307-9.99 16.336-18.44 16.336-18.44 3.987 2.648 8.76 4 13.765 3.514l.387-.33c-.12 1.24-.068 2.454.155 3.9-5.854 6.542-4.134 7.69-15.84 10.1-11.844 2.44-4.885 6.787-.344 7.923 5.507 1.377 18.248 3.328 26.86-8.724l-.343 1.375c2.297 1.838 2.142 13.207 2.467 21.33s.87 15.705 2.526 20.175 3.6 15.98 18.995 12.684c12.858-2.755 22.69-6.72 23.585-43.612" fill="#000" stroke="#000" stroke-linecap="butt" stroke-width="16.13" stroke-linejoin="miter"/>
      <path d="M173.572 116.995c-21.698 4.476-23.19-2.87-23.19-2.87 22.91-33.994 32.486-77.144 24.22-87.704-22.547-28.808-61.576-15.183-62.227-14.83l-.2.038c-4.287-.9-9.084-1.42-14.476-1.508-9.818-.16-17.265 2.574-22.916 6.86 0 0-69.624-28.682-66.386 36.074.69 13.776 19.745 104.238 42.475 76.915 8.308-9.99 16.335-18.44 16.335-18.44 3.987 2.648 8.76 4 13.763 3.514l.39-.33c-.12 1.24-.066 2.454.156 3.9-5.856 6.542-4.135 7.69-15.84 10.1-11.844 2.44-4.886 6.787-.343 7.923 5.507 1.377 18.25 3.328 26.858-8.724l-.343 1.375c2.294 1.838 3.905 11.953 3.635 21.123s-.45 15.466 1.357 20.383 3.6 15.98 18.997 12.684c12.858-2.755 19.52-9.896 20.448-21.807.658-8.468 2.146-7.216 2.24-14.787l1.194-3.584c1.377-11.48.22-15.182 8.14-13.46l1.925.17c5.83.265 13.462-.938 17.94-3.02 9.644-4.476 15.364-11.948 5.855-9.985z" fill="#336791" stroke="none"/>
      <g stroke-width="5.377">
        <g stroke-linecap="round">
          <path d="M93.113 123.574c-.597 21.36.15 42.866 2.24 48.093s6.566 15.394 21.956 12.097c12.857-2.756 17.535-8.1 19.565-19.864 1.495-8.662 4.377-32.72 4.747-37.648M74.668 16.502S4.996-11.974 8.235 52.782c.7 13.776 19.747 104.24 42.476 76.916 8.306-9.993 15.818-17.83 15.818-17.83M112.3 11.304c-2.412.756 38.756-15.05 62.152 14.846 8.264 10.56-1.313 53.7-24.22 87.706" stroke-linejoin="round"/>
          <path d="M150.23 113.856s1.493 7.348 23.19 2.87c9.507-1.963 3.786 5.5-5.856 9.988-7.913 3.672-25.654 4.614-25.944-.46-.746-13.094 9.337-9.116 8.6-12.397-.658-2.955-5.167-5.855-8.15-13.086-2.604-6.312-35.714-54.716 9.182-47.527 1.645-.34-11.71-42.704-53.726-43.393-42.007-.69-40.63 51.66-40.63 51.66" stroke-linejoin="bevel"/>
        </g>
        <g stroke-linejoin="round">
          <path d="M81.354 118.334c-5.856 6.542-4.134 7.69-15.84 10.1-11.844 2.44-4.885 6.786-.344 7.922 5.507 1.378 18.25 3.33 26.858-8.726 2.622-3.67-.016-9.527-3.617-11.02-1.74-.72-4.067-1.624-7.057 1.723z"/>
          <path d="M80.97 118.22c-.6-3.846 1.264-8.423 3.25-13.778 2.986-8.034 9.875-16.07 4.364-41.556-4.108-18.992-31.66-3.952-31.676-1.377s1.246 13.053-.46 25.255c-2.227 15.922 10.132 29.39 24.362 28.01" stroke-linecap="round"/>
        </g>
      </g>
      <g fill="#fff" stroke-linejoin="miter">
        <path d="M74.415 61.122c-.124.88 1.6 3.226 3.872 3.54s4.2-1.52 4.313-2.398-1.6-1.848-3.872-2.163-4.192.144-4.312 1.02z" stroke-width="1.792"/>
        <path d="M143.182 59.33c.123.88-1.6 3.226-3.872 3.54s-4.192-1.52-4.316-2.398 1.613-1.848 3.873-2.163 4.192.144 4.314 1.02z" stroke-width=".896"/>
      </g>
      <path d="M151.263 53.242c.372 6.9-1.486 11.598-1.72 18.942-.347 10.675 5.09 22.893-3.102 35.127"/>
    </g>
  </symbol>
  <symbol id="rabbitmq" viewBox="0 0 26.232 27.75">
    <path d="M25.134 11.1h-8.72a.793.793 0 0 1-.793-.793V1.22A1.22 1.22 0 0 0 14.402 0H11.29a1.22 1.22 0 0 0-1.219 1.219v9.034a.85.85 0 0 1-.848.852l-2.858.014a.85.85 0 0 1-.856-.853l.018-9.044A1.22 1.22 0 0 0 4.309 0h-3.1A1.22 1.22 0 0 0-.02 1.219v25.45a1.08 1.08 0 0 0 1.082 1.082h24.073a1.08 1.08 0 0 0 1.082-1.082V12.182a1.08 1.08 0 0 0-1.082-1.082zm-4.09 9.555a1.42 1.42 0 0 1-1.419 1.419h-2.46a1.42 1.42 0 0 1-1.419-1.419v-2.46a1.42 1.42 0 0 1 1.419-1.419h2.46a1.42 1.42 0 0 1 1.419 1.419z" fill="#f60"/>
  </symbol>
  <symbol id="ubuntu" viewBox="0 0 254.66 256">
    <g transform="matrix(.5 0 0 .5 -.6705 0)" fill="#ff5722">
      <circle cx="54.674" cy="256" r="53.333"/>
      <circle cx="406.61" cy="458.667" r="53.333"/>
      <circle cx="406.61" cy="53.333" r="53.333"/>
      <path d="M262.098 147.67c2.383 4.13 7.216 6.176 11.84 5.013 55.924-14.4 113.1 18.592 128.597 74.22 1.298 4.593 5.5 7.764 10.26 7.765h87.168a10.67 10.67 0 0 0 10.673-10.661 10.76 10.76 0 0 0-.134-1.691 212.78 212.78 0 0 0-48.512-104.98 10.67 10.67 0 0 0-13.995-1.877A74.27 74.27 0 0 1 406.673 128c-40.78-.145-73.96-32.87-74.667-73.643a10.67 10.67 0 0 0-9.536-10.453c-33.448-3.504-67.25.925-98.667 12.928a10.67 10.67 0 0 0-6.143 13.778 10.66 10.66 0 0 0 .724 1.518zm237.888 129.663h-87.168c-4.772.001-8.963 3.173-10.26 7.765-15.5 55.642-72.67 88.643-128.597 74.22-4.624-1.163-9.457.884-11.84 5.013l-43.605 75.54a10.67 10.67 0 0 0 3.9 14.572 10.66 10.66 0 0 0 1.518.724c31.384 12.127 65.217 16.56 98.667 12.928a10.67 10.67 0 0 0 9.536-10.453c.472-41.14 34.205-74.1 75.345-73.637a74.49 74.49 0 0 1 40.516 12.538 10.67 10.67 0 0 0 14.016-1.941 212.78 212.78 0 0 0 48.512-104.917 10.67 10.67 0 0 0-8.847-12.218c-.56-.1-1.126-.134-1.692-.134zM223.548 330.26c-40.254-41.333-40.254-107.2 0-148.544a10.67 10.67 0 0 0 1.579-12.8l-43.54-75.37a10.67 10.67 0 0 0-7.317-5.163 11.13 11.13 0 0 0-8.66 2.133 213.5 213.5 0 0 0-67.243 96.32 10.67 10.67 0 0 0 3.307 11.712c31.735 25.306 36.947 71.546 11.64 103.28a73.49 73.49 0 0 1-11.641 11.641 10.67 10.67 0 0 0-3.307 11.712 213.51 213.51 0 0 0 67.221 96.235c1.905 1.55 4.286 2.392 6.74 2.4a11.65 11.65 0 0 0 1.92-.17c3.078-.564 5.754-2.452 7.317-5.163l43.54-75.413c2.4-4.13 1.774-9.363-1.557-12.798z"/>
    </g>
  </symbol>
  <symbol id="vue" viewBox="0 0 295.6 256">
    <g transform="matrix(1.505705 0 0 -1.505705 -86.173014 353.85578)">
      <path d="M178.06 235l-22.67-39.264L132.722 235H57.23L155.39 65 253.55 235z" fill="#41b883"/>
      <path d="M178.06 235l-22.67-39.264L132.722 235H96.495l58.896-102 58.896 102z" fill="#34495e"/>
    </g>
  </symbol>
</svg>
