<svg xmlns="http://www.w3.org/2000/svg">
  <symbol id="netcore-microservices" viewBox="0 0 128 128">
    <path d="M24 65.887v-3.774l.005-.112H16v-1.5a2 2 0 0 0-.992-1.728l-6-3.5a2 2 0 0 0-2.016 0l-6 3.5A2 2 0 0 0 0 60.5v7a2.001 2.001 0 0 0 .992 1.728l6 3.5a2 2 0 0 0 2.016 0l6-3.5A2.001 2.001 0 0 0 16 67.5V66h8.005L24 65.887zm-12 .465l-4 2.333-4-2.333V61.65l4-2.334 4 2.334z" fill="#2c3e50"/>
    <path d="M90.948 34.375l2.677 2.68.07.078 4.848-4.848 5.606 1.475a1.999 1.999 0 0 0 1.923-.52l4.95-4.95a2.001 2.001 0 0 0 .521-1.923l-1.768-6.718a2.001 2.001 0 0 0-1.426-1.425l-6.718-1.768a1.997 1.997 0 0 0-1.923.52l-4.95 4.95a2.001 2.001 0 0 0-.521 1.923l1.475 5.608-4.846 4.846.08.072zm10.776-13.757l4.48 1.178 1.18 4.48-3.325 3.325-4.478-1.178-1.18-4.48zM37.058 93.63l-2.678-2.68-.075-.082-4.848 4.848-5.607-1.475a1.999 1.999 0 0 0-1.923.521l-4.95 4.95a2.001 2.001 0 0 0-.521 1.923l1.768 6.718a2.002 2.002 0 0 0 1.426 1.426l6.718 1.768a2.002 2.002 0 0 0 1.923-.521l4.95-4.95a2.001 2.001 0 0 0 .521-1.923l-1.475-5.607 4.847-4.847-.074-.067zm-10.783 13.753l-4.478-1.18-1.18-4.478 3.325-3.325 4.478 1.18 1.18 4.478z" fill="#5c2d91"/>
    <path d="M91.09 80.246l-2.3-2.3a28.344 28.344 0 0 0 2.603-6.278h3.25a5.588 5.588 0 0 0 5.359-5.78v-3.774a5.587 5.587 0 0 0-5.359-5.779h-3.25a28.18 28.18 0 0 0-2.603-6.277l2.302-2.303a5.59 5.59 0 0 0-.296-7.871l-2.672-2.675a5.59 5.59 0 0 0-7.876-.295l-2.302 2.3a28.141 28.141 0 0 0-6.276-2.603v-3.25A5.588 5.588 0 0 0 65.888 28h-3.772a5.589 5.589 0 0 0-5.783 5.358v3.25a28.147 28.147 0 0 0-6.276 2.602l-2.3-2.3a5.596 5.596 0 0 0-7.88.299l-2.665 2.668a5.587 5.587 0 0 0-.303 7.877l2.303 2.302a28.204 28.204 0 0 0-2.603 6.276h-3.252A5.586 5.586 0 0 0 28 62.112v3.774a5.587 5.587 0 0 0 5.357 5.78h3.252a28.297 28.297 0 0 0 2.604 6.277l-2.306 2.304a5.59 5.59 0 0 0 .302 7.874l2.672 2.673a5.604 5.604 0 0 0 7.879.294l2.297-2.302a28.253 28.253 0 0 0 6.275 2.604v3.253A5.589 5.589 0 0 0 62.115 100h3.772a5.588 5.588 0 0 0 5.781-5.356V91.39a28.209 28.209 0 0 0 6.276-2.604l2.304 2.307a5.599 5.599 0 0 0 7.876-.301l2.672-2.672a5.595 5.595 0 0 0 .292-7.874zm-3.123 5.048L85.3 87.96a1.644 1.644 0 0 1-2.223.303l-3.406-3.4a1.998 1.998 0 0 0-2.494-.271 24.284 24.284 0 0 1-7.935 3.291 2.001 2.001 0 0 0-1.572 1.954v4.815c0 .735-.815 1.356-1.78 1.356h-3.773c-.967 0-1.783-.62-1.783-1.356v-4.815a2.001 2.001 0 0 0-1.572-1.954 24.244 24.244 0 0 1-7.934-3.291 2 2 0 0 0-2.496.271l-3.396 3.404a1.645 1.645 0 0 1-2.227-.295l-2.67-2.67a1.637 1.637 0 0 1-.3-2.218l3.408-3.405a2.001 2.001 0 0 0 .271-2.492 24.331 24.331 0 0 1-3.29-7.937 2 2 0 0 0-1.954-1.574h-4.815A1.635 1.635 0 0 1 32 65.887v-3.774a1.634 1.634 0 0 1 1.357-1.779h4.815a2 2 0 0 0 1.954-1.574 24.239 24.239 0 0 1 3.289-7.933 2.001 2.001 0 0 0-.271-2.493L39.74 44.93a1.634 1.634 0 0 1 .299-2.221l2.665-2.67a1.643 1.643 0 0 1 2.225-.3l3.402 3.404a2 2 0 0 0 2.493.271 24.238 24.238 0 0 1 7.934-3.288 2 2 0 0 0 1.574-1.954v-4.815c0-.736.816-1.358 1.783-1.358h3.772a1.636 1.636 0 0 1 1.781 1.358v4.815a2 2 0 0 0 1.574 1.954 24.252 24.252 0 0 1 7.934 3.288 2.001 2.001 0 0 0 2.492-.27l3.407-3.405a1.636 1.636 0 0 1 2.22.296l2.67 2.673a1.635 1.635 0 0 1 .295 2.218l-3.404 3.407a2 2 0 0 0-.269 2.493 24.286 24.286 0 0 1 3.288 7.934 2.001 2.001 0 0 0 1.954 1.573h4.812A1.634 1.634 0 0 1 96 62.112v3.774a1.635 1.635 0 0 1-1.359 1.78H89.83a2.001 2.001 0 0 0-1.954 1.572 24.336 24.336 0 0 1-3.29 7.938 2.001 2.001 0 0 0 .271 2.491l3.403 3.404a1.639 1.639 0 0 1-.294 2.221z" fill="#2c3e50"/><g transform="matrix(.117187 0 0 .117187 48.836268 49.16386)"><circle r="126.243" cy="126.243" cx="129.757" fill="#5c2d91"/><g fill="#fff">
    <path d="M42.255 35.506a126.243 126.243 0 1 0 178.239 178.239z" opacity=".1"/>
    <path d="M32.708 146.955a5.326 5.326 0 0 1-3.945-1.657 5.444 5.444 0 0 1-1.617-3.945 5.523 5.523 0 0 1 1.617-3.945 5.286 5.286 0 0 1 3.945-1.696 5.405 5.405 0 0 1 3.945 1.696 5.484 5.484 0 0 1 1.657 3.945 5.405 5.405 0 0 1-1.657 3.945 5.444 5.444 0 0 1-3.945 1.657zm78.4-.987H100.76l-36.965-57.36a23.671 23.671 0 0 1-2.288-4.497h-.316a73.852 73.852 0 0 1 .395 9.863v51.996h-8.403V74.05H64.1l35.98 56.336q2.25 3.5 2.92 4.813h.197a76.061 76.061 0 0 1-.513-10.573V74.05h8.403zm56.888 0h-38.228V74.05H166.2v7.614h-27.852v23.907h25.96v7.575h-25.96v24.933h29.667zm56.455-64.305h-20.9v64.305h-8.403V81.663h-20.672V74.05h49.984z"/></g>
    <path d="M106.56 194.888a19.449 19.449 0 0 1-9.153 1.933 14.755 14.755 0 0 1-11.322-4.537 16.806 16.806 0 0 1-4.261-11.835 17.595 17.595 0 0 1 4.774-12.861 16.254 16.254 0 0 1 12.151-4.892 19.449 19.449 0 0 1 7.89 1.381v3.945a15.78 15.78 0 0 0-7.89-1.973 12.072 12.072 0 0 0-9.271 3.945 14.36 14.36 0 0 0-3.551 10.178 13.689 13.689 0 0 0 3.314 9.665 11.283 11.283 0 0 0 8.719 3.59 16.333 16.333 0 0 0 8.64-2.209zm16.135 1.932a10.967 10.967 0 0 1-8.403-3.511 12.269 12.269 0 0 1-3.117-8.798 12.782 12.782 0 0 1 3.274-9.31 11.835 11.835 0 0 1 8.798-3.353 10.612 10.612 0 0 1 8.245 3.274 12.94 12.94 0 0 1 2.959 9.034 12.703 12.703 0 0 1-3.196 9.074 11.204 11.204 0 0 1-8.561 3.59zm.276-21.58a7.22 7.22 0 0 0-5.76 2.485 10.218 10.218 0 0 0-2.13 6.864 9.665 9.665 0 0 0 2.13 6.628 7.298 7.298 0 0 0 5.76 2.446 6.943 6.943 0 0 0 5.641-2.367 10.336 10.336 0 0 0 1.973-6.786 10.494 10.494 0 0 0-1.973-6.825 6.904 6.904 0 0 0-5.641-2.446zm29.904 1.185a4.655 4.655 0 0 0-2.88-.75 4.852 4.852 0 0 0-3.945 2.288 10.573 10.573 0 0 0-1.617 6.233v12.072h-3.945v-23.67h3.945v4.93a8.285 8.285 0 0 1 2.485-3.945 5.641 5.641 0 0 1 3.708-1.381 6.194 6.194 0 0 1 2.249.316zm23.12 8.995h-16.688a8.837 8.837 0 0 0 2.012 6.075 7.338 7.338 0 0 0 5.602 2.13 11.835 11.835 0 0 0 7.338-2.643v3.55a13.729 13.729 0 0 1-8.245 2.249 10.021 10.021 0 0 1-7.89-3.235 13.216 13.216 0 0 1-2.88-9.074 12.94 12.94 0 0 1 3.117-8.995 10.06 10.06 0 0 1 7.89-3.472 8.916 8.916 0 0 1 7.18 2.998 12.545 12.545 0 0 1 2.525 8.364zm-3.945-3.196a7.89 7.89 0 0 0-1.578-5.089 5.405 5.405 0 0 0-4.34-1.815 6.115 6.115 0 0 0-4.537 1.933 8.719 8.719 0 0 0-2.328 5.01z" fill="#f2f2f2"/></g>
    <path d="M56.992 14.228L62 17.15v6.857l.115-.006h3.772l.112.005V17.15l5.008-2.92A2 2 0 0 0 72 12.5v-7a2 2 0 0 0-.992-1.728l-6-3.5a2 2 0 0 0-2.016 0l-6 3.5A2 2 0 0 0 56 5.5v7a2 2 0 0 0 .992 1.728zM60 6.65l4-2.333 4 2.334v4.702l-4 2.334-4-2.334zm11.008 107.122L66 110.85v-6.857l-.112.005h-3.772c-.04 0-.076-.005-.115-.006v6.857l-5.008 2.92A2.001 2.001 0 0 0 56 115.5v7a2.001 2.001 0 0 0 .992 1.728l6 3.5a2 2 0 0 0 2.016 0l6-3.5A2.001 2.001 0 0 0 72 122.5v-7a2.001 2.001 0 0 0-.992-1.728zM68 121.352l-4 2.333-4-2.333v-4.703l4-2.333 4 2.333zm59.008-62.58l-6-3.5a2 2 0 0 0-2.016 0l-6 3.5A2 2 0 0 0 112 60.5V62h-8.005l.005.112v3.774l-.005.113H112v1.5a2.001 2.001 0 0 0 .992 1.728l6 3.5a2 2 0 0 0 2.016 0l6-3.5A2.001 2.001 0 0 0 128 67.5v-7a2 2 0 0 0-.992-1.728zM124 66.352l-4 2.333-4-2.333V61.65l4-2.334 4 2.334z" fill="#2c3e50"/>
    <path d="M106.072 94.76a2 2 0 0 0-1.923-.521l-5.607 1.475-4.846-4.846-.067.074-2.676 2.677-.085.077 4.846 4.846-1.475 5.607a2.001 2.001 0 0 0 .521 1.923l4.95 4.95a2.002 2.002 0 0 0 1.923.521l6.718-1.768a2.002 2.002 0 0 0 1.426-1.426l1.768-6.718a2.001 2.001 0 0 0-.521-1.923zm.13 11.443l-4.478 1.18-3.325-3.325 1.18-4.478 4.478-1.18 3.325 3.325zM21.928 33.24a1.999 1.999 0 0 0 1.923.52l5.606-1.475 4.85 4.85.082-.1 2.657-2.66.087-.08-4.848-4.848 1.475-5.608a2.001 2.001 0 0 0-.521-1.923l-4.95-4.95a1.999 1.999 0 0 0-1.923-.52l-6.718 1.768a2.001 2.001 0 0 0-1.426 1.425l-1.768 6.718a2.001 2.001 0 0 0 .521 1.923zm-.13-11.444l4.48-1.178 3.324 3.325-1.18 4.48-4.478 1.178-3.325-3.325z" fill="#5c2d91"/>
  </symbol>
  <symbol id="netcore-newbie" viewBox="0 0 92 92">
    <g transform="matrix(.229536 0 0 .229536 10.676493 33.84259)">
      <circle cx="129.757" cy="126.243" r="126.243" fill="#5c2d91"/>
      <g fill="#fff">
        <path d="M42.255 35.506a126.243 126.243 0 1 0 178.239 178.239z" opacity=".1"/>
        <path d="M32.708 146.955a5.326 5.326 0 0 1-3.945-1.657 5.444 5.444 0 0 1-1.617-3.945 5.523 5.523 0 0 1 1.617-3.945 5.286 5.286 0 0 1 3.945-1.696 5.405 5.405 0 0 1 3.945 1.696 5.484 5.484 0 0 1 1.657 3.945 5.405 5.405 0 0 1-1.657 3.945 5.444 5.444 0 0 1-3.945 1.657zm78.4-.987H100.76l-36.965-57.36a23.671 23.671 0 0 1-2.288-4.497h-.316a73.852 73.852 0 0 1 .395 9.863v51.996h-8.403V74.05H64.1l35.98 56.336q2.25 3.5 2.92 4.813h.197a76.061 76.061 0 0 1-.513-10.573V74.05h8.403zm56.888 0h-38.228V74.05H166.2v7.614h-27.852v23.907h25.96v7.575h-25.96v24.933h29.667zm56.455-64.305h-20.9v64.305h-8.403V81.663h-20.672V74.05h49.984z"/>
      </g>
      <path d="M106.56 194.888a19.449 19.449 0 0 1-9.153 1.933 14.755 14.755 0 0 1-11.322-4.537 16.806 16.806 0 0 1-4.261-11.835 17.595 17.595 0 0 1 4.774-12.861 16.254 16.254 0 0 1 12.151-4.892 19.449 19.449 0 0 1 7.89 1.381v3.945a15.78 15.78 0 0 0-7.89-1.973 12.072 12.072 0 0 0-9.271 3.945 14.36 14.36 0 0 0-3.551 10.178 13.689 13.689 0 0 0 3.314 9.665 11.283 11.283 0 0 0 8.719 3.59 16.333 16.333 0 0 0 8.64-2.209zm16.135 1.932a10.967 10.967 0 0 1-8.403-3.511 12.269 12.269 0 0 1-3.117-8.798 12.782 12.782 0 0 1 3.274-9.31 11.835 11.835 0 0 1 8.798-3.353 10.612 10.612 0 0 1 8.245 3.274 12.94 12.94 0 0 1 2.959 9.034 12.703 12.703 0 0 1-3.196 9.074 11.204 11.204 0 0 1-8.561 3.59zm.276-21.58a7.22 7.22 0 0 0-5.76 2.485 10.218 10.218 0 0 0-2.13 6.864 9.665 9.665 0 0 0 2.13 6.628 7.298 7.298 0 0 0 5.76 2.446 6.943 6.943 0 0 0 5.641-2.367 10.336 10.336 0 0 0 1.973-6.786 10.494 10.494 0 0 0-1.973-6.825 6.904 6.904 0 0 0-5.641-2.446zm29.904 1.185a4.655 4.655 0 0 0-2.88-.75 4.852 4.852 0 0 0-3.945 2.288 10.573 10.573 0 0 0-1.617 6.233v12.072h-3.945v-23.67h3.945v4.93a8.285 8.285 0 0 1 2.485-3.945 5.641 5.641 0 0 1 3.708-1.381 6.194 6.194 0 0 1 2.249.316zm23.12 8.995h-16.688a8.837 8.837 0 0 0 2.012 6.075 7.338 7.338 0 0 0 5.602 2.13 11.835 11.835 0 0 0 7.338-2.643v3.55a13.729 13.729 0 0 1-8.245 2.249 10.021 10.021 0 0 1-7.89-3.235 13.216 13.216 0 0 1-2.88-9.074 12.94 12.94 0 0 1 3.117-8.995 10.06 10.06 0 0 1 7.89-3.472 8.916 8.916 0 0 1 7.18 2.998 12.545 12.545 0 0 1 2.525 8.364zm-3.945-3.196a7.89 7.89 0 0 0-1.578-5.089 5.405 5.405 0 0 0-4.34-1.815 6.115 6.115 0 0 0-4.537 1.933 8.719 8.719 0 0 0-2.328 5.01z" fill="#f2f2f2"/>
    </g>
    <g fill="#fff" stroke="#5c2d91">
      <g transform="matrix(.598529 .113708 -.113708 .598529 101.7932 -84.662207)" stroke-width="2.537">
        <path d="M-59.998 204.41l-.102-2.79c-.306-5.472 1.435-11.05 6.042-16.735 3.275-4.185 5.94-7.725 5.94-11.263 0-3.754-2.354-6.33-7.476-6.437-3.378 0-7.474 1.287-10.138 3.218l-3.48-11.694c3.79-2.25 9.828-4.397 17.1-4.397 13.518 0 19.763 7.83 19.763 16.734 0 8.155-4.915 13.52-8.806 18.024-3.686 4.4-5.324 8.582-5.223 13.4v1.932z"/>
        <circle cx="-52.719" cy="218.169" r="7.241"/>
      </g>
      <g transform="matrix(.335564 .248929 -.248929 .335564 133.54503 -16.25585)" stroke-width="3.699">
        <path d="M-59.998 204.41l-.102-2.79c-.306-5.472 1.435-11.05 6.042-16.735 3.275-4.185 5.94-7.725 5.94-11.263 0-3.754-2.354-6.33-7.476-6.437-3.378 0-7.474 1.287-10.138 3.218l-3.48-11.694c3.79-2.25 9.828-4.397 17.1-4.397 13.518 0 19.763 7.83 19.763 16.734 0 8.155-4.915 13.52-8.806 18.024-3.686 4.4-5.324 8.582-5.223 13.4v1.932z"/>
        <circle cx="-52.719" cy="218.169" r="7.241"/>
      </g>
      <g transform="matrix(.464807 -.192705 .192705 .464807 12.28798 -71.573273)" stroke-width="3.072">
        <path d="M-59.998 204.41l-.102-2.79c-.306-5.472 1.435-11.05 6.042-16.735 3.275-4.185 5.94-7.725 5.94-11.263 0-3.754-2.354-6.33-7.476-6.437-3.378 0-7.474 1.287-10.138 3.218l-3.48-11.694c3.79-2.25 9.828-4.397 17.1-4.397 13.518 0 19.763 7.83 19.763 16.734 0 8.155-4.915 13.52-8.806 18.024-3.686 4.4-5.324 8.582-5.223 13.4v1.932z"/>
        <circle cx="-52.719" cy="218.169" r="7.241"/>
      </g>
    </g>
  </symbol>
</svg>
